{"glyphs":{"0":{"ha":868,"x_min":83,"x_max":785,"o":"m 434 -14 q 583 21 518 -14 q 693 122 648 56 q 762 285 738 188 q 785 505 785 381 q 762 724 785 628 q 693 887 738 821 q 582 989 648 954 q 434 1024 517 1024 q 286 989 351 1024 q 176 887 221 954 q 107 724 131 821 q 83 505 83 628 q 106 285 83 381 q 175 122 130 188 q 285 21 220 56 q 434 -14 351 -14 m 434 95 q 336 122 379 95 q 263 201 292 149 q 217 330 233 254 q 201 505 201 406 q 217 680 201 604 q 263 810 233 757 q 336 890 293 862 q 434 917 379 917 q 532 890 489 917 q 605 810 575 862 q 651 680 635 757 q 667 505 667 604 q 651 330 667 406 q 605 201 635 254 q 532 122 576 149 q 434 95 489 95 "},"1":{"ha":645,"x_min":85,"x_max":460,"o":"m 460 0 l 460 1010 l 337 1010 l 85 842 l 85 718 l 331 882 l 337 882 l 337 0 l 460 0 "},"2":{"ha":840,"x_min":105,"x_max":742,"o":"m 105 89 l 105 0 l 742 0 l 742 109 l 272 109 l 272 116 l 499 359 q 576 444 543 405 q 635 517 610 483 q 677 579 659 550 q 704 636 694 608 q 719 689 715 663 q 724 744 724 716 q 702 854 724 802 q 639 942 679 905 q 543 1002 598 980 q 420 1024 487 1024 q 297 1002 354 1024 q 198 942 240 981 q 132 848 156 903 q 109 726 109 793 l 225 726 q 238 804 225 769 q 277 865 252 839 q 337 904 302 890 q 416 917 372 917 q 493 905 457 917 q 554 871 528 893 q 595 816 580 848 q 610 744 610 784 q 599 677 610 709 q 568 612 589 646 q 514 540 546 578 q 438 454 482 502 l 105 89 "},"3":{"ha":884,"x_min":103,"x_max":787,"o":"m 446 -14 q 539 -4 495 -14 q 621 24 583 6 q 690 68 659 42 q 742 126 721 94 q 776 196 764 158 q 787 274 787 233 q 773 363 787 323 q 733 436 760 404 q 670 488 707 467 q 584 517 632 509 l 584 525 q 653 558 622 537 q 705 608 684 579 q 738 674 727 637 q 750 754 750 711 q 729 856 750 807 q 670 942 709 905 q 576 1002 631 980 q 450 1024 520 1024 q 326 1005 384 1024 q 224 950 268 985 q 153 866 180 915 q 124 758 127 817 l 243 758 q 262 825 244 796 q 308 875 279 855 q 372 907 336 896 q 448 917 408 917 q 524 905 490 917 q 581 871 557 893 q 618 818 605 849 q 631 748 631 786 q 617 675 631 708 q 575 620 602 643 q 510 585 548 597 q 428 572 473 572 l 347 572 l 347 464 l 428 464 q 530 450 486 464 q 605 411 575 436 q 651 351 635 386 q 667 274 667 316 q 650 201 667 234 q 604 145 634 168 q 534 108 575 121 q 444 95 493 95 q 362 106 400 95 q 294 137 324 116 q 248 187 265 157 q 227 253 230 216 l 103 253 q 132 144 106 193 q 204 60 158 95 q 311 5 249 25 q 446 -14 372 -14 "},"4":{"ha":892,"x_min":81,"x_max":811,"o":"m 81 308 l 81 207 l 556 207 l 556 0 l 673 0 l 673 207 l 811 207 l 811 316 l 673 316 l 673 1010 l 525 1010 l 81 308 m 556 854 l 556 316 l 213 316 l 213 324 l 548 854 l 556 854 "},"5":{"ha":844,"x_min":107,"x_max":754,"o":"m 420 -14 q 553 11 492 -14 q 659 81 615 36 q 728 188 703 126 q 754 322 754 249 q 729 457 754 395 q 662 565 705 519 q 561 636 619 610 q 432 661 502 661 q 382 657 406 661 q 334 645 357 653 q 292 627 312 637 q 256 604 272 616 l 251 604 l 286 902 l 708 902 l 708 1010 l 183 1010 l 122 513 l 237 499 q 273 520 253 510 q 317 536 294 529 q 365 547 340 543 q 412 550 389 550 q 502 532 461 550 q 572 484 543 515 q 618 411 602 453 q 635 320 635 369 q 619 230 635 271 q 574 159 603 188 q 506 112 545 129 q 420 95 467 95 q 347 107 381 95 q 287 139 313 118 q 245 189 261 160 q 225 253 228 218 l 107 253 q 134 146 109 195 q 201 62 159 97 q 299 6 243 26 q 420 -14 355 -14 "},"6":{"ha":866,"x_min":89,"x_max":777,"o":"m 440 -14 q 536 -2 491 -14 q 618 31 581 9 q 685 84 655 53 q 735 153 715 115 q 766 235 756 191 q 777 326 777 279 q 766 418 777 374 q 733 499 754 462 q 684 566 713 537 q 619 617 654 596 q 543 650 583 638 q 460 661 503 661 q 385 652 421 661 q 317 625 349 643 q 259 583 286 608 q 211 527 232 558 l 203 527 q 221 691 203 619 q 271 813 238 763 q 350 889 304 863 q 456 915 397 915 q 528 904 496 915 q 584 871 560 892 q 624 820 608 849 q 649 758 641 792 l 769 758 q 734 865 760 816 q 667 950 708 914 q 573 1004 626 985 q 456 1024 519 1024 q 302 987 370 1024 q 187 879 234 950 q 114 704 140 807 q 89 466 89 600 q 103 301 89 372 q 143 176 118 229 q 202 87 168 123 q 275 28 236 50 q 356 -3 314 6 q 440 -14 399 -13 m 440 95 q 352 113 393 95 q 283 164 312 132 q 237 237 254 195 q 221 324 221 278 q 238 410 221 369 q 286 483 255 452 q 356 534 316 515 q 444 552 397 552 q 530 535 490 552 q 598 486 569 517 q 643 414 626 455 q 659 326 659 372 q 642 236 659 278 q 596 162 625 193 q 526 113 566 131 q 440 95 486 95 "},"7":{"ha":793,"x_min":67,"x_max":714,"o":"m 588 894 l 136 0 l 264 0 l 714 896 l 714 1010 l 67 1010 l 67 902 l 588 902 l 588 894 "},"8":{"ha":856,"x_min":84,"x_max":771,"o":"m 428 -14 q 567 7 504 -14 q 675 66 630 28 q 746 155 721 103 q 771 268 771 207 q 756 359 771 316 q 714 437 740 402 q 653 494 688 471 q 576 525 617 517 l 576 531 q 640 561 612 540 q 690 612 669 582 q 722 678 711 642 q 734 756 733 715 q 710 862 733 813 q 646 947 687 911 q 550 1004 606 983 q 428 1024 494 1024 q 305 1004 362 1024 q 208 947 249 983 q 145 862 168 911 q 122 756 122 813 q 133 678 122 715 q 165 612 144 642 q 215 561 185 582 q 280 531 244 540 l 280 525 q 203 494 239 517 q 141 437 167 471 q 99 359 114 402 q 85 268 84 316 q 109 155 84 207 q 180 66 134 103 q 288 7 225 28 q 428 -14 352 -14 m 428 95 q 335 108 376 95 q 264 144 293 120 q 220 200 235 167 q 205 274 205 234 q 221 353 205 317 q 268 415 238 389 q 338 455 297 440 q 428 470 379 470 q 517 455 476 470 q 587 415 557 440 q 634 353 617 389 q 651 274 651 317 q 635 200 651 234 q 591 144 619 167 q 521 108 562 120 q 428 95 479 95 m 428 574 q 352 586 387 574 q 293 622 318 599 q 254 677 268 645 q 241 748 240 709 q 254 818 240 786 q 291 871 267 849 q 351 905 316 893 q 428 917 386 917 q 504 905 470 917 q 563 871 539 893 q 601 818 588 849 q 616 748 615 786 q 601 677 615 709 q 562 622 587 645 q 503 586 537 599 q 428 574 469 574 "},"9":{"ha":866,"x_min":89,"x_max":777,"o":"m 426 1024 q 287 998 349 1025 q 181 926 224 972 q 113 818 137 879 q 89 687 89 756 q 100 594 89 638 q 133 513 112 550 q 182 446 153 475 q 247 395 212 416 q 323 363 282 374 q 406 351 363 351 q 482 361 446 351 q 549 387 517 370 q 608 429 581 404 q 655 485 634 454 l 663 485 q 645 319 663 392 q 595 197 628 247 q 516 121 562 147 q 410 95 469 95 q 338 107 370 95 q 282 140 306 118 q 241 191 257 161 q 217 254 225 220 l 97 254 q 132 145 106 195 q 199 60 158 96 q 293 6 240 25 q 410 -14 347 -14 q 563 23 496 -14 q 679 132 631 60 q 752 308 727 203 q 777 546 777 412 q 763 710 777 639 q 723 835 748 782 q 664 924 698 888 q 591 981 630 959 q 510 1014 552 1004 q 426 1024 468 1023 m 426 915 q 514 897 473 915 q 583 846 554 878 q 629 774 612 815 q 645 689 645 733 q 628 602 645 644 q 580 529 611 561 q 509 478 550 497 q 422 460 469 460 q 336 477 376 460 q 268 526 297 495 q 223 598 239 556 q 207 687 207 639 q 224 776 207 734 q 270 848 241 817 q 340 897 299 879 q 426 915 380 915 "},"\r":{"ha":347,"x_min":0,"x_max":0,"o":""}," ":{"ha":391,"x_min":0,"x_max":0,"o":""},"!":{"ha":387,"x_min":105,"x_max":282,"o":"m 251 284 l 260 1010 l 126 1010 l 136 284 l 251 284 m 193 -8 q 228 -1 212 -8 q 256 18 244 6 q 275 46 268 30 q 282 81 282 63 q 275 115 282 99 q 256 144 268 132 q 228 163 244 156 q 193 170 212 170 q 159 163 175 170 q 130 144 143 156 q 111 115 118 132 q 105 81 105 99 q 111 46 105 63 q 130 18 118 30 q 159 -1 143 6 q 193 -8 175 -8 "},"\"":{"ha":560,"x_min":99,"x_max":460,"o":"m 207 663 l 207 1010 l 99 1010 l 99 663 l 207 663 m 460 663 l 460 1010 l 351 1010 l 351 663 l 460 663 "},"#":{"ha":876,"x_min":24,"x_max":852,"o":"m 529 280 l 483 0 l 582 0 l 628 280 l 777 280 l 793 379 l 644 379 l 686 631 l 836 631 l 852 730 l 702 730 l 748 1010 l 649 1010 l 603 730 l 347 730 l 393 1010 l 294 1010 l 248 730 l 99 730 l 83 631 l 232 631 l 190 379 l 39 379 l 24 280 l 174 280 l 128 0 l 227 0 l 273 280 l 529 280 m 545 379 l 289 379 l 330 631 l 587 631 l 545 379 "},"$":{"ha":886,"x_min":79,"x_max":807,"o":"m 402 -16 l 402 -126 l 483 -126 l 483 -16 q 621 14 561 -11 q 723 77 682 38 q 785 166 764 115 q 807 274 807 217 q 793 359 807 322 q 756 424 779 396 q 704 474 733 453 q 643 510 675 495 q 580 535 612 525 q 523 552 549 545 l 483 563 l 483 914 q 556 898 523 910 q 614 865 589 885 q 655 818 639 845 q 675 758 671 791 l 793 758 q 768 858 791 812 q 703 940 744 905 q 606 997 662 975 q 483 1023 550 1018 l 483 1136 l 402 1136 l 402 1021 q 285 992 339 1015 q 191 933 231 970 q 129 849 151 897 q 107 742 107 800 q 125 650 107 691 q 176 577 143 609 q 256 521 209 545 q 363 479 304 497 l 402 468 l 402 95 q 329 111 363 99 q 268 144 295 123 q 225 193 242 164 q 205 260 209 222 l 79 260 q 107 153 83 202 q 172 69 131 105 q 272 11 214 33 q 402 -16 330 -11 m 483 95 l 483 445 l 487 444 q 564 419 527 433 q 628 387 600 406 q 672 341 655 367 q 689 276 689 314 q 673 208 689 239 q 631 153 658 177 q 566 115 603 130 q 483 95 528 100 m 402 912 l 402 585 q 343 605 374 593 q 286 637 312 618 q 242 683 259 656 q 225 748 225 710 q 237 807 225 780 q 273 857 250 835 q 329 893 296 878 q 402 912 362 907 "},"%":{"ha":1128,"x_min":116,"x_max":1012,"o":"m 619 243 l 619 189 q 632 111 619 148 q 670 46 645 74 q 732 2 695 19 q 817 -14 769 -14 q 901 2 864 -14 q 962 46 937 19 q 999 111 986 74 q 1012 189 1012 148 l 1012 243 q 999 321 1012 284 q 963 386 987 358 q 902 430 938 413 q 817 446 865 446 q 733 430 769 446 q 671 386 696 413 q 633 321 646 358 q 619 243 619 284 m 116 821 l 116 767 q 129 689 116 726 q 167 624 142 652 q 229 581 192 597 q 314 564 266 564 q 398 581 361 564 q 459 624 434 597 q 496 689 483 652 q 509 767 509 726 l 509 821 q 496 899 509 862 q 459 964 484 936 q 399 1008 435 991 q 314 1024 362 1024 q 230 1008 266 1024 q 168 964 193 991 q 129 899 143 936 q 116 821 116 862 m 848 1010 l 154 0 l 266 0 l 961 1010 l 848 1010 m 720 189 l 720 243 q 726 287 720 266 q 743 325 731 308 q 773 351 754 341 q 817 361 791 361 q 862 351 843 361 q 891 325 880 341 q 907 287 902 308 q 911 243 911 266 l 911 189 q 906 145 911 167 q 890 107 901 124 q 861 81 879 91 q 817 71 843 71 q 772 81 790 71 q 742 107 753 91 q 725 145 730 124 q 720 189 720 167 m 217 767 l 217 821 q 222 865 217 844 q 239 903 228 886 q 270 929 251 919 q 314 939 288 939 q 359 929 340 939 q 388 903 377 919 q 404 865 399 886 q 408 821 408 844 l 408 767 q 403 723 408 745 q 387 685 398 702 q 358 659 376 669 q 314 649 340 649 q 269 659 287 649 q 239 685 250 669 q 222 723 227 702 q 217 767 217 745 "},"&":{"ha":888,"x_min":71,"x_max":866,"o":"m 393 -14 q 464 -8 428 -14 q 534 11 500 -1 q 599 42 568 23 q 654 86 630 61 l 726 0 l 866 0 l 727 170 q 755 213 741 188 q 781 272 769 238 q 800 347 793 305 q 807 442 807 389 l 694 442 q 683 345 694 390 q 653 261 672 299 l 433 529 l 507 584 q 563 632 538 607 q 605 683 588 656 q 632 742 622 711 q 641 809 641 773 q 624 890 641 851 q 576 957 608 928 q 499 1003 544 985 q 397 1020 454 1020 q 296 1003 341 1020 q 219 957 251 987 q 169 884 187 926 q 152 791 152 842 q 161 727 152 758 q 185 668 169 697 q 222 609 201 638 q 270 548 244 580 q 189 487 226 518 q 127 423 153 457 q 86 352 100 390 q 71 268 71 314 q 93 155 71 207 q 157 66 115 104 q 258 7 199 28 q 393 -14 318 -14 m 343 462 l 585 170 q 492 110 543 131 q 389 89 441 89 q 307 104 344 89 q 244 143 270 118 q 204 200 218 168 q 189 268 189 233 q 195 296 189 279 q 214 336 200 314 q 249 384 227 359 q 306 434 272 409 l 343 462 m 428 665 l 362 616 q 327 660 343 638 q 297 704 310 682 q 278 747 285 726 q 270 789 270 768 q 280 836 270 813 q 307 878 290 860 q 348 908 324 897 q 400 919 372 919 q 451 909 428 919 q 489 883 473 899 q 514 848 505 868 q 523 809 523 828 q 516 763 523 783 q 497 725 509 742 q 467 694 484 708 q 428 665 450 679 "},"'":{"ha":308,"x_min":99,"x_max":207,"o":"m 207 663 l 207 1010 l 99 1010 l 99 663 l 207 663 "},"(":{"ha":503,"x_min":148,"x_max":438,"o":"m 148 426 q 197 83 148 240 q 335 -205 245 -73 l 438 -205 q 393 -129 414 -173 q 352 -36 371 -86 q 318 71 333 15 q 291 187 302 128 q 274 307 280 246 q 268 426 268 367 q 274 545 268 485 q 291 665 280 606 q 318 781 302 725 q 352 888 333 837 q 393 982 371 939 q 438 1057 414 1025 l 335 1057 q 197 769 245 926 q 148 426 148 613 "},")":{"ha":503,"x_min":65,"x_max":355,"o":"m 355 426 q 307 769 355 613 q 168 1057 258 926 l 65 1057 q 110 982 89 1025 q 151 888 132 939 q 185 781 170 837 q 212 665 201 725 q 229 545 223 606 q 235 426 235 485 q 229 307 235 367 q 212 187 223 246 q 185 71 201 128 q 151 -36 170 15 q 110 -129 132 -86 q 65 -205 89 -173 l 168 -205 q 307 83 258 -73 q 355 426 355 240 "},"*":{"ha":694,"x_min":77,"x_max":618,"o":"m 308 659 l 300 442 l 395 442 l 387 659 l 570 543 l 618 625 l 424 726 l 618 827 l 570 909 l 387 793 l 395 1010 l 300 1010 l 308 793 l 124 909 l 77 827 l 270 726 l 77 625 l 124 543 l 308 659 "},"+":{"ha":915,"x_min":132,"x_max":783,"o":"m 402 339 l 402 69 l 513 69 l 513 339 l 783 339 l 783 450 l 513 450 l 513 720 l 402 720 l 402 450 l 132 450 l 132 339 l 402 339 "},",":{"ha":389,"x_min":93,"x_max":280,"o":"m 272 85 l 280 138 l 154 138 l 148 83 q 135 -16 143 33 q 120 -109 128 -65 q 105 -187 112 -152 q 93 -247 98 -223 l 182 -247 q 203 -182 190 -221 q 229 -98 216 -143 q 254 -5 243 -53 q 272 85 266 43 "},"-":{"ha":639,"x_min":99,"x_max":541,"o":"m 541 379 l 541 487 l 99 487 l 99 379 l 541 379 "},".":{"ha":383,"x_min":103,"x_max":280,"o":"m 191 -8 q 226 -1 210 -8 q 254 18 242 6 q 273 46 266 30 q 280 81 280 63 q 273 115 280 99 q 254 144 266 132 q 226 163 242 156 q 191 170 210 170 q 157 163 173 170 q 128 144 141 156 q 109 115 116 132 q 103 81 103 99 q 109 46 103 63 q 128 18 116 30 q 157 -1 141 6 q 191 -8 173 -8 "},"/":{"ha":495,"x_min":32,"x_max":464,"o":"m 138 -152 l 464 1057 l 357 1057 l 32 -152 l 138 -152 "},":":{"ha":383,"x_min":103,"x_max":280,"o":"m 191 -8 q 226 -1 210 -8 q 254 18 242 6 q 273 46 266 30 q 280 81 280 63 q 273 115 280 99 q 254 144 266 132 q 226 163 242 156 q 191 170 210 170 q 157 163 173 170 q 128 144 141 156 q 109 115 116 132 q 103 81 103 99 q 109 46 103 63 q 128 18 116 30 q 157 -1 141 6 q 191 -8 173 -8 m 191 554 q 226 561 210 554 q 254 580 242 568 q 273 609 266 592 q 280 643 280 625 q 273 678 280 661 q 254 706 266 694 q 226 725 242 718 q 191 732 210 732 q 157 725 173 732 q 128 706 141 718 q 109 678 116 694 q 103 643 103 661 q 109 609 103 625 q 128 580 116 592 q 157 561 141 568 q 191 554 173 554 "},";":{"ha":389,"x_min":93,"x_max":298,"o":"m 272 85 l 280 138 l 154 138 l 148 83 q 135 -16 143 33 q 120 -109 128 -65 q 105 -187 112 -152 q 93 -247 98 -223 l 182 -247 q 203 -182 190 -221 q 229 -98 216 -143 q 254 -5 243 -53 q 272 85 266 43 m 209 554 q 244 561 227 554 q 272 580 260 568 q 291 609 284 592 q 298 643 298 625 q 291 678 298 661 q 272 706 284 694 q 244 725 260 718 q 209 732 227 732 q 175 725 191 732 q 146 706 158 718 q 127 678 134 694 q 120 643 120 661 q 127 609 120 625 q 146 580 134 592 q 175 561 158 568 q 209 554 191 554 "},"<":{"ha":915,"x_min":140,"x_max":775,"o":"m 140 434 l 140 355 l 775 32 l 775 158 l 292 391 l 292 399 l 775 631 l 775 758 l 140 434 "},"=":{"ha":915,"x_min":154,"x_max":762,"o":"m 154 302 l 154 195 l 762 195 l 762 302 l 154 302 m 154 594 l 154 487 l 762 487 l 762 594 l 154 594 "},">":{"ha":915,"x_min":140,"x_max":775,"o":"m 140 32 l 775 355 l 775 434 l 140 758 l 140 631 l 623 399 l 623 391 l 140 158 l 140 32 "},"?":{"ha":704,"x_min":55,"x_max":635,"o":"m 258 290 l 258 284 l 377 284 l 377 290 q 384 370 378 336 q 405 431 391 404 q 442 478 419 457 q 497 520 465 500 q 599 618 562 559 q 635 758 635 676 q 615 864 635 815 q 557 948 595 913 q 467 1004 520 984 q 349 1024 414 1024 q 237 1006 290 1024 q 145 954 184 988 q 82 870 106 919 q 55 758 58 821 l 180 758 q 198 832 182 801 q 237 883 213 863 q 290 912 260 903 q 349 921 319 921 q 415 910 384 921 q 468 879 445 899 q 504 829 491 858 q 517 763 517 800 q 509 709 517 734 q 487 662 501 684 q 455 624 473 641 q 414 594 436 607 q 349 548 378 572 q 301 491 321 524 q 270 409 281 457 q 258 290 259 361 m 322 -8 q 356 -1 340 -8 q 384 18 372 6 q 403 46 397 30 q 410 81 410 63 q 403 115 410 99 q 384 144 397 132 q 356 163 372 156 q 322 170 340 170 q 287 163 303 170 q 259 144 271 156 q 240 115 247 132 q 233 81 233 99 q 240 46 233 63 q 259 18 247 30 q 287 -1 271 6 q 322 -8 303 -8 "},"@":{"ha":1300,"x_min":67,"x_max":1233,"o":"m 689 -266 q 768 -261 727 -266 q 849 -248 809 -256 q 922 -231 888 -240 q 979 -211 956 -221 l 951 -120 q 911 -133 938 -125 q 849 -150 884 -142 q 774 -165 814 -159 q 692 -172 733 -172 q 470 -137 566 -172 q 308 -35 373 -102 q 209 130 242 32 q 176 353 176 227 q 209 575 176 477 q 306 740 243 672 q 461 844 369 808 q 669 880 553 880 q 812 862 747 880 q 928 814 876 845 q 1017 742 979 784 q 1081 651 1055 700 q 1118 547 1106 602 q 1130 438 1130 493 q 1125 292 1130 354 q 1106 191 1120 231 q 1068 132 1092 151 q 1006 112 1044 112 q 967 121 984 112 q 939 144 950 130 q 921 177 927 158 q 915 217 915 196 l 915 663 l 811 663 l 811 608 l 805 608 q 783 638 800 624 q 742 663 767 653 q 685 678 717 673 q 616 679 653 683 q 512 648 560 673 q 430 581 465 622 q 375 485 395 541 q 355 363 355 430 q 372 232 355 293 q 421 127 388 172 q 503 55 454 81 q 616 26 551 28 q 690 33 658 24 q 746 57 723 41 q 786 93 770 73 q 811 134 802 113 l 817 134 q 841 81 821 103 q 889 45 862 59 q 947 26 916 32 q 1004 20 979 20 q 1094 37 1056 20 q 1156 85 1131 55 q 1197 156 1182 115 q 1220 243 1212 197 q 1231 339 1228 290 q 1233 436 1233 388 q 1217 570 1233 504 q 1170 695 1201 636 q 1092 806 1139 755 q 983 893 1046 856 q 844 952 921 931 q 675 973 767 973 q 419 930 532 973 q 228 809 306 888 q 109 616 150 730 q 67 357 67 502 q 108 91 67 208 q 227 -104 148 -25 q 422 -225 306 -183 q 689 -266 538 -266 m 631 126 q 550 146 583 126 q 496 200 517 167 q 467 278 476 234 q 458 369 458 322 q 470 451 458 412 q 504 518 481 489 q 560 565 527 547 q 635 582 593 582 q 714 572 680 582 q 771 538 748 562 q 805 472 794 513 q 817 369 817 431 q 806 262 817 308 q 774 186 796 217 q 716 141 751 156 q 631 126 681 126 "},"A":{"ha":939,"x_min":36,"x_max":904,"o":"m 36 0 l 164 0 l 265 286 l 674 286 l 775 0 l 904 0 l 533 1010 l 406 1010 l 36 0 m 635 395 l 304 395 l 466 850 l 473 850 l 635 395 "},"B":{"ha":904,"x_min":122,"x_max":825,"o":"m 122 1010 l 122 0 l 487 0 q 641 20 577 0 q 745 77 705 41 q 805 163 786 113 q 825 268 825 212 q 806 375 825 328 q 758 453 787 421 q 692 502 728 484 q 621 521 656 519 l 621 531 q 684 555 654 540 q 736 596 713 571 q 772 657 759 621 q 785 742 785 693 q 766 846 785 798 q 709 931 748 895 q 613 989 671 968 q 475 1010 555 1010 l 122 1010 m 487 109 l 245 109 l 245 460 l 493 460 q 583 444 543 460 q 650 402 622 429 q 693 342 678 376 q 708 268 708 307 q 696 206 708 235 q 658 155 684 177 q 589 121 631 134 q 487 109 547 109 m 472 566 l 245 566 l 245 902 l 475 902 q 562 889 526 902 q 622 855 599 876 q 657 804 646 834 q 669 742 669 775 q 654 670 669 702 q 612 614 638 637 q 549 579 585 591 q 472 566 513 566 "},"C":{"ha":1010,"x_min":83,"x_max":935,"o":"m 813 694 l 935 694 q 885 834 921 772 q 794 937 848 895 q 673 1001 740 979 q 529 1024 605 1024 q 406 1008 464 1024 q 298 960 348 991 q 209 884 249 929 q 141 782 169 839 q 98 654 113 724 q 83 505 83 585 q 98 356 83 425 q 141 228 113 286 q 209 126 169 171 q 298 50 249 81 q 406 2 348 19 q 529 -14 464 -14 q 673 9 605 -14 q 794 73 740 31 q 885 177 848 115 q 935 316 921 238 l 813 316 q 775 223 802 263 q 710 156 748 183 q 626 114 672 128 q 529 101 579 101 q 400 127 460 101 q 296 204 340 153 q 227 331 252 255 q 201 505 201 407 q 227 679 201 604 q 296 806 252 755 q 400 883 340 857 q 529 909 460 909 q 626 896 579 909 q 710 854 672 882 q 775 787 748 827 q 813 694 802 747 "},"D":{"ha":998,"x_min":122,"x_max":915,"o":"m 122 0 l 434 0 q 639 35 549 0 q 790 135 729 70 q 884 295 852 201 q 915 507 915 389 q 884 718 915 625 q 792 876 852 811 q 645 976 732 941 q 448 1010 558 1010 l 122 1010 l 122 0 m 426 109 l 245 109 l 245 902 l 440 902 q 596 874 529 902 q 707 796 662 847 q 775 672 752 745 q 797 507 797 599 q 774 341 797 415 q 706 215 752 267 q 590 136 659 164 q 426 109 520 109 "},"E":{"ha":831,"x_min":122,"x_max":740,"o":"m 122 1010 l 122 0 l 740 0 l 740 109 l 245 109 l 245 452 l 700 452 l 700 560 l 245 560 l 245 902 l 732 902 l 732 1010 l 122 1010 "},"F":{"ha":815,"x_min":122,"x_max":728,"o":"m 122 1010 l 122 0 l 245 0 l 245 452 l 683 452 l 683 560 l 245 560 l 245 902 l 728 902 l 728 1010 l 122 1010 "},"G":{"ha":1032,"x_min":83,"x_max":945,"o":"m 813 694 l 939 694 q 889 828 925 768 q 798 932 852 889 q 674 1000 744 976 q 525 1024 605 1024 q 346 988 428 1024 q 207 885 265 952 q 115 721 148 817 q 83 505 83 625 q 115 289 83 385 q 207 126 148 193 q 349 22 266 59 q 533 -14 432 -14 q 699 15 623 -14 q 829 97 774 44 q 914 227 884 151 q 945 397 945 303 l 945 505 l 560 505 l 560 397 l 827 397 q 803 274 825 328 q 743 181 781 219 q 650 121 704 142 q 533 101 597 101 q 402 127 463 101 q 297 204 341 153 q 227 331 252 255 q 201 505 201 407 q 227 679 201 604 q 296 806 252 755 q 399 883 339 857 q 525 909 458 909 q 625 894 580 909 q 708 852 671 879 q 770 784 744 824 q 813 694 797 744 "},"H":{"ha":1028,"x_min":122,"x_max":906,"o":"m 122 1010 l 122 0 l 245 0 l 245 452 l 783 452 l 783 0 l 906 0 l 906 1010 l 783 1010 l 783 560 l 245 560 l 245 1010 l 122 1010 "},"I":{"ha":367,"x_min":122,"x_max":245,"o":"m 245 0 l 245 1010 l 122 1010 l 122 0 l 245 0 "},"J":{"ha":754,"x_min":57,"x_max":631,"o":"m 631 1010 l 509 1010 l 509 288 q 466 144 509 193 q 343 95 423 95 q 277 105 307 95 q 224 133 247 115 q 190 178 202 152 q 178 237 178 205 l 57 237 q 79 132 57 179 q 138 53 100 86 q 229 3 176 21 q 343 -14 281 -14 q 462 6 409 -14 q 553 65 515 26 q 611 159 591 103 q 631 288 631 216 l 631 1010 "},"K":{"ha":906,"x_min":122,"x_max":870,"o":"m 122 1010 l 122 0 l 245 0 l 245 327 l 371 470 l 722 0 l 870 0 l 446 554 l 870 1010 l 710 1010 l 256 509 l 245 509 l 245 1010 l 122 1010 "},"L":{"ha":781,"x_min":122,"x_max":714,"o":"m 122 1010 l 122 0 l 714 0 l 714 109 l 245 109 l 245 1010 l 122 1010 "},"M":{"ha":1235,"x_min":122,"x_max":1113,"o":"m 268 1010 l 122 1010 l 122 0 l 237 0 l 237 767 l 247 767 l 562 0 l 673 0 l 988 767 l 998 767 l 998 0 l 1113 0 l 1113 1010 l 967 1010 l 623 172 l 612 172 l 268 1010 "},"N":{"ha":1046,"x_min":122,"x_max":923,"o":"m 923 0 l 923 1010 l 803 1010 l 803 215 l 793 215 l 241 1010 l 122 1010 l 122 0 l 245 0 l 245 793 l 254 793 l 805 0 l 923 0 "},"O":{"ha":1057,"x_min":83,"x_max":975,"o":"m 975 505 q 941 721 975 625 q 849 885 908 817 q 708 988 789 952 q 529 1024 626 1024 q 406 1008 464 1024 q 298 960 348 991 q 209 884 249 929 q 141 782 169 839 q 98 654 113 724 q 83 505 83 585 q 98 356 83 425 q 141 228 113 286 q 209 126 169 171 q 298 50 249 81 q 406 2 348 19 q 529 -14 464 -14 q 708 22 626 -14 q 849 126 789 59 q 941 289 908 193 q 975 505 975 385 m 856 505 q 831 331 856 407 q 761 204 805 255 q 657 127 717 153 q 529 101 598 101 q 400 127 460 101 q 296 204 340 153 q 227 331 252 255 q 201 505 201 407 q 227 679 201 604 q 296 806 252 755 q 400 883 340 857 q 529 909 460 909 q 657 883 598 909 q 761 806 717 857 q 831 679 805 755 q 856 505 856 604 "},"P":{"ha":882,"x_min":122,"x_max":807,"o":"m 122 1010 l 122 0 l 245 0 l 245 369 l 466 369 q 618 394 554 369 q 725 463 683 419 q 787 565 766 507 q 807 690 807 623 q 787 816 807 758 q 724 917 766 874 q 617 985 682 960 q 464 1010 552 1010 l 122 1010 m 462 477 l 245 477 l 245 902 l 460 902 q 564 886 521 902 q 635 841 608 870 q 674 775 662 813 q 687 690 687 736 q 674 606 687 645 q 635 539 662 567 q 565 494 608 510 q 462 477 522 477 "},"Q":{"ha":1057,"x_min":83,"x_max":975,"o":"m 975 505 q 941 721 975 625 q 849 885 908 817 q 708 988 789 952 q 529 1024 626 1024 q 406 1008 464 1024 q 298 960 348 991 q 209 884 249 929 q 141 782 169 839 q 98 654 113 724 q 83 505 83 585 q 98 356 83 425 q 141 228 113 286 q 209 126 169 171 q 298 50 249 81 q 406 2 348 19 q 529 -14 464 -14 q 711 24 627 -14 l 799 -95 l 933 -95 l 801 80 q 874 157 842 113 q 928 255 906 201 q 963 371 951 308 q 975 505 975 434 m 623 316 l 489 316 l 639 119 q 529 101 587 101 q 400 127 460 101 q 296 204 340 153 q 227 331 252 255 q 201 505 201 407 q 227 679 201 604 q 296 806 252 755 q 400 883 340 857 q 529 909 460 909 q 657 883 598 909 q 761 806 717 857 q 831 679 805 755 q 856 505 856 604 q 822 308 856 391 q 731 174 789 224 l 623 316 "},"R":{"ha":888,"x_min":122,"x_max":846,"o":"m 122 1010 l 122 0 l 245 0 l 245 395 l 466 395 q 479 395 472 395 q 491 395 485 395 l 704 0 l 846 0 l 618 417 q 702 461 666 434 q 761 525 737 489 q 796 606 784 561 q 807 700 807 650 q 787 824 807 767 q 724 922 766 881 q 617 987 682 964 q 464 1010 552 1010 l 122 1010 m 462 505 l 245 505 l 245 902 l 460 902 q 564 887 521 902 q 635 847 607 873 q 674 783 662 820 q 687 700 687 746 q 674 619 687 655 q 635 557 662 582 q 565 519 608 532 q 462 505 522 505 "},"S":{"ha":886,"x_min":79,"x_max":807,"o":"m 675 758 l 793 758 q 765 864 791 815 q 694 948 739 912 q 587 1004 649 983 q 452 1024 525 1024 q 316 1004 379 1024 q 207 946 254 983 q 133 857 160 909 q 107 742 107 805 q 125 650 107 691 q 176 577 143 609 q 256 521 209 545 q 363 479 304 497 l 487 444 q 564 419 527 433 q 628 387 600 406 q 672 341 655 367 q 689 276 689 314 q 670 201 689 235 q 618 143 651 167 q 540 106 584 119 q 442 93 495 93 q 356 103 397 93 q 282 134 314 113 q 230 186 250 154 q 205 260 209 218 l 79 260 q 110 147 83 198 q 184 59 137 96 q 295 2 230 23 q 442 -18 361 -18 q 597 5 529 -18 q 712 67 665 28 q 783 160 759 106 q 807 274 807 213 q 793 359 807 322 q 756 424 779 396 q 704 474 733 453 q 643 510 675 495 q 580 535 612 525 q 523 552 549 545 l 420 580 q 380 592 401 585 q 336 608 358 599 q 294 631 315 618 q 259 660 274 644 q 234 699 244 677 q 225 748 225 721 q 241 815 225 784 q 286 868 257 845 q 356 903 315 890 q 448 915 398 915 q 533 905 494 915 q 603 874 573 894 q 652 824 633 854 q 675 758 670 795 "},"T":{"ha":892,"x_min":67,"x_max":825,"o":"m 67 1010 l 67 902 l 385 902 l 385 0 l 507 0 l 507 902 l 825 902 l 825 1010 l 67 1010 "},"U":{"ha":1030,"x_min":122,"x_max":908,"o":"m 908 1010 l 785 1010 l 785 351 q 767 249 785 296 q 713 168 748 202 q 628 116 679 135 q 515 97 578 97 q 401 116 452 97 q 316 168 351 135 q 263 249 282 202 q 245 351 245 296 l 245 1010 l 122 1010 l 122 341 q 150 198 122 264 q 229 84 178 132 q 353 9 281 36 q 515 -18 426 -18 q 677 9 604 -18 q 800 84 749 36 q 880 198 852 132 q 908 341 908 264 l 908 1010 "},"V":{"ha":939,"x_min":36,"x_max":904,"o":"m 464 160 l 164 1010 l 36 1010 l 406 0 l 533 0 l 904 1010 l 775 1010 l 475 160 l 464 160 "},"W":{"ha":1318,"x_min":30,"x_max":1288,"o":"m 30 1010 l 306 0 l 432 0 l 655 805 l 663 805 l 886 0 l 1012 0 l 1288 1010 l 1164 1010 l 953 187 l 943 187 l 728 1010 l 590 1010 l 375 187 l 365 187 l 154 1010 l 30 1010 "},"X":{"ha":892,"x_min":37,"x_max":854,"o":"m 442 590 l 182 1010 l 37 1010 l 363 505 l 37 0 l 182 0 l 442 412 l 450 412 l 710 0 l 854 0 l 537 505 l 854 1010 l 710 1010 l 450 590 l 442 590 "},"Y":{"ha":923,"x_min":36,"x_max":888,"o":"m 176 1010 l 36 1010 l 400 416 l 400 0 l 523 0 l 523 416 l 888 1010 l 748 1010 l 468 539 l 456 539 l 176 1010 "},"Z":{"ha":868,"x_min":83,"x_max":785,"o":"m 89 89 l 89 0 l 785 0 l 785 109 l 235 109 l 779 921 l 779 1010 l 83 1010 l 83 902 l 633 902 l 89 89 "},"[":{"ha":503,"x_min":164,"x_max":456,"o":"m 164 1057 l 164 -205 l 456 -205 l 456 -109 l 274 -109 l 274 961 l 456 961 l 456 1057 l 164 1057 "},"\\":{"ha":495,"x_min":32,"x_max":464,"o":"m 32 1057 l 357 -152 l 464 -152 l 138 1057 l 32 1057 "},"]":{"ha":503,"x_min":47,"x_max":339,"o":"m 339 -205 l 339 1057 l 47 1057 l 47 961 l 229 961 l 229 -109 l 47 -109 l 47 -205 l 339 -205 "},"^":{"ha":651,"x_min":55,"x_max":596,"o":"m 258 979 l 55 552 l 174 552 l 323 874 l 329 874 l 479 552 l 596 552 l 393 979 l 258 979 "},"_":{"ha":627,"x_min":-2,"x_max":629,"o":"m 629 -109 l 629 0 l -2 0 l -2 -109 l 629 -109 "},"`":{"ha":690,"x_min":217,"x_max":473,"o":"m 217 1089 l 371 860 l 473 860 l 353 1089 l 217 1089 "},"a":{"ha":783,"x_min":71,"x_max":677,"o":"m 329 -18 q 417 -6 379 -18 q 483 24 455 6 q 528 63 510 42 q 554 103 545 84 l 560 103 l 560 0 l 677 0 l 677 499 q 663 602 677 559 q 626 675 649 646 q 573 724 603 705 q 512 751 543 742 q 451 764 481 761 q 397 767 421 767 q 309 759 354 767 q 224 730 265 751 q 149 676 183 710 q 93 590 115 642 l 203 550 q 229 592 213 571 q 270 628 246 612 q 327 655 294 645 q 400 665 359 665 q 521 624 481 665 q 560 511 560 584 l 560 507 q 549 475 560 486 q 514 458 538 464 q 454 449 491 452 q 365 438 417 445 q 294 427 330 434 q 226 411 259 421 q 165 385 194 400 q 116 346 137 369 q 83 291 95 323 q 71 215 71 258 q 91 116 71 160 q 146 43 111 73 q 228 -2 181 13 q 329 -18 276 -18 m 347 87 q 283 94 313 87 q 233 118 254 102 q 199 156 211 133 q 187 209 187 179 q 201 265 187 243 q 239 302 216 288 q 294 325 263 317 q 359 337 325 333 q 390 341 371 339 q 429 346 408 343 q 471 352 449 349 q 510 360 492 356 q 542 370 529 364 q 560 381 555 375 l 560 274 q 546 205 560 239 q 506 145 533 171 q 439 103 478 119 q 347 87 399 87 "},"b":{"ha":862,"x_min":122,"x_max":791,"o":"m 122 1010 l 122 0 l 235 0 l 235 116 l 249 116 q 264 92 255 106 q 285 64 272 78 q 314 35 297 49 q 353 9 330 21 q 404 -9 375 -2 q 470 -16 433 -16 q 600 12 541 -16 q 701 91 659 39 q 767 214 744 142 q 791 377 791 287 q 767 539 791 467 q 701 662 744 611 q 599 740 658 713 q 468 767 540 767 q 402 761 431 767 q 351 743 373 754 q 312 717 328 731 q 284 689 296 703 q 263 661 272 674 q 249 637 255 647 l 239 637 l 239 1010 l 122 1010 m 237 379 q 251 495 237 442 q 292 584 265 547 q 360 642 320 622 q 454 663 400 663 q 551 641 509 663 q 620 581 592 619 q 661 491 647 543 q 675 379 675 439 q 661 265 675 318 q 619 173 647 213 q 550 111 591 134 q 454 89 509 89 q 361 110 401 89 q 293 169 320 131 q 251 261 265 208 q 237 379 237 315 "},"c":{"ha":775,"x_min":71,"x_max":712,"o":"m 414 -16 q 529 2 477 -16 q 619 53 581 21 q 681 127 657 84 q 712 221 705 171 l 596 221 q 571 165 588 190 q 531 124 554 141 q 478 98 508 107 q 414 89 448 89 q 321 109 363 89 q 249 168 279 130 q 203 259 219 206 q 187 379 187 313 q 204 496 187 443 q 250 585 220 548 q 322 643 280 622 q 414 663 363 663 q 483 652 453 663 q 537 623 514 641 q 575 581 560 604 q 596 531 589 557 l 712 531 q 679 628 705 584 q 615 702 654 671 q 524 750 576 733 q 412 767 472 767 q 273 739 335 767 q 165 658 210 710 q 95 534 120 606 q 71 375 71 462 q 95 218 71 290 q 163 94 118 146 q 271 13 207 42 q 414 -16 334 -16 "},"d":{"ha":862,"x_min":71,"x_max":740,"o":"m 393 -16 q 458 -9 429 -16 q 509 9 487 -2 q 548 35 532 21 q 577 64 565 49 q 599 92 590 78 q 614 116 607 106 l 627 116 l 627 0 l 740 0 l 740 1010 l 623 1010 l 623 637 l 614 637 q 599 661 607 647 q 578 689 590 674 q 550 717 566 703 q 511 743 534 731 q 460 761 489 754 q 395 767 432 767 q 263 740 323 767 q 161 662 204 713 q 95 539 118 611 q 71 377 71 467 q 95 214 71 287 q 161 91 118 142 q 262 12 203 39 q 393 -16 322 -16 m 408 89 q 312 111 354 89 q 243 173 271 134 q 201 265 216 213 q 187 379 187 318 q 201 491 187 439 q 242 581 215 543 q 311 641 270 619 q 408 663 353 663 q 502 642 462 663 q 570 584 543 622 q 612 495 598 547 q 625 379 625 442 q 611 261 625 315 q 569 169 597 208 q 502 110 542 131 q 408 89 461 89 "},"e":{"ha":809,"x_min":71,"x_max":738,"o":"m 424 -16 q 531 -2 482 -16 q 619 37 581 12 q 686 97 658 62 q 726 176 713 133 l 614 207 q 542 118 591 148 q 424 89 493 89 q 330 105 373 89 q 257 153 288 121 q 208 232 226 185 q 188 339 190 279 l 738 339 l 738 389 q 725 515 738 459 q 689 612 712 570 q 634 684 665 654 q 567 732 603 713 q 491 759 531 751 q 412 767 452 767 q 273 739 335 767 q 165 657 210 710 q 95 533 120 605 q 71 373 71 460 q 95 214 71 286 q 165 91 120 143 q 277 12 211 40 q 424 -16 342 -16 m 619 440 l 188 440 q 208 525 191 484 q 253 596 224 565 q 322 645 282 626 q 412 663 363 663 q 498 646 460 663 q 563 600 536 629 q 605 529 590 570 q 619 440 619 488 "},"f":{"ha":501,"x_min":36,"x_max":481,"o":"m 444 659 l 444 758 l 274 758 l 274 835 q 300 920 274 891 q 383 949 325 949 q 423 945 408 949 q 448 937 439 940 l 481 1038 q 441 1051 468 1044 q 371 1057 414 1057 q 292 1045 330 1057 q 224 1009 254 1033 q 176 948 194 984 q 158 862 158 911 l 158 758 l 36 758 l 36 659 l 158 659 l 158 0 l 274 0 l 274 659 l 444 659 "},"g":{"ha":846,"x_min":71,"x_max":740,"o":"m 412 -300 q 540 -284 480 -300 q 644 -234 600 -268 q 714 -148 689 -200 q 740 -22 740 -95 l 740 758 l 627 758 l 627 637 l 616 637 q 600 661 609 647 q 580 689 592 674 q 551 717 568 703 q 512 743 534 731 q 460 761 489 754 q 395 767 432 767 q 263 740 323 767 q 161 662 204 713 q 95 541 118 612 q 71 383 71 470 q 95 225 71 294 q 163 109 120 156 q 265 36 206 61 q 393 12 324 12 q 458 18 430 12 q 510 36 487 25 q 549 60 532 47 q 578 88 566 74 q 599 116 590 103 q 614 140 607 130 l 623 140 l 623 -14 q 608 -96 623 -61 q 564 -153 592 -130 q 497 -186 536 -176 q 412 -197 458 -197 q 325 -185 361 -197 q 264 -156 289 -173 q 223 -118 239 -138 q 195 -83 207 -99 l 103 -148 q 147 -205 120 -178 q 212 -254 174 -233 q 299 -287 250 -275 q 412 -300 349 -300 m 408 116 q 312 136 354 116 q 243 191 271 156 q 201 276 216 227 q 187 385 187 326 q 201 493 187 442 q 242 582 215 544 q 311 641 270 619 q 408 663 353 663 q 502 642 462 663 q 570 585 543 622 q 612 497 598 548 q 625 385 625 446 q 611 272 625 322 q 569 188 597 222 q 502 135 542 153 q 408 116 461 116 "},"h":{"ha":821,"x_min":107,"x_max":714,"o":"m 223 0 l 223 456 q 238 544 223 506 q 280 609 253 582 q 343 649 306 635 q 422 663 379 663 q 496 650 463 663 q 551 613 528 638 q 586 554 574 589 q 598 473 598 519 l 598 0 l 714 0 l 714 481 q 696 608 714 554 q 643 697 677 662 q 562 750 609 733 q 456 767 514 767 q 376 758 411 767 q 313 733 340 749 q 266 692 286 716 q 233 639 246 669 l 223 639 l 223 1010 l 107 1010 l 107 0 l 223 0 "},"i":{"ha":329,"x_min":83,"x_max":249,"o":"m 107 758 l 107 0 l 223 0 l 223 758 l 107 758 m 166 884 q 198 890 183 884 q 224 907 213 896 q 242 932 235 918 q 249 963 249 946 q 242 993 249 979 q 224 1018 235 1008 q 198 1036 213 1029 q 166 1042 183 1042 q 134 1036 149 1042 q 107 1018 118 1029 q 90 993 96 1008 q 83 963 83 979 q 90 932 83 946 q 107 907 96 918 q 134 890 118 896 q 166 884 149 884 "},"j":{"ha":329,"x_min":-18,"x_max":247,"o":"m 223 758 l 107 758 l 107 -55 q 82 -144 107 -113 q 4 -176 57 -176 l -18 -176 l -18 -284 l 6 -284 q 101 -268 61 -284 q 169 -222 142 -252 q 210 -150 196 -192 q 223 -55 223 -108 l 223 758 m 164 884 q 196 890 181 884 q 222 907 211 896 q 240 932 233 918 q 247 963 247 946 q 240 993 247 979 q 222 1018 233 1008 q 196 1036 211 1029 q 164 1042 181 1042 q 132 1036 147 1042 q 105 1018 116 1029 q 88 993 94 1008 q 81 963 81 979 q 88 932 81 946 q 105 907 94 918 q 132 890 116 896 q 164 884 147 884 "},"k":{"ha":756,"x_min":107,"x_max":736,"o":"m 107 1010 l 107 0 l 223 0 l 223 284 l 304 359 l 588 0 l 736 0 l 392 434 l 712 758 l 568 758 l 237 420 l 223 420 l 223 1010 l 107 1010 "},"l":{"ha":329,"x_min":107,"x_max":223,"o":"m 223 0 l 223 1010 l 107 1010 l 107 0 l 223 0 "},"m":{"ha":1207,"x_min":107,"x_max":1101,"o":"m 107 758 l 107 0 l 223 0 l 223 473 q 237 550 223 515 q 275 610 251 584 q 329 649 298 635 q 395 663 361 663 q 455 653 428 663 q 503 623 483 642 q 533 578 522 604 q 545 519 545 551 l 545 0 l 663 0 l 663 493 q 674 561 663 530 q 707 615 686 592 q 760 650 728 637 q 831 663 791 663 q 890 654 862 663 q 939 627 917 646 q 972 579 960 608 q 984 507 984 549 l 984 0 l 1101 0 l 1101 507 q 1084 623 1101 574 q 1036 704 1067 672 q 963 752 1006 736 q 870 767 921 767 q 794 758 830 767 q 730 733 759 749 q 680 692 702 716 q 643 639 658 669 l 635 639 q 557 734 607 700 q 432 767 507 767 q 305 734 358 767 q 229 639 253 700 l 219 639 l 219 758 l 107 758 "},"n":{"ha":813,"x_min":107,"x_max":706,"o":"m 223 0 l 223 456 q 237 544 223 506 q 278 609 252 582 q 339 649 304 635 q 416 663 374 663 q 489 650 457 663 q 544 613 521 637 q 578 553 566 588 q 590 473 590 518 l 590 0 l 706 0 l 706 481 q 688 608 706 554 q 636 697 669 661 q 555 750 602 732 q 450 767 508 767 q 372 758 407 767 q 310 732 337 749 q 262 692 283 715 q 229 639 242 668 l 219 639 l 219 758 l 107 758 l 107 0 l 223 0 "},"o":{"ha":829,"x_min":71,"x_max":758,"o":"m 414 -16 q 555 12 491 -16 q 663 91 618 40 q 733 215 708 143 q 758 375 758 287 q 733 536 758 464 q 663 660 708 609 q 555 739 618 711 q 414 767 491 767 q 274 739 337 767 q 166 660 211 711 q 96 536 121 609 q 71 375 71 464 q 96 215 71 287 q 166 91 121 143 q 274 12 211 40 q 414 -16 337 -16 m 414 89 q 313 112 356 89 q 242 175 270 136 q 201 266 215 214 q 187 375 187 318 q 201 484 187 432 q 242 576 215 536 q 313 639 270 616 q 414 663 356 663 q 516 639 473 663 q 586 576 558 616 q 628 484 614 536 q 641 375 641 432 q 628 266 641 318 q 586 175 614 214 q 516 112 558 136 q 414 89 473 89 "},"p":{"ha":846,"x_min":107,"x_max":775,"o":"m 107 758 l 107 -284 l 223 -284 l 223 116 l 233 116 q 248 92 239 106 q 269 64 256 78 q 298 35 282 49 q 337 9 315 21 q 388 -9 360 -2 q 454 -16 417 -16 q 584 12 525 -16 q 686 91 643 39 q 752 214 728 142 q 775 377 775 287 q 752 539 775 467 q 685 662 728 611 q 583 740 643 713 q 452 767 524 767 q 386 761 415 767 q 335 743 357 754 q 296 717 313 731 q 268 689 280 703 q 248 661 256 674 q 233 637 239 647 l 219 637 l 219 758 l 107 758 m 221 379 q 235 495 221 442 q 276 584 249 547 q 344 642 304 622 q 438 663 385 663 q 535 641 494 663 q 604 581 577 619 q 645 491 631 543 q 659 379 659 439 q 645 265 659 318 q 603 173 631 213 q 534 111 576 134 q 438 89 493 89 q 345 110 386 89 q 277 169 304 131 q 235 261 250 208 q 221 379 221 315 "},"q":{"ha":846,"x_min":71,"x_max":740,"o":"m 623 116 l 623 -284 l 740 -284 l 740 758 l 627 758 l 627 637 l 614 637 q 599 661 607 647 q 578 689 590 674 q 550 717 566 703 q 511 743 534 731 q 460 761 489 754 q 395 767 432 767 q 263 740 323 767 q 161 662 204 713 q 95 539 118 611 q 71 377 71 467 q 95 214 71 287 q 161 91 118 142 q 262 12 203 39 q 393 -16 322 -16 q 458 -9 429 -16 q 509 9 487 -2 q 548 35 532 21 q 577 64 565 49 q 599 92 590 78 q 614 116 607 106 l 623 116 m 408 89 q 312 111 354 89 q 243 173 271 134 q 201 265 216 213 q 187 379 187 318 q 201 491 187 439 q 242 581 215 543 q 311 641 270 619 q 408 663 353 663 q 502 642 462 663 q 570 584 543 622 q 612 495 598 547 q 625 379 625 442 q 611 261 625 315 q 569 169 597 208 q 502 110 542 131 q 408 89 461 89 "},"r":{"ha":517,"x_min":107,"x_max":485,"o":"m 107 758 l 107 0 l 223 0 l 223 479 q 237 550 223 518 q 277 607 252 583 q 338 644 303 630 q 414 657 373 657 q 437 656 426 657 q 458 654 449 655 q 475 651 468 653 q 485 649 482 650 l 485 767 q 472 768 480 768 q 456 769 465 768 q 439 769 448 769 q 424 769 431 769 q 359 760 390 769 q 302 734 328 751 q 257 694 276 718 q 227 643 237 671 l 219 643 l 219 758 l 107 758 "},"s":{"ha":726,"x_min":73,"x_max":657,"o":"m 539 558 l 643 588 q 607 661 629 628 q 552 718 584 694 q 475 755 519 742 q 375 767 431 767 q 264 751 315 767 q 176 706 213 735 q 118 637 139 677 q 97 548 97 597 q 145 418 97 470 q 298 341 194 366 l 424 312 q 509 272 482 298 q 537 205 537 245 q 524 159 537 181 q 489 122 511 138 q 433 96 466 106 q 359 87 400 87 q 243 117 287 87 q 183 209 199 147 l 73 182 q 108 96 83 133 q 169 35 132 60 q 254 -3 206 10 q 361 -16 303 -16 q 482 1 427 -16 q 575 49 536 18 q 636 121 614 79 q 657 211 657 162 q 607 341 657 291 q 456 416 557 392 l 343 444 q 285 462 310 452 q 244 486 260 472 q 221 516 228 499 q 213 554 213 533 q 225 600 213 579 q 259 635 238 620 q 310 658 281 650 q 375 667 340 667 q 440 657 413 667 q 487 632 468 648 q 519 597 507 617 q 539 558 531 578 "},"t":{"ha":505,"x_min":43,"x_max":450,"o":"m 436 659 l 436 758 l 274 758 l 274 939 l 158 939 l 158 758 l 43 758 l 43 659 l 158 659 l 158 185 q 176 99 158 136 q 223 38 194 63 q 289 2 253 14 q 363 -10 326 -10 q 417 -5 396 -10 q 450 4 438 0 l 426 109 q 406 105 419 107 q 375 103 394 103 q 338 107 356 103 q 306 123 320 110 q 283 158 291 135 q 274 217 274 180 l 274 659 l 436 659 "},"u":{"ha":807,"x_min":107,"x_max":700,"o":"m 584 758 l 584 310 q 566 218 584 256 q 519 153 547 179 q 456 115 490 127 q 389 103 421 103 q 322 115 353 103 q 270 152 291 128 q 235 209 248 176 q 223 284 223 243 l 223 758 l 107 758 l 107 276 q 125 150 107 204 q 176 61 143 96 q 253 8 208 25 q 351 -10 298 -10 q 430 1 394 -10 q 493 30 465 12 q 542 74 521 49 q 576 128 563 100 l 584 128 l 584 0 l 700 0 l 700 758 l 584 758 "},"v":{"ha":773,"x_min":47,"x_max":726,"o":"m 446 0 l 726 758 l 600 758 l 391 154 l 383 154 l 174 758 l 47 758 l 327 0 l 446 0 "},"w":{"ha":1128,"x_min":47,"x_max":1081,"o":"m 47 758 l 278 0 l 393 0 l 558 582 l 570 582 l 736 0 l 850 0 l 1081 758 l 959 758 l 795 180 l 787 180 l 627 758 l 503 758 l 341 178 l 333 178 l 170 758 l 47 758 "},"x":{"ha":750,"x_min":59,"x_max":690,"o":"m 375 448 l 193 758 l 59 758 l 300 379 l 59 0 l 193 0 l 375 294 l 556 0 l 690 0 l 446 379 l 690 758 l 556 758 l 375 448 "},"y":{"ha":773,"x_min":47,"x_max":726,"o":"m 182 -284 q 316 -242 261 -284 q 404 -110 371 -199 l 726 758 l 600 758 l 391 154 l 383 154 l 174 758 l 47 758 l 327 -4 l 306 -63 q 272 -131 290 -107 q 232 -167 254 -156 q 184 -177 210 -178 q 126 -168 158 -176 l 97 -270 q 129 -279 106 -275 q 182 -284 152 -284 "},"z":{"ha":752,"x_min":85,"x_max":679,"o":"m 85 89 l 85 0 l 679 0 l 679 109 l 247 109 l 247 116 l 665 665 l 665 758 l 99 758 l 99 649 l 515 649 l 515 641 l 85 89 "},"{":{"ha":503,"x_min":51,"x_max":456,"o":"m 456 -205 l 456 -109 q 384 -99 413 -109 q 338 -68 355 -89 q 313 -16 321 -47 q 306 59 306 16 l 306 256 q 300 313 306 287 q 279 360 294 339 q 237 395 264 380 q 168 419 210 410 l 168 434 q 237 457 210 442 q 279 493 264 472 q 300 540 294 513 q 306 596 306 566 l 306 793 q 313 868 306 836 q 338 920 321 900 q 384 951 355 941 q 456 961 413 961 l 456 1057 q 334 1042 383 1057 q 255 993 285 1026 q 212 911 225 961 q 199 793 199 861 l 199 635 q 192 566 199 595 q 166 520 184 538 q 121 493 149 502 q 51 485 93 485 l 51 367 q 121 359 93 367 q 166 333 149 351 q 192 286 184 315 q 199 217 199 257 l 199 59 q 212 -59 199 -9 q 255 -141 225 -109 q 334 -189 285 -174 q 456 -205 383 -205 "},"|":{"ha":454,"x_min":178,"x_max":276,"o":"m 276 -326 l 276 1336 l 178 1336 l 178 -326 l 276 -326 "},"}":{"ha":503,"x_min":47,"x_max":452,"o":"m 47 1057 l 47 961 q 119 951 90 961 q 165 920 148 941 q 190 868 182 900 q 197 793 197 836 l 197 596 q 203 540 197 566 q 224 493 209 513 q 266 457 239 472 q 335 434 293 442 l 335 419 q 266 395 293 410 q 224 360 239 380 q 203 313 209 339 q 197 256 197 287 l 197 59 q 190 -16 197 16 q 165 -68 182 -47 q 119 -99 148 -89 q 47 -109 90 -109 l 47 -205 q 169 -189 120 -205 q 248 -141 218 -174 q 291 -59 278 -109 q 304 59 304 -9 l 304 217 q 311 286 304 257 q 337 333 319 315 q 382 359 354 351 q 452 367 410 367 l 452 485 q 382 493 410 485 q 337 520 354 502 q 311 566 319 538 q 304 635 304 595 l 304 793 q 291 911 304 861 q 248 993 278 961 q 169 1042 218 1026 q 47 1057 120 1057 "},"~":{"ha":915,"x_min":113,"x_max":802,"o":"m 114 300 l 221 300 q 227 355 220 332 q 246 392 234 378 q 275 414 258 407 q 312 420 292 420 q 336 417 325 420 q 360 407 348 414 q 386 390 372 400 q 418 363 400 379 q 469 322 445 339 q 514 294 492 305 q 558 278 536 283 q 606 272 581 272 q 679 285 644 272 q 742 324 715 297 q 786 395 769 352 q 801 499 802 438 l 694 499 q 671 409 695 440 q 604 379 646 379 q 579 382 590 379 q 555 392 568 385 q 529 409 543 399 q 497 436 515 420 q 447 477 470 460 q 401 505 424 494 q 357 521 379 516 q 310 527 335 527 q 236 514 272 527 q 173 475 201 502 q 130 404 146 447 q 114 300 113 362 "}," ":{"ha":391,"x_min":0,"x_max":0,"o":""},"¡":{"ha":387,"x_min":105,"x_max":282,"o":"m 126 -256 l 260 -256 l 251 470 l 136 470 l 126 -256 m 193 762 q 159 755 175 762 q 130 736 143 748 q 111 707 118 724 q 105 673 105 691 q 111 638 105 654 q 130 610 118 622 q 159 591 143 598 q 193 584 175 584 q 228 591 212 584 q 256 610 244 598 q 275 638 268 622 q 282 673 282 654 q 275 707 282 691 q 256 736 268 724 q 228 755 244 748 q 193 762 212 762 "},"¢":{"ha":775,"x_min":71,"x_max":712,"o":"m 367 116 l 367 0 l 448 0 l 448 115 q 549 140 504 120 q 629 191 595 159 q 684 263 663 222 q 712 350 705 303 l 596 350 q 543 262 581 295 q 448 220 504 229 l 448 790 q 504 773 479 785 q 547 743 528 761 q 578 705 565 726 q 596 660 590 683 l 712 660 q 683 750 705 709 q 626 822 661 791 q 546 871 592 852 q 448 895 501 890 l 448 1010 l 367 1010 l 367 894 q 245 854 300 886 q 152 771 190 822 q 92 652 113 720 q 71 504 71 584 q 91 358 71 426 q 150 240 111 291 q 243 157 188 189 q 367 116 297 125 m 367 787 l 367 223 q 292 256 326 232 q 236 316 259 280 q 200 402 213 353 q 187 508 187 450 q 200 612 187 565 q 236 695 213 659 q 293 755 259 731 q 367 787 326 778 "},"£":{"ha":876,"x_min":87,"x_max":779,"o":"m 91 0 l 760 0 l 760 109 l 281 109 q 312 183 304 140 q 318 276 320 227 l 313 393 l 546 393 l 546 505 l 309 505 l 302 704 q 318 799 302 759 q 362 865 335 839 q 423 903 389 891 q 493 915 458 915 q 558 905 527 915 q 613 874 589 894 q 648 824 636 854 q 655 756 660 794 l 769 724 q 775 798 779 762 q 755 868 770 835 q 713 930 739 902 q 652 980 687 959 q 576 1012 618 1000 q 487 1024 534 1024 q 411 1015 449 1024 q 339 989 373 1007 q 277 945 305 971 q 228 883 248 918 q 196 803 207 847 q 187 704 185 758 l 194 505 l 87 505 l 87 393 l 197 393 l 201 276 q 201 243 202 261 q 197 206 200 225 q 189 170 194 188 q 175 139 183 152 q 156 117 167 125 q 130 109 145 109 l 91 109 l 91 0 "},"¤":{"ha":1004,"x_min":81,"x_max":923,"o":"m 499 -14 q 637 11 572 -14 q 755 80 702 36 l 842 -10 l 923 73 l 831 166 q 884 280 865 218 q 904 412 904 342 q 883 550 904 486 q 824 667 862 614 l 923 767 l 842 850 l 745 751 q 632 814 694 792 q 499 836 569 836 q 368 815 430 836 q 256 753 307 793 l 160 850 l 81 767 l 177 669 q 118 551 139 616 q 97 412 97 486 q 116 279 97 342 q 171 164 135 216 l 81 73 l 160 -10 l 247 78 q 363 10 299 35 q 499 -14 427 -14 m 499 95 q 385 120 438 95 q 291 188 331 145 q 228 290 252 232 q 205 412 205 347 q 228 536 205 478 q 291 637 252 594 q 385 705 331 680 q 499 730 438 730 q 613 705 560 730 q 706 637 666 680 q 768 536 745 594 q 791 412 791 478 q 768 290 791 347 q 706 188 745 232 q 613 120 666 145 q 499 95 560 95 "},"¥":{"ha":762,"x_min":20,"x_max":742,"o":"m 376 531 l 156 1010 l 20 1010 l 272 503 l 99 503 l 99 414 l 317 414 l 320 408 l 320 308 l 99 308 l 99 219 l 320 219 l 320 0 l 442 0 l 442 219 l 663 219 l 663 308 l 442 308 l 442 408 l 445 414 l 663 414 l 663 503 l 489 503 l 742 1010 l 606 1010 l 385 531 l 376 531 "},"¦":{"ha":369,"x_min":130,"x_max":239,"o":"m 239 272 l 130 272 l 130 -189 l 239 -189 l 239 272 m 239 550 l 239 1010 l 130 1010 l 130 550 l 239 550 "},"§":{"ha":765,"x_min":71,"x_max":694,"o":"m 515 771 l 627 771 q 610 873 627 827 q 561 953 593 920 q 484 1005 529 986 q 381 1024 438 1024 q 284 1008 328 1024 q 208 964 240 992 q 158 897 176 936 q 140 813 140 859 q 159 727 140 765 q 209 657 178 688 l 209 653 q 154 625 179 644 q 110 581 128 606 q 81 528 91 556 q 71 473 71 500 q 86 392 71 428 q 124 329 102 356 q 171 284 146 302 q 215 254 196 266 l 406 144 q 443 122 424 134 q 478 94 462 109 q 503 57 493 78 q 513 8 513 36 q 502 -40 513 -20 q 471 -74 490 -60 q 427 -94 452 -87 q 375 -101 402 -101 q 313 -91 342 -101 q 265 -62 285 -81 q 233 -15 244 -43 q 221 49 221 13 l 107 49 q 127 -57 107 -10 q 182 -137 146 -104 q 267 -188 218 -170 q 375 -205 317 -205 q 469 -192 424 -205 q 549 -153 514 -180 q 605 -87 584 -127 q 625 8 625 -47 q 609 96 625 56 q 556 168 592 137 l 556 170 q 610 197 584 179 q 654 240 635 216 q 683 292 672 264 q 694 347 694 320 q 679 429 694 393 q 642 491 664 464 q 595 535 619 517 q 550 564 570 553 l 359 677 q 323 701 341 687 q 288 733 304 716 q 263 770 273 750 q 253 813 253 791 q 260 850 253 832 q 283 885 268 869 q 323 910 299 900 q 381 919 348 919 q 441 908 416 919 q 483 877 466 897 q 507 830 499 857 q 515 771 515 803 m 586 347 q 579 309 586 327 q 562 277 573 291 q 537 253 551 263 q 509 237 524 243 q 482 231 495 231 q 458 237 468 231 l 274 343 q 239 367 256 355 q 208 396 221 380 q 187 431 195 411 q 180 473 180 450 q 192 530 180 505 q 224 571 205 555 q 263 593 242 587 q 300 588 284 598 l 493 475 q 528 452 511 465 q 557 422 545 438 q 578 388 570 406 q 586 347 586 369 "},"¨":{"ha":821,"x_min":189,"x_max":631,"o":"m 268 884 q 300 890 286 884 q 325 908 314 897 q 341 933 335 919 q 347 963 347 947 q 341 994 347 980 q 325 1019 335 1009 q 300 1036 314 1030 q 268 1042 286 1042 q 239 1036 253 1042 q 213 1019 224 1030 q 196 994 202 1009 q 189 963 189 980 q 196 933 189 947 q 213 908 202 919 q 239 890 224 897 q 268 884 253 884 m 552 884 q 584 890 570 884 q 609 908 598 897 q 625 933 619 919 q 631 963 631 947 q 625 994 631 980 q 609 1019 619 1009 q 584 1036 598 1030 q 552 1042 570 1042 q 523 1036 537 1042 q 497 1019 509 1030 q 480 994 486 1009 q 473 963 473 980 q 480 933 473 947 q 497 908 486 919 q 523 890 509 897 q 552 884 537 884 "},"©":{"ha":1271,"x_min":114,"x_max":1157,"o":"m 635 -16 q 774 3 707 -16 q 899 55 841 21 q 1004 137 957 89 q 1086 242 1052 184 q 1138 366 1120 300 q 1156 505 1157 433 q 1137 644 1156 577 q 1085 768 1119 710 q 1003 873 1051 826 q 898 955 956 921 q 774 1007 840 989 q 635 1026 707 1026 q 497 1007 564 1026 q 373 955 431 989 q 268 873 315 921 q 186 768 220 826 q 134 644 152 710 q 114 505 115 577 q 133 366 114 433 q 185 242 151 300 q 267 137 219 184 q 373 55 315 89 q 497 3 431 21 q 635 -16 564 -16 m 635 99 q 527 113 579 99 q 430 154 475 128 q 347 218 385 181 q 284 300 310 255 q 243 397 257 345 q 229 505 229 449 q 244 613 229 561 q 285 710 258 664 q 349 792 312 755 q 431 856 386 829 q 528 897 476 882 q 635 911 580 911 q 743 897 691 911 q 840 856 795 882 q 922 793 885 830 q 986 710 959 756 q 1027 613 1012 665 q 1042 505 1042 561 q 1027 397 1042 449 q 987 300 1013 345 q 923 218 960 254 q 841 154 886 181 q 744 113 796 128 q 635 99 691 99 m 347 505 q 370 391 347 444 q 433 298 393 338 q 526 235 473 258 q 640 212 580 212 q 738 230 693 212 q 819 278 784 247 q 877 351 854 309 q 907 442 900 393 l 787 442 q 769 396 782 417 q 737 359 756 374 q 693 335 718 344 q 640 327 669 327 q 571 341 603 327 q 514 379 538 355 q 476 436 490 403 q 462 505 462 468 q 476 575 462 542 q 514 631 490 607 q 571 670 538 655 q 640 684 603 684 q 695 675 669 684 q 742 651 721 666 q 778 615 763 636 q 797 568 792 593 l 916 568 q 885 659 909 618 q 824 732 861 701 q 740 781 787 763 q 640 798 693 798 q 526 775 580 798 q 433 712 473 752 q 370 619 393 672 q 347 505 347 566 "},"ª":{"ha":623,"x_min":93,"x_max":531,"o":"m 400 526 q 404 502 401 513 q 410 479 407 490 l 531 479 q 517 539 520 509 q 513 602 513 569 l 513 815 q 499 897 513 862 q 459 955 485 932 q 397 990 433 979 q 316 1002 360 1002 q 229 990 268 1002 q 162 957 189 979 q 120 907 135 936 q 105 844 105 878 l 221 835 q 246 884 221 867 q 316 902 271 902 q 395 815 395 902 l 395 781 l 326 781 q 151 740 209 781 q 93 623 93 699 q 104 560 93 589 q 137 512 115 532 q 190 481 158 492 q 262 470 222 470 q 307 474 287 470 q 345 486 328 478 q 376 504 362 494 q 400 526 389 514 m 326 702 l 395 702 l 395 610 q 374 594 386 602 q 348 581 362 586 q 320 572 334 575 q 292 568 306 568 q 232 584 250 568 q 213 627 213 599 q 219 656 213 642 q 240 680 226 669 q 275 696 254 690 q 326 702 296 702 "},"«":{"ha":750,"x_min":93,"x_max":647,"o":"m 292 109 l 395 109 l 207 411 l 395 714 l 292 714 l 93 418 l 93 404 l 292 109 m 545 109 l 647 109 l 460 411 l 647 714 l 545 714 l 345 418 l 345 404 l 545 109 "},"¬":{"ha":750,"x_min":93,"x_max":659,"o":"m 659 254 l 659 546 l 93 546 l 93 430 l 523 430 l 523 254 l 659 254 "},"­":{"ha":639,"x_min":99,"x_max":541,"o":"m 541 379 l 541 487 l 99 487 l 99 379 l 541 379 "},"®":{"ha":931,"x_min":71,"x_max":860,"o":"m 466 235 q 570 249 520 235 q 665 289 621 263 q 745 350 709 314 q 806 430 781 386 q 846 525 832 474 q 860 629 860 575 q 846 734 860 684 q 806 829 832 785 q 745 908 781 872 q 665 970 709 945 q 571 1010 621 996 q 466 1024 520 1024 q 361 1010 411 1024 q 266 970 310 996 q 186 908 222 945 q 125 829 150 872 q 85 734 99 785 q 71 629 71 684 q 85 525 71 575 q 125 430 99 474 q 186 350 150 386 q 266 289 222 314 q 361 249 310 263 q 466 235 411 235 m 466 329 q 349 353 403 329 q 254 418 294 377 q 189 513 213 458 q 166 629 166 567 q 176 709 166 671 q 207 781 187 747 q 254 841 226 814 q 314 888 281 869 q 386 919 348 908 q 466 929 424 929 q 582 906 528 929 q 678 842 637 882 q 742 746 719 801 q 765 629 765 691 q 755 550 765 588 q 725 478 744 511 q 678 417 705 444 q 617 370 651 390 q 545 340 583 351 q 466 329 507 329 m 327 816 l 327 452 l 407 452 l 407 575 l 487 575 l 550 452 l 638 452 l 564 593 q 586 611 576 600 q 605 635 597 621 q 618 664 614 648 q 623 699 623 681 q 612 751 623 729 q 584 787 601 773 q 548 809 568 801 q 512 816 529 816 l 327 816 m 481 634 l 407 634 l 407 757 l 483 757 q 499 754 490 757 q 517 745 509 751 q 530 727 525 738 q 536 699 536 716 q 530 671 536 683 q 517 651 525 659 q 499 638 509 643 q 481 634 490 634 "},"¯":{"ha":623,"x_min":81,"x_max":543,"o":"m 543 911 l 543 1010 l 81 1010 l 81 911 l 543 911 "},"°":{"ha":631,"x_min":89,"x_max":543,"o":"m 316 564 q 404 582 363 564 q 476 631 445 600 q 525 703 507 661 q 543 791 543 744 q 525 879 543 838 q 476 952 507 921 q 404 1000 445 982 q 316 1018 363 1018 q 227 1000 269 1018 q 155 952 186 982 q 107 879 124 921 q 89 791 89 838 q 107 703 89 744 q 155 631 124 661 q 227 582 186 600 q 316 564 269 564 m 316 663 q 266 673 289 663 q 225 700 242 683 q 198 741 208 718 q 187 791 187 764 q 198 841 187 818 q 225 882 208 865 q 266 909 242 899 q 316 919 289 919 q 366 909 342 919 q 406 882 389 899 q 434 841 424 865 q 444 791 444 818 q 434 741 444 764 q 406 700 424 718 q 366 673 389 683 q 316 663 342 663 "},"±":{"ha":915,"x_min":140,"x_max":775,"o":"m 140 556 l 140 446 l 402 446 l 402 245 l 513 245 l 513 446 l 775 446 l 775 556 l 513 556 l 513 758 l 402 758 l 402 556 l 140 556 m 140 158 l 140 47 l 775 47 l 775 158 l 140 158 "},"²":{"ha":584,"x_min":65,"x_max":525,"o":"m 69 582 l 69 505 l 525 505 l 525 592 l 223 592 l 223 596 l 351 708 q 421 773 392 744 q 470 829 451 802 q 498 882 489 856 q 507 939 507 909 q 491 1010 507 978 q 447 1067 475 1043 q 377 1105 418 1091 q 288 1119 337 1119 q 198 1105 239 1119 q 128 1067 157 1091 q 82 1008 98 1043 q 65 931 65 974 l 168 931 q 176 973 168 954 q 200 1005 185 992 q 238 1026 216 1019 q 286 1034 259 1034 q 333 1027 311 1034 q 370 1008 355 1020 q 395 977 386 995 q 404 937 404 959 q 398 901 404 918 q 378 866 391 883 q 345 829 365 848 q 300 787 326 810 l 69 582 "},"³":{"ha":598,"x_min":59,"x_max":541,"o":"m 298 497 q 396 510 351 497 q 472 547 440 524 q 523 603 505 571 q 541 673 541 635 q 531 724 541 700 q 502 767 521 748 q 455 799 483 786 q 391 817 427 812 l 391 821 q 440 836 417 825 q 481 864 464 847 q 507 902 498 880 q 517 951 517 924 q 501 1018 517 987 q 456 1071 485 1049 q 388 1106 428 1093 q 300 1119 348 1119 q 211 1106 253 1119 q 140 1070 170 1093 q 92 1015 109 1047 q 73 943 74 982 l 176 943 q 186 981 177 964 q 213 1009 196 997 q 253 1027 230 1021 q 300 1034 275 1034 q 346 1027 325 1034 q 381 1009 366 1020 q 404 981 396 997 q 412 945 412 964 q 402 908 412 924 q 376 879 393 891 q 335 861 359 867 q 284 854 312 854 l 235 854 l 235 775 l 284 775 q 345 768 318 775 q 390 749 371 762 q 420 719 409 736 q 430 681 430 701 q 420 643 430 660 q 393 613 410 625 q 351 593 375 600 q 298 586 327 586 q 247 592 271 586 q 206 610 223 599 q 179 638 189 622 q 168 675 169 655 l 59 675 q 78 603 60 636 q 128 547 97 570 q 204 510 160 523 q 298 497 247 497 "},"´":{"ha":690,"x_min":276,"x_max":533,"o":"m 397 1089 l 276 860 l 379 860 l 533 1089 l 397 1089 "},"µ":{"ha":864,"x_min":107,"x_max":758,"o":"m 107 758 l 107 -284 l 223 -284 l 223 112 l 229 112 q 266 60 245 82 q 314 21 288 37 q 371 -2 341 6 q 432 -10 400 -10 q 494 -2 464 -10 q 550 21 524 6 q 598 60 576 37 q 635 112 620 82 l 641 112 l 641 0 l 758 0 l 758 758 l 641 758 l 641 310 q 626 226 641 264 q 584 161 612 188 q 518 118 557 133 q 432 103 479 103 q 346 118 385 103 q 280 160 308 133 q 238 225 253 187 q 223 310 223 263 l 223 758 l 107 758 "},"¶":{"ha":833,"x_min":75,"x_max":710,"o":"m 588 902 l 588 0 l 710 0 l 710 1010 l 408 1010 q 266 986 328 1010 q 161 919 203 962 q 97 819 119 877 q 75 692 75 761 q 97 565 75 624 q 161 465 119 507 q 266 399 203 423 q 408 375 328 375 l 466 375 l 466 902 l 588 902 "},"·":{"ha":383,"x_min":103,"x_max":280,"o":"m 191 353 q 226 360 210 353 q 254 379 242 367 q 273 407 266 391 q 280 442 280 424 q 273 476 280 460 q 254 505 266 493 q 226 524 242 517 q 191 531 210 531 q 157 524 173 531 q 128 505 141 517 q 109 476 116 493 q 103 442 103 460 q 109 407 103 424 q 128 379 116 391 q 157 360 141 367 q 191 353 173 353 "},"¸":{"ha":371,"x_min":118,"x_max":329,"o":"m 235 4 l 138 4 l 118 -93 q 167 -99 146 -95 q 200 -109 187 -103 q 219 -128 213 -116 q 225 -156 225 -139 q 217 -185 225 -173 q 195 -204 209 -197 q 161 -216 181 -212 q 118 -219 142 -219 l 122 -296 q 212 -285 174 -296 q 277 -256 251 -275 q 316 -210 303 -237 q 329 -152 329 -184 q 321 -103 329 -123 q 297 -68 312 -82 q 265 -46 283 -54 q 227 -36 246 -38 l 235 4 "},"¹":{"ha":435,"x_min":55,"x_max":319,"o":"m 216 1003 l 216 505 l 319 505 l 319 1111 l 216 1111 l 55 1004 l 55 900 l 211 1003 l 216 1003 "},"º":{"ha":623,"x_min":77,"x_max":546,"o":"m 77 762 l 77 708 q 93 612 77 656 q 141 536 110 568 q 215 487 171 505 q 314 470 259 470 q 411 487 368 470 q 484 536 454 505 q 530 612 514 568 q 546 708 546 656 l 546 762 q 530 858 546 814 q 484 934 514 903 q 410 984 454 966 q 312 1002 366 1002 q 214 984 258 1002 q 140 934 171 966 q 93 858 110 903 q 77 762 77 814 m 195 708 l 195 762 q 203 817 195 791 q 225 861 210 842 q 261 891 239 880 q 312 902 283 902 q 363 891 341 902 q 400 861 385 880 q 421 817 414 842 q 428 762 428 791 l 428 708 q 421 652 428 678 q 400 608 414 626 q 364 579 386 589 q 314 568 343 568 q 262 579 284 568 q 225 608 240 589 q 203 652 210 626 q 195 708 195 678 "},"»":{"ha":750,"x_min":93,"x_max":647,"o":"m 533 411 l 345 109 l 448 109 l 647 404 l 647 418 l 448 714 l 345 714 l 533 411 m 280 411 l 93 109 l 195 109 l 395 404 l 395 418 l 195 714 l 93 714 l 280 411 "},"¼":{"ha":1227,"x_min":47,"x_max":1186,"o":"m 724 178 l 724 97 l 1012 97 l 1012 0 l 1111 0 l 1111 97 l 1186 97 l 1186 180 l 1111 180 l 1111 537 l 982 537 l 724 178 m 884 1010 l 189 0 l 302 0 l 996 1010 l 884 1010 m 184 903 l 184 473 l 287 473 l 287 1010 l 184 1010 l 47 919 l 47 815 l 180 903 l 184 903 m 1014 424 l 1014 180 l 831 180 l 831 182 l 1010 424 l 1014 424 "},"½":{"ha":1286,"x_min":47,"x_max":1235,"o":"m 884 1010 l 189 0 l 302 0 l 996 1010 l 884 1010 m 815 75 l 815 0 l 1235 0 l 1235 83 l 965 83 l 965 87 l 1073 176 q 1139 234 1112 208 q 1183 283 1166 259 q 1208 331 1200 307 q 1215 381 1215 354 q 1201 446 1215 416 q 1161 497 1187 475 q 1097 532 1134 519 q 1014 545 1060 545 q 930 532 968 545 q 866 497 893 520 q 824 444 838 475 q 809 375 809 413 l 908 375 q 916 411 908 395 q 938 439 924 428 q 971 457 952 451 q 1012 464 990 464 q 1054 458 1034 464 q 1087 441 1073 452 q 1109 414 1101 430 q 1117 379 1117 398 q 1111 349 1117 363 q 1095 320 1106 335 q 1067 289 1084 305 q 1026 253 1050 273 l 815 75 m 184 903 l 184 473 l 287 473 l 287 1010 l 184 1010 l 47 919 l 47 815 l 180 903 l 184 903 "},"¾":{"ha":1318,"x_min":51,"x_max":1276,"o":"m 815 178 l 815 97 l 1103 97 l 1103 0 l 1201 0 l 1201 97 l 1276 97 l 1276 180 l 1201 180 l 1201 537 l 1073 537 l 815 178 m 270 466 q 360 477 319 466 q 430 510 400 489 q 475 561 459 532 q 491 623 491 589 q 482 669 491 648 q 455 707 473 690 q 412 734 438 723 q 353 750 387 745 l 353 754 q 402 767 380 758 q 439 792 424 777 q 463 826 455 806 q 472 868 472 845 q 457 928 472 901 q 415 976 442 956 q 352 1007 389 996 q 270 1018 315 1018 q 188 1006 226 1018 q 123 973 150 994 q 80 922 96 951 q 63 858 64 893 l 164 858 q 172 890 164 875 q 195 915 181 904 q 229 931 209 925 q 270 937 248 937 q 311 931 292 937 q 343 915 329 925 q 363 890 356 905 q 371 860 371 876 q 362 829 371 843 q 338 805 354 815 q 302 789 323 795 q 256 783 281 783 l 213 783 l 213 710 l 256 710 q 308 705 285 710 q 348 689 331 699 q 374 664 364 678 q 383 631 383 649 q 374 600 383 615 q 351 574 366 585 q 315 557 336 563 q 270 550 295 550 q 225 556 246 550 q 189 573 204 562 q 164 598 173 583 q 156 629 156 613 l 51 629 q 68 564 51 594 q 113 512 84 534 q 183 478 143 490 q 270 466 223 466 m 975 1010 l 280 0 l 393 0 l 1087 1010 l 975 1010 m 1105 424 l 1105 180 l 921 180 l 921 182 l 1101 424 l 1105 424 "},"¿":{"ha":704,"x_min":69,"x_max":649,"o":"m 446 466 l 446 472 l 327 472 l 327 466 q 320 386 327 420 q 299 325 313 352 q 262 277 285 298 q 207 236 240 256 q 106 138 142 196 q 69 -2 69 80 q 89 -109 69 -60 q 147 -193 109 -157 q 237 -248 184 -228 q 355 -268 290 -268 q 468 -250 415 -268 q 559 -198 520 -232 q 622 -114 599 -164 q 649 -2 646 -65 l 525 -2 q 507 -77 522 -46 q 468 -127 491 -108 q 415 -157 444 -147 q 355 -166 386 -166 q 290 -155 321 -166 q 236 -123 259 -144 q 200 -73 214 -103 q 187 -8 187 -44 q 195 47 187 22 q 217 93 203 72 q 250 131 231 114 q 290 162 268 148 q 355 208 327 184 q 404 265 384 231 q 435 347 424 299 q 446 466 445 395 m 383 763 q 348 757 364 763 q 320 738 332 750 q 301 709 308 726 q 294 675 294 693 q 301 640 294 656 q 320 612 308 624 q 348 593 332 600 q 383 586 364 586 q 417 593 401 586 q 446 612 434 600 q 465 640 458 624 q 472 675 472 656 q 465 709 472 693 q 446 738 458 726 q 417 757 434 750 q 383 763 401 763 "},"À":{"ha":939,"x_min":36,"x_max":904,"o":"m 36 0 l 164 0 l 265 286 l 674 286 l 775 0 l 904 0 l 533 1010 l 406 1010 l 36 0 m 635 395 l 304 395 l 466 850 l 473 850 l 635 395 m 266 1342 l 420 1113 l 523 1113 l 402 1342 l 266 1342 "},"Á":{"ha":939,"x_min":36,"x_max":904,"o":"m 36 0 l 164 0 l 265 286 l 674 286 l 775 0 l 904 0 l 533 1010 l 406 1010 l 36 0 m 635 395 l 304 395 l 466 850 l 473 850 l 635 395 m 537 1342 l 416 1113 l 519 1113 l 673 1342 l 537 1342 "},"Â":{"ha":939,"x_min":36,"x_max":904,"o":"m 36 0 l 164 0 l 265 286 l 674 286 l 775 0 l 904 0 l 533 1010 l 406 1010 l 36 0 m 635 395 l 304 395 l 466 850 l 473 850 l 635 395 m 470 1239 l 572 1101 l 683 1101 l 683 1109 l 523 1314 l 416 1314 l 256 1109 l 256 1101 l 367 1101 l 470 1239 "},"Ã":{"ha":939,"x_min":36,"x_max":904,"o":"m 36 0 l 164 0 l 265 286 l 674 286 l 775 0 l 904 0 l 533 1010 l 406 1010 l 36 0 m 635 395 l 304 395 l 466 850 l 473 850 l 635 395 m 227 1115 l 318 1111 q 323 1140 318 1126 q 336 1164 327 1154 q 357 1180 345 1174 q 383 1186 369 1186 q 416 1181 401 1186 q 442 1169 430 1176 q 467 1154 455 1163 q 492 1139 478 1146 q 523 1127 506 1132 q 562 1123 540 1123 q 622 1134 594 1123 q 669 1168 649 1146 q 701 1221 689 1190 q 712 1290 712 1252 l 623 1298 q 618 1269 623 1283 q 604 1245 613 1255 q 583 1229 595 1235 q 556 1223 571 1223 q 509 1233 530 1223 q 468 1255 488 1243 q 427 1276 448 1267 q 377 1286 405 1286 q 318 1274 345 1286 q 270 1238 290 1261 q 238 1184 250 1215 q 227 1115 227 1153 "},"Ä":{"ha":939,"x_min":36,"x_max":904,"o":"m 36 0 l 164 0 l 265 286 l 674 286 l 775 0 l 904 0 l 533 1010 l 406 1010 l 36 0 m 635 395 l 304 395 l 466 850 l 473 850 l 635 395 m 327 1136 q 359 1143 345 1136 q 384 1160 373 1149 q 400 1186 395 1171 q 406 1215 406 1200 q 400 1247 406 1233 q 384 1272 395 1261 q 359 1288 373 1282 q 327 1294 345 1294 q 298 1288 312 1294 q 273 1272 284 1282 q 255 1247 261 1261 q 249 1215 249 1233 q 255 1186 249 1200 q 273 1160 261 1171 q 298 1143 284 1149 q 327 1136 312 1136 m 612 1136 q 643 1143 629 1136 q 668 1160 657 1149 q 685 1186 679 1171 q 690 1215 690 1200 q 685 1247 690 1233 q 668 1272 679 1261 q 643 1288 657 1282 q 612 1294 629 1294 q 582 1288 596 1294 q 557 1272 568 1282 q 539 1247 545 1261 q 533 1215 533 1233 q 539 1186 533 1200 q 557 1160 545 1171 q 582 1143 568 1149 q 612 1136 596 1136 "},"Å":{"ha":939,"x_min":36,"x_max":904,"o":"m 36 0 l 164 0 l 265 286 l 674 286 l 775 0 l 904 0 l 533 1010 l 406 1010 l 36 0 m 635 395 l 304 395 l 466 850 l 473 850 l 635 395 m 470 1079 q 525 1090 499 1079 q 571 1121 551 1102 q 601 1166 590 1140 q 613 1222 613 1193 q 601 1278 613 1252 q 571 1323 590 1304 q 525 1354 551 1343 q 470 1365 499 1365 q 414 1354 440 1365 q 368 1323 388 1343 q 338 1278 349 1304 q 327 1222 327 1252 q 338 1166 327 1193 q 368 1121 349 1140 q 414 1090 388 1102 q 470 1079 440 1079 m 470 1150 q 441 1156 454 1150 q 419 1171 428 1162 q 404 1194 409 1181 q 399 1222 399 1207 q 404 1250 399 1237 q 419 1273 409 1264 q 441 1289 428 1283 q 470 1294 454 1294 q 498 1289 485 1294 q 520 1273 511 1283 q 535 1250 530 1264 q 541 1222 541 1237 q 535 1194 541 1207 q 520 1171 530 1181 q 498 1156 511 1162 q 470 1150 485 1150 "},"Æ":{"ha":1375,"x_min":36,"x_max":1284,"o":"m 525 1010 l 36 0 l 170 0 l 304 286 l 667 286 l 667 0 l 1284 0 l 1284 109 l 789 109 l 789 452 l 1245 452 l 1245 560 l 789 560 l 789 902 l 1276 902 l 1276 1010 l 525 1010 m 667 395 l 355 395 l 594 902 l 667 902 l 667 395 "},"Ç":{"ha":1010,"x_min":83,"x_max":935,"o":"m 813 694 l 935 694 q 885 834 921 772 q 794 937 848 895 q 673 1001 740 979 q 529 1024 605 1024 q 406 1008 464 1024 q 298 960 348 991 q 209 884 249 929 q 141 782 169 839 q 98 654 113 724 q 83 505 83 585 q 112 303 83 394 q 193 145 141 212 q 317 38 245 78 q 476 -11 390 -1 l 458 -101 q 506 -107 486 -103 q 539 -117 526 -110 q 558 -136 552 -124 q 564 -164 564 -147 q 556 -193 564 -181 q 534 -212 548 -205 q 500 -223 520 -220 q 458 -227 481 -227 l 462 -304 q 552 -293 513 -304 q 616 -264 590 -283 q 655 -218 642 -245 q 669 -160 669 -192 q 660 -110 669 -131 q 637 -76 651 -90 q 604 -54 622 -62 q 566 -43 585 -46 l 573 -12 q 702 19 641 -6 q 810 86 762 44 q 890 186 857 128 q 935 316 922 244 l 813 316 q 775 223 802 263 q 710 156 748 183 q 626 114 672 128 q 529 101 579 101 q 400 127 460 101 q 296 204 340 153 q 227 331 252 255 q 201 505 201 407 q 227 679 201 604 q 296 806 252 755 q 400 883 340 857 q 529 909 460 909 q 626 896 579 909 q 710 854 672 882 q 775 787 748 827 q 813 694 802 747 "},"È":{"ha":831,"x_min":122,"x_max":740,"o":"m 122 1010 l 122 0 l 740 0 l 740 109 l 245 109 l 245 452 l 700 452 l 700 560 l 245 560 l 245 902 l 732 902 l 732 1010 l 122 1010 m 223 1342 l 377 1113 l 479 1113 l 359 1342 l 223 1342 "},"É":{"ha":831,"x_min":122,"x_max":740,"o":"m 122 1010 l 122 0 l 740 0 l 740 109 l 245 109 l 245 452 l 700 452 l 700 560 l 245 560 l 245 902 l 732 902 l 732 1010 l 122 1010 m 493 1342 l 373 1113 l 475 1113 l 629 1342 l 493 1342 "},"Ê":{"ha":831,"x_min":122,"x_max":740,"o":"m 122 1010 l 122 0 l 740 0 l 740 109 l 245 109 l 245 452 l 700 452 l 700 560 l 245 560 l 245 902 l 732 902 l 732 1010 l 122 1010 m 426 1239 l 529 1101 l 639 1101 l 639 1109 l 479 1314 l 373 1314 l 213 1109 l 213 1101 l 324 1101 l 426 1239 "},"Ë":{"ha":831,"x_min":122,"x_max":740,"o":"m 122 1010 l 122 0 l 740 0 l 740 109 l 245 109 l 245 452 l 700 452 l 700 560 l 245 560 l 245 902 l 732 902 l 732 1010 l 122 1010 m 284 1136 q 316 1143 301 1136 q 341 1160 330 1149 q 357 1186 351 1171 q 363 1215 363 1200 q 357 1247 363 1233 q 341 1272 351 1261 q 316 1288 330 1282 q 284 1294 301 1294 q 254 1288 269 1294 q 229 1272 240 1282 q 212 1247 218 1261 q 205 1215 205 1233 q 212 1186 205 1200 q 229 1160 218 1171 q 254 1143 240 1149 q 284 1136 269 1136 m 568 1136 q 600 1143 585 1136 q 625 1160 614 1149 q 641 1186 635 1171 q 647 1215 647 1200 q 641 1247 647 1233 q 625 1272 635 1261 q 600 1288 614 1282 q 568 1294 585 1294 q 539 1288 553 1294 q 513 1272 524 1282 q 496 1247 502 1261 q 489 1215 489 1233 q 496 1186 489 1200 q 513 1160 502 1171 q 539 1143 524 1149 q 568 1136 553 1136 "},"Ì":{"ha":367,"x_min":-20,"x_max":245,"o":"m 245 0 l 245 1010 l 122 1010 l 122 0 l 245 0 m -20 1342 l 134 1113 l 237 1113 l 116 1342 l -20 1342 "},"Í":{"ha":367,"x_min":122,"x_max":387,"o":"m 245 0 l 245 1010 l 122 1010 l 122 0 l 245 0 m 251 1342 l 130 1113 l 233 1113 l 387 1342 l 251 1342 "},"Î":{"ha":367,"x_min":-30,"x_max":397,"o":"m 245 0 l 245 1010 l 122 1010 l 122 0 l 245 0 m 183 1239 l 286 1101 l 397 1101 l 397 1109 l 237 1314 l 130 1314 l -30 1109 l -30 1101 l 81 1101 l 183 1239 "},"Ï":{"ha":367,"x_min":-37,"x_max":404,"o":"m 245 0 l 245 1010 l 122 1010 l 122 0 l 245 0 m 41 1136 q 73 1143 59 1136 q 98 1160 87 1149 q 114 1186 109 1171 q 120 1215 120 1200 q 114 1247 120 1233 q 98 1272 109 1261 q 73 1288 87 1282 q 41 1294 59 1294 q 12 1288 26 1294 q -14 1272 -2 1282 q -31 1247 -25 1261 q -37 1215 -37 1233 q -31 1186 -37 1200 q -14 1160 -25 1171 q 12 1143 -2 1149 q 41 1136 26 1136 m 326 1136 q 357 1143 343 1136 q 382 1160 371 1149 q 399 1186 393 1171 q 404 1215 404 1200 q 399 1247 404 1233 q 382 1272 393 1261 q 357 1288 371 1282 q 326 1294 343 1294 q 296 1288 310 1294 q 271 1272 282 1282 q 253 1247 259 1261 q 247 1215 247 1233 q 253 1186 247 1200 q 271 1160 259 1171 q 296 1143 282 1149 q 326 1136 310 1136 "},"Ð":{"ha":998,"x_min":-34,"x_max":915,"o":"m 122 0 l 434 0 q 639 35 549 0 q 790 135 729 70 q 884 295 852 201 q 915 507 915 389 q 884 718 915 625 q 792 876 852 811 q 645 976 732 941 q 448 1010 558 1010 l 122 1010 l 122 566 l -34 566 l -34 475 l 122 475 l 122 0 m 426 109 l 245 109 l 245 475 l 400 475 l 400 566 l 245 566 l 245 902 l 440 902 q 596 874 529 902 q 707 796 662 847 q 775 672 752 745 q 797 507 797 599 q 774 341 797 415 q 706 215 752 267 q 590 136 659 164 q 426 109 520 109 "},"Ñ":{"ha":1046,"x_min":122,"x_max":923,"o":"m 923 0 l 923 1010 l 803 1010 l 803 215 l 793 215 l 241 1010 l 122 1010 l 122 0 l 245 0 l 245 793 l 254 793 l 805 0 l 923 0 m 280 1105 l 371 1101 q 376 1130 371 1117 q 389 1154 381 1144 q 410 1170 398 1164 q 436 1176 422 1176 q 469 1171 455 1176 q 496 1160 483 1166 q 520 1144 508 1153 q 545 1129 532 1136 q 576 1117 559 1122 q 616 1113 593 1113 q 675 1125 648 1113 q 722 1158 702 1136 q 754 1211 742 1180 q 765 1280 765 1242 l 677 1288 q 672 1259 677 1273 q 657 1235 666 1245 q 636 1219 648 1225 q 610 1213 624 1213 q 562 1223 583 1213 q 522 1245 542 1233 q 480 1267 502 1257 q 430 1276 458 1276 q 371 1264 399 1276 q 323 1228 343 1251 q 292 1174 303 1205 q 280 1105 280 1143 "},"Ò":{"ha":1057,"x_min":83,"x_max":975,"o":"m 975 505 q 941 721 975 625 q 849 885 908 817 q 708 988 789 952 q 529 1024 626 1024 q 406 1008 464 1024 q 298 960 348 991 q 209 884 249 929 q 141 782 169 839 q 98 654 113 724 q 83 505 83 585 q 98 356 83 425 q 141 228 113 286 q 209 126 169 171 q 298 50 249 81 q 406 2 348 19 q 529 -14 464 -14 q 708 22 626 -14 q 849 126 789 59 q 941 289 908 193 q 975 505 975 385 m 856 505 q 831 331 856 407 q 761 204 805 255 q 657 127 717 153 q 529 101 598 101 q 400 127 460 101 q 296 204 340 153 q 227 331 252 255 q 201 505 201 407 q 227 679 201 604 q 296 806 252 755 q 400 883 340 857 q 529 909 460 909 q 657 883 598 909 q 761 806 717 857 q 831 679 805 755 q 856 505 856 604 m 326 1342 l 479 1113 l 582 1113 l 462 1342 l 326 1342 "},"Ó":{"ha":1057,"x_min":83,"x_max":975,"o":"m 975 505 q 941 721 975 625 q 849 885 908 817 q 708 988 789 952 q 529 1024 626 1024 q 406 1008 464 1024 q 298 960 348 991 q 209 884 249 929 q 141 782 169 839 q 98 654 113 724 q 83 505 83 585 q 98 356 83 425 q 141 228 113 286 q 209 126 169 171 q 298 50 249 81 q 406 2 348 19 q 529 -14 464 -14 q 708 22 626 -14 q 849 126 789 59 q 941 289 908 193 q 975 505 975 385 m 856 505 q 831 331 856 407 q 761 204 805 255 q 657 127 717 153 q 529 101 598 101 q 400 127 460 101 q 296 204 340 153 q 227 331 252 255 q 201 505 201 407 q 227 679 201 604 q 296 806 252 755 q 400 883 340 857 q 529 909 460 909 q 657 883 598 909 q 761 806 717 857 q 831 679 805 755 q 856 505 856 604 m 596 1342 l 475 1113 l 578 1113 l 732 1342 l 596 1342 "},"Ô":{"ha":1057,"x_min":83,"x_max":975,"o":"m 975 505 q 941 721 975 625 q 849 885 908 817 q 708 988 789 952 q 529 1024 626 1024 q 406 1008 464 1024 q 298 960 348 991 q 209 884 249 929 q 141 782 169 839 q 98 654 113 724 q 83 505 83 585 q 98 356 83 425 q 141 228 113 286 q 209 126 169 171 q 298 50 249 81 q 406 2 348 19 q 529 -14 464 -14 q 708 22 626 -14 q 849 126 789 59 q 941 289 908 193 q 975 505 975 385 m 856 505 q 831 331 856 407 q 761 204 805 255 q 657 127 717 153 q 529 101 598 101 q 400 127 460 101 q 296 204 340 153 q 227 331 252 255 q 201 505 201 407 q 227 679 201 604 q 296 806 252 755 q 400 883 340 857 q 529 909 460 909 q 657 883 598 909 q 761 806 717 857 q 831 679 805 755 q 856 505 856 604 m 529 1239 l 631 1101 l 742 1101 l 742 1109 l 582 1314 l 475 1314 l 316 1109 l 316 1101 l 426 1101 l 529 1239 "},"Õ":{"ha":1057,"x_min":83,"x_max":975,"o":"m 975 505 q 941 721 975 625 q 849 885 908 817 q 708 988 789 952 q 529 1024 626 1024 q 406 1008 464 1024 q 298 960 348 991 q 209 884 249 929 q 141 782 169 839 q 98 654 113 724 q 83 505 83 585 q 98 356 83 425 q 141 228 113 286 q 209 126 169 171 q 298 50 249 81 q 406 2 348 19 q 529 -14 464 -14 q 708 22 626 -14 q 849 126 789 59 q 941 289 908 193 q 975 505 975 385 m 856 505 q 831 331 856 407 q 761 204 805 255 q 657 127 717 153 q 529 101 598 101 q 400 127 460 101 q 296 204 340 153 q 227 331 252 255 q 201 505 201 407 q 227 679 201 604 q 296 806 252 755 q 400 883 340 857 q 529 909 460 909 q 657 883 598 909 q 761 806 717 857 q 831 679 805 755 q 856 505 856 604 m 286 1115 l 377 1111 q 382 1140 377 1126 q 395 1164 387 1154 q 416 1180 404 1174 q 442 1186 428 1186 q 475 1181 461 1186 q 502 1169 489 1176 q 526 1154 514 1163 q 551 1139 538 1146 q 582 1127 565 1132 q 621 1123 599 1123 q 681 1134 654 1123 q 728 1168 708 1146 q 760 1221 748 1190 q 771 1290 771 1252 l 683 1298 q 677 1269 683 1283 q 663 1245 672 1255 q 642 1229 654 1235 q 616 1223 630 1223 q 568 1233 589 1223 q 527 1255 547 1243 q 486 1276 508 1267 q 436 1286 464 1286 q 377 1274 404 1286 q 329 1238 349 1261 q 298 1184 309 1215 q 286 1115 286 1153 "},"Ö":{"ha":1057,"x_min":83,"x_max":975,"o":"m 975 505 q 941 721 975 625 q 849 885 908 817 q 708 988 789 952 q 529 1024 626 1024 q 406 1008 464 1024 q 298 960 348 991 q 209 884 249 929 q 141 782 169 839 q 98 654 113 724 q 83 505 83 585 q 98 356 83 425 q 141 228 113 286 q 209 126 169 171 q 298 50 249 81 q 406 2 348 19 q 529 -14 464 -14 q 708 22 626 -14 q 849 126 789 59 q 941 289 908 193 q 975 505 975 385 m 856 505 q 831 331 856 407 q 761 204 805 255 q 657 127 717 153 q 529 101 598 101 q 400 127 460 101 q 296 204 340 153 q 227 331 252 255 q 201 505 201 407 q 227 679 201 604 q 296 806 252 755 q 400 883 340 857 q 529 909 460 909 q 657 883 598 909 q 761 806 717 857 q 831 679 805 755 q 856 505 856 604 m 387 1136 q 418 1143 404 1136 q 443 1160 433 1149 q 460 1186 454 1171 q 466 1215 466 1200 q 460 1247 466 1233 q 443 1272 454 1261 q 418 1288 433 1282 q 387 1294 404 1294 q 357 1288 371 1294 q 332 1272 343 1282 q 314 1247 321 1261 q 308 1215 308 1233 q 314 1186 308 1200 q 332 1160 321 1171 q 357 1143 343 1149 q 387 1136 371 1136 m 671 1136 q 702 1143 688 1136 q 727 1160 717 1149 q 744 1186 738 1171 q 750 1215 750 1200 q 744 1247 750 1233 q 727 1272 738 1261 q 702 1288 717 1282 q 671 1294 688 1294 q 641 1288 655 1294 q 616 1272 627 1282 q 598 1247 605 1261 q 592 1215 592 1233 q 598 1186 592 1200 q 616 1160 605 1171 q 641 1143 627 1149 q 671 1136 655 1136 "},"×":{"ha":915,"x_min":142,"x_max":773,"o":"m 458 320 l 698 79 l 773 154 l 533 395 l 773 635 l 698 710 l 458 470 l 217 710 l 142 635 l 383 395 l 142 154 l 217 79 l 458 320 "},"Ø":{"ha":1057,"x_min":83,"x_max":975,"o":"m 138 10 l 213 -41 l 282 61 q 396 5 334 24 q 529 -14 458 -14 q 708 22 626 -14 q 849 126 789 59 q 941 289 908 193 q 975 505 975 385 q 940 726 975 629 q 843 891 905 823 l 915 998 l 840 1050 l 774 951 q 660 1005 722 986 q 529 1024 599 1024 q 406 1008 464 1024 q 298 960 348 991 q 209 884 249 929 q 141 782 169 839 q 98 654 113 724 q 83 505 83 585 q 117 286 83 382 q 213 121 151 189 l 138 10 m 856 505 q 831 331 856 407 q 761 204 805 255 q 657 127 717 153 q 529 101 598 101 q 432 115 478 101 q 347 157 386 129 l 774 790 q 835 668 813 738 q 856 505 856 597 m 708 854 l 282 222 q 222 344 244 273 q 201 505 201 414 q 227 679 201 604 q 296 806 252 755 q 400 883 340 857 q 529 909 460 909 q 624 896 579 909 q 708 854 670 882 "},"Ù":{"ha":1030,"x_min":122,"x_max":908,"o":"m 908 1010 l 785 1010 l 785 351 q 767 249 785 296 q 713 168 748 202 q 628 116 679 135 q 515 97 578 97 q 401 116 452 97 q 316 168 351 135 q 263 249 282 202 q 245 351 245 296 l 245 1010 l 122 1010 l 122 341 q 150 198 122 264 q 229 84 178 132 q 353 9 281 36 q 515 -18 426 -18 q 677 9 604 -18 q 800 84 749 36 q 880 198 852 132 q 908 341 908 264 l 908 1010 m 312 1342 l 466 1113 l 568 1113 l 448 1342 l 312 1342 "},"Ú":{"ha":1030,"x_min":122,"x_max":908,"o":"m 908 1010 l 785 1010 l 785 351 q 767 249 785 296 q 713 168 748 202 q 628 116 679 135 q 515 97 578 97 q 401 116 452 97 q 316 168 351 135 q 263 249 282 202 q 245 351 245 296 l 245 1010 l 122 1010 l 122 341 q 150 198 122 264 q 229 84 178 132 q 353 9 281 36 q 515 -18 426 -18 q 677 9 604 -18 q 800 84 749 36 q 880 198 852 132 q 908 341 908 264 l 908 1010 m 582 1342 l 462 1113 l 564 1113 l 718 1342 l 582 1342 "},"Û":{"ha":1030,"x_min":122,"x_max":908,"o":"m 908 1010 l 785 1010 l 785 351 q 767 249 785 296 q 713 168 748 202 q 628 116 679 135 q 515 97 578 97 q 401 116 452 97 q 316 168 351 135 q 263 249 282 202 q 245 351 245 296 l 245 1010 l 122 1010 l 122 341 q 150 198 122 264 q 229 84 178 132 q 353 9 281 36 q 515 -18 426 -18 q 677 9 604 -18 q 800 84 749 36 q 880 198 852 132 q 908 341 908 264 l 908 1010 m 515 1239 l 618 1101 l 728 1101 l 728 1109 l 568 1314 l 462 1314 l 302 1109 l 302 1101 l 412 1101 l 515 1239 "},"Ü":{"ha":1030,"x_min":122,"x_max":908,"o":"m 908 1010 l 785 1010 l 785 351 q 767 249 785 296 q 713 168 748 202 q 628 116 679 135 q 515 97 578 97 q 401 116 452 97 q 316 168 351 135 q 263 249 282 202 q 245 351 245 296 l 245 1010 l 122 1010 l 122 341 q 150 198 122 264 q 229 84 178 132 q 353 9 281 36 q 515 -18 426 -18 q 677 9 604 -18 q 800 84 749 36 q 880 198 852 132 q 908 341 908 264 l 908 1010 m 373 1136 q 404 1143 390 1136 q 429 1160 419 1149 q 446 1186 440 1171 q 452 1215 452 1200 q 446 1247 452 1233 q 429 1272 440 1261 q 404 1288 419 1282 q 373 1294 390 1294 q 343 1288 358 1294 q 318 1272 329 1282 q 300 1247 307 1261 q 294 1215 294 1233 q 300 1186 294 1200 q 318 1160 307 1171 q 343 1143 329 1149 q 373 1136 358 1136 m 657 1136 q 689 1143 674 1136 q 713 1160 703 1149 q 730 1186 724 1171 q 736 1215 736 1200 q 730 1247 736 1233 q 713 1272 724 1261 q 689 1288 703 1282 q 657 1294 674 1294 q 627 1288 642 1294 q 602 1272 613 1282 q 584 1247 591 1261 q 578 1215 578 1233 q 584 1186 578 1200 q 602 1160 591 1171 q 627 1143 613 1149 q 657 1136 642 1136 "},"Ý":{"ha":923,"x_min":36,"x_max":888,"o":"m 176 1010 l 36 1010 l 400 416 l 400 0 l 523 0 l 523 416 l 888 1010 l 748 1010 l 468 539 l 456 539 l 176 1010 m 529 1342 l 408 1113 l 511 1113 l 665 1342 l 529 1342 "},"Þ":{"ha":876,"x_min":114,"x_max":765,"o":"m 237 1010 l 114 1010 l 114 0 l 237 0 l 237 221 l 432 221 q 575 244 513 221 q 679 306 637 267 q 744 398 722 345 q 765 511 765 451 q 744 624 765 571 q 679 716 722 677 q 575 778 637 755 q 432 801 513 801 l 237 801 l 237 1010 m 432 329 l 237 329 l 237 692 l 432 692 q 525 680 485 692 q 593 644 566 667 q 635 586 620 620 q 649 509 649 552 q 593 376 649 423 q 432 329 538 329 "},"ß":{"ha":846,"x_min":122,"x_max":767,"o":"m 122 752 l 122 0 l 239 0 l 239 752 q 252 818 239 788 q 289 870 265 848 q 345 903 313 891 q 416 915 378 915 q 490 902 457 915 q 545 866 522 889 q 580 812 568 843 q 592 746 592 781 q 581 680 592 712 q 548 623 569 648 q 497 583 527 598 q 430 568 468 568 l 367 568 l 367 458 l 456 458 q 537 444 501 458 q 599 407 573 431 q 637 350 624 383 q 651 278 651 317 q 639 210 651 241 q 603 156 626 179 q 548 121 581 134 q 475 109 515 109 l 363 109 l 363 0 l 473 0 q 594 21 540 0 q 687 79 649 42 q 746 167 726 116 q 767 278 767 218 q 751 374 767 331 q 706 450 735 418 q 637 501 677 481 q 548 525 597 520 l 548 535 q 613 568 584 547 q 664 618 643 589 q 697 684 685 647 q 708 763 708 720 q 686 872 708 824 q 624 954 663 920 q 531 1006 585 988 q 414 1024 477 1024 q 296 1005 350 1024 q 204 951 243 986 q 144 865 165 916 q 122 752 122 815 "},"à":{"ha":783,"x_min":71,"x_max":677,"o":"m 329 -18 q 417 -6 379 -18 q 483 24 455 6 q 528 63 510 42 q 554 103 545 84 l 560 103 l 560 0 l 677 0 l 677 499 q 663 602 677 559 q 626 675 649 646 q 573 724 603 705 q 512 751 543 742 q 451 764 481 761 q 397 767 421 767 q 309 759 354 767 q 224 730 265 751 q 149 676 183 710 q 93 590 115 642 l 203 550 q 229 592 213 571 q 270 628 246 612 q 327 655 294 645 q 400 665 359 665 q 521 624 481 665 q 560 511 560 584 l 560 507 q 549 475 560 486 q 514 458 538 464 q 454 449 491 452 q 365 438 417 445 q 294 427 330 434 q 226 411 259 421 q 165 385 194 400 q 116 346 137 369 q 83 291 95 323 q 71 215 71 258 q 91 116 71 160 q 146 43 111 73 q 228 -2 181 13 q 329 -18 276 -18 m 347 87 q 283 94 313 87 q 233 118 254 102 q 199 156 211 133 q 187 209 187 179 q 201 265 187 243 q 239 302 216 288 q 294 325 263 317 q 359 337 325 333 q 390 341 371 339 q 429 346 408 343 q 471 352 449 349 q 510 360 492 356 q 542 370 529 364 q 560 381 555 375 l 560 274 q 546 205 560 239 q 506 145 533 171 q 439 103 478 119 q 347 87 399 87 m 201 1089 l 355 860 l 458 860 l 337 1089 l 201 1089 "},"á":{"ha":783,"x_min":71,"x_max":677,"o":"m 329 -18 q 417 -6 379 -18 q 483 24 455 6 q 528 63 510 42 q 554 103 545 84 l 560 103 l 560 0 l 677 0 l 677 499 q 663 602 677 559 q 626 675 649 646 q 573 724 603 705 q 512 751 543 742 q 451 764 481 761 q 397 767 421 767 q 309 759 354 767 q 224 730 265 751 q 149 676 183 710 q 93 590 115 642 l 203 550 q 229 592 213 571 q 270 628 246 612 q 327 655 294 645 q 400 665 359 665 q 521 624 481 665 q 560 511 560 584 l 560 507 q 549 475 560 486 q 514 458 538 464 q 454 449 491 452 q 365 438 417 445 q 294 427 330 434 q 226 411 259 421 q 165 385 194 400 q 116 346 137 369 q 83 291 95 323 q 71 215 71 258 q 91 116 71 160 q 146 43 111 73 q 228 -2 181 13 q 329 -18 276 -18 m 347 87 q 283 94 313 87 q 233 118 254 102 q 199 156 211 133 q 187 209 187 179 q 201 265 187 243 q 239 302 216 288 q 294 325 263 317 q 359 337 325 333 q 390 341 371 339 q 429 346 408 343 q 471 352 449 349 q 510 360 492 356 q 542 370 529 364 q 560 381 555 375 l 560 274 q 546 205 560 239 q 506 145 533 171 q 439 103 478 119 q 347 87 399 87 m 472 1089 l 351 860 l 454 860 l 608 1089 l 472 1089 "},"â":{"ha":783,"x_min":71,"x_max":677,"o":"m 329 -18 q 417 -6 379 -18 q 483 24 455 6 q 528 63 510 42 q 554 103 545 84 l 560 103 l 560 0 l 677 0 l 677 499 q 663 602 677 559 q 626 675 649 646 q 573 724 603 705 q 512 751 543 742 q 451 764 481 761 q 397 767 421 767 q 309 759 354 767 q 224 730 265 751 q 149 676 183 710 q 93 590 115 642 l 203 550 q 229 592 213 571 q 270 628 246 612 q 327 655 294 645 q 400 665 359 665 q 521 624 481 665 q 560 511 560 584 l 560 507 q 549 475 560 486 q 514 458 538 464 q 454 449 491 452 q 365 438 417 445 q 294 427 330 434 q 226 411 259 421 q 165 385 194 400 q 116 346 137 369 q 83 291 95 323 q 71 215 71 258 q 91 116 71 160 q 146 43 111 73 q 228 -2 181 13 q 329 -18 276 -18 m 347 87 q 283 94 313 87 q 233 118 254 102 q 199 156 211 133 q 187 209 187 179 q 201 265 187 243 q 239 302 216 288 q 294 325 263 317 q 359 337 325 333 q 390 341 371 339 q 429 346 408 343 q 471 352 449 349 q 510 360 492 356 q 542 370 529 364 q 560 381 555 375 l 560 274 q 546 205 560 239 q 506 145 533 171 q 439 103 478 119 q 347 87 399 87 m 404 986 l 507 848 l 618 848 l 618 856 l 458 1061 l 351 1061 l 191 856 l 191 848 l 302 848 l 404 986 "},"ã":{"ha":783,"x_min":71,"x_max":677,"o":"m 329 -18 q 417 -6 379 -18 q 483 24 455 6 q 528 63 510 42 q 554 103 545 84 l 560 103 l 560 0 l 677 0 l 677 499 q 663 602 677 559 q 626 675 649 646 q 573 724 603 705 q 512 751 543 742 q 451 764 481 761 q 397 767 421 767 q 309 759 354 767 q 224 730 265 751 q 149 676 183 710 q 93 590 115 642 l 203 550 q 229 592 213 571 q 270 628 246 612 q 327 655 294 645 q 400 665 359 665 q 521 624 481 665 q 560 511 560 584 l 560 507 q 549 475 560 486 q 514 458 538 464 q 454 449 491 452 q 365 438 417 445 q 294 427 330 434 q 226 411 259 421 q 165 385 194 400 q 116 346 137 369 q 83 291 95 323 q 71 215 71 258 q 91 116 71 160 q 146 43 111 73 q 228 -2 181 13 q 329 -18 276 -18 m 347 87 q 283 94 313 87 q 233 118 254 102 q 199 156 211 133 q 187 209 187 179 q 201 265 187 243 q 239 302 216 288 q 294 325 263 317 q 359 337 325 333 q 390 341 371 339 q 429 346 408 343 q 471 352 449 349 q 510 360 492 356 q 542 370 529 364 q 560 381 555 375 l 560 274 q 546 205 560 239 q 506 145 533 171 q 439 103 478 119 q 347 87 399 87 m 162 852 l 253 848 q 257 878 253 864 q 271 901 262 891 q 292 917 280 911 q 318 923 304 923 q 351 919 336 923 q 377 907 365 914 q 401 892 390 900 q 427 876 413 883 q 457 865 440 870 q 497 860 474 860 q 557 872 529 860 q 604 906 584 884 q 636 958 624 927 q 647 1028 647 989 l 558 1036 q 553 1007 558 1020 q 539 983 548 993 q 518 967 530 973 q 491 961 506 961 q 444 971 465 961 q 403 992 423 981 q 362 1014 383 1004 q 312 1024 340 1024 q 253 1011 280 1024 q 205 976 225 999 q 173 922 185 953 q 162 852 162 890 "},"ä":{"ha":783,"x_min":71,"x_max":677,"o":"m 329 -18 q 417 -6 379 -18 q 483 24 455 6 q 528 63 510 42 q 554 103 545 84 l 560 103 l 560 0 l 677 0 l 677 499 q 663 602 677 559 q 626 675 649 646 q 573 724 603 705 q 512 751 543 742 q 451 764 481 761 q 397 767 421 767 q 309 759 354 767 q 224 730 265 751 q 149 676 183 710 q 93 590 115 642 l 203 550 q 229 592 213 571 q 270 628 246 612 q 327 655 294 645 q 400 665 359 665 q 521 624 481 665 q 560 511 560 584 l 560 507 q 549 475 560 486 q 514 458 538 464 q 454 449 491 452 q 365 438 417 445 q 294 427 330 434 q 226 411 259 421 q 165 385 194 400 q 116 346 137 369 q 83 291 95 323 q 71 215 71 258 q 91 116 71 160 q 146 43 111 73 q 228 -2 181 13 q 329 -18 276 -18 m 347 87 q 283 94 313 87 q 233 118 254 102 q 199 156 211 133 q 187 209 187 179 q 201 265 187 243 q 239 302 216 288 q 294 325 263 317 q 359 337 325 333 q 390 341 371 339 q 429 346 408 343 q 471 352 449 349 q 510 360 492 356 q 542 370 529 364 q 560 381 555 375 l 560 274 q 546 205 560 239 q 506 145 533 171 q 439 103 478 119 q 347 87 399 87 m 262 884 q 294 890 280 884 q 319 908 308 897 q 335 933 329 919 q 341 963 341 947 q 335 994 341 980 q 319 1019 329 1009 q 294 1036 308 1030 q 262 1042 280 1042 q 233 1036 247 1042 q 207 1019 218 1030 q 190 994 196 1009 q 183 963 183 980 q 190 933 183 947 q 207 908 196 919 q 233 890 218 897 q 262 884 247 884 m 546 884 q 578 890 564 884 q 603 908 592 897 q 619 933 614 919 q 625 963 625 947 q 619 994 625 980 q 603 1019 614 1009 q 578 1036 592 1030 q 546 1042 564 1042 q 517 1036 531 1042 q 491 1019 503 1030 q 474 994 480 1009 q 468 963 468 980 q 474 933 468 947 q 491 908 480 919 q 517 890 503 897 q 546 884 531 884 "},"å":{"ha":783,"x_min":71,"x_max":677,"o":"m 329 -18 q 417 -6 379 -18 q 483 24 455 6 q 528 63 510 42 q 554 103 545 84 l 560 103 l 560 0 l 677 0 l 677 499 q 663 602 677 559 q 626 675 649 646 q 573 724 603 705 q 512 751 543 742 q 451 764 481 761 q 397 767 421 767 q 309 759 354 767 q 224 730 265 751 q 149 676 183 710 q 93 590 115 642 l 203 550 q 229 592 213 571 q 270 628 246 612 q 327 655 294 645 q 400 665 359 665 q 521 624 481 665 q 560 511 560 584 l 560 507 q 549 475 560 486 q 514 458 538 464 q 454 449 491 452 q 365 438 417 445 q 294 427 330 434 q 226 411 259 421 q 165 385 194 400 q 116 346 137 369 q 83 291 95 323 q 71 215 71 258 q 91 116 71 160 q 146 43 111 73 q 228 -2 181 13 q 329 -18 276 -18 m 404 842 q 475 855 442 842 q 531 891 507 868 q 568 944 555 913 q 582 1010 582 975 q 568 1077 582 1046 q 531 1132 555 1109 q 475 1170 507 1156 q 404 1184 442 1184 q 334 1170 367 1184 q 277 1132 301 1156 q 239 1077 253 1109 q 225 1010 225 1046 q 239 944 225 975 q 277 891 253 913 q 334 855 301 868 q 404 842 367 842 m 347 87 q 283 94 313 87 q 233 118 254 102 q 199 156 211 133 q 187 209 187 179 q 201 265 187 243 q 239 302 216 288 q 294 325 263 317 q 359 337 325 333 q 390 341 371 339 q 429 346 408 343 q 471 352 449 349 q 510 360 492 356 q 542 370 529 364 q 560 381 555 375 l 560 274 q 546 205 560 239 q 506 145 533 171 q 439 103 478 119 q 347 87 399 87 m 404 917 q 366 925 384 917 q 337 946 349 933 q 317 976 324 959 q 310 1010 310 992 q 317 1046 310 1029 q 337 1077 324 1063 q 366 1099 349 1090 q 404 1107 384 1107 q 443 1099 425 1107 q 473 1077 460 1090 q 492 1046 485 1063 q 499 1010 499 1029 q 492 976 499 992 q 473 946 485 959 q 443 925 460 933 q 404 917 425 917 "},"æ":{"ha":1284,"x_min":71,"x_max":1213,"o":"m 900 -16 q 1007 -2 957 -16 q 1095 37 1056 12 q 1161 97 1134 62 q 1201 176 1188 133 l 1089 207 q 1017 118 1067 148 q 900 89 968 89 q 806 105 849 89 q 733 154 764 122 q 684 232 702 185 q 663 339 665 279 l 1213 339 l 1213 389 q 1200 515 1213 459 q 1164 612 1187 570 q 1110 684 1141 654 q 1042 732 1079 713 q 967 759 1006 751 q 888 767 927 767 q 745 736 806 767 q 644 647 685 704 q 592 710 623 686 q 526 746 560 733 q 458 763 492 759 q 397 767 424 767 q 309 759 354 767 q 224 730 265 751 q 149 676 183 710 q 93 590 115 642 l 203 550 q 229 592 213 571 q 270 628 246 612 q 327 655 294 645 q 400 665 359 665 q 520 624 480 665 q 560 511 560 583 l 560 507 q 549 475 560 486 q 514 458 538 465 q 454 449 491 452 q 365 438 417 445 q 294 427 330 434 q 226 411 259 421 q 165 385 194 400 q 116 346 137 369 q 83 291 95 323 q 71 215 71 258 q 91 116 71 160 q 146 43 111 73 q 228 -2 181 13 q 329 -18 276 -18 q 425 -5 379 -18 q 507 28 470 7 q 570 78 544 50 q 608 138 597 107 l 612 138 q 657 74 629 103 q 722 26 686 46 q 804 -5 759 6 q 900 -16 848 -16 m 347 87 q 283 94 313 87 q 233 118 254 102 q 199 156 211 133 q 187 209 187 179 q 201 265 187 243 q 239 302 216 288 q 294 325 263 317 q 359 337 325 333 q 390 341 371 339 q 429 346 408 343 q 471 352 449 349 q 510 360 492 356 q 542 370 529 364 q 560 381 555 375 l 560 274 q 546 205 560 239 q 506 145 533 171 q 439 103 478 119 q 347 87 399 87 m 1095 440 l 663 440 q 683 524 666 484 q 729 596 700 565 q 798 645 758 626 q 888 663 838 663 q 973 646 935 663 q 1039 600 1012 629 q 1080 529 1066 570 q 1095 440 1095 488 "},"ç":{"ha":775,"x_min":71,"x_max":712,"o":"m 448 -36 l 452 -14 q 552 12 507 -8 q 631 63 597 32 q 685 134 664 94 q 712 221 705 175 l 596 221 q 571 165 588 190 q 531 124 554 141 q 478 98 508 107 q 414 89 448 89 q 321 109 363 89 q 249 168 279 130 q 203 259 219 206 q 187 379 187 313 q 204 496 187 443 q 250 585 220 548 q 322 643 280 622 q 414 663 363 663 q 483 652 453 663 q 537 623 514 641 q 575 581 560 604 q 596 531 589 557 l 712 531 q 679 628 705 584 q 615 702 654 671 q 524 750 576 733 q 412 767 472 767 q 273 739 335 767 q 165 658 210 710 q 95 534 120 606 q 71 375 71 462 q 91 232 71 298 q 147 115 110 166 q 236 32 183 64 q 356 -11 289 -1 l 339 -93 q 388 -99 367 -95 q 421 -109 408 -103 q 440 -128 434 -116 q 446 -156 446 -139 q 438 -185 446 -173 q 416 -204 430 -197 q 382 -216 401 -212 q 339 -219 363 -219 l 343 -296 q 433 -285 395 -296 q 498 -256 472 -275 q 537 -210 524 -237 q 550 -152 550 -184 q 542 -103 550 -123 q 518 -68 533 -82 q 486 -46 504 -54 q 448 -36 467 -38 "},"è":{"ha":809,"x_min":71,"x_max":738,"o":"m 424 -16 q 531 -2 482 -16 q 619 37 581 12 q 686 97 658 62 q 726 176 713 133 l 614 207 q 542 118 591 148 q 424 89 493 89 q 330 105 373 89 q 257 153 288 121 q 208 232 226 185 q 188 339 190 279 l 738 339 l 738 389 q 725 515 738 459 q 689 612 712 570 q 634 684 665 654 q 567 732 603 713 q 491 759 531 751 q 412 767 452 767 q 273 739 335 767 q 165 657 210 710 q 95 533 120 605 q 71 373 71 460 q 95 214 71 286 q 165 91 120 143 q 277 12 211 40 q 424 -16 342 -16 m 619 440 l 188 440 q 208 525 191 484 q 253 596 224 565 q 322 645 282 626 q 412 663 363 663 q 498 646 460 663 q 563 600 536 629 q 605 529 590 570 q 619 440 619 488 m 203 1089 l 357 860 l 460 860 l 339 1089 l 203 1089 "},"é":{"ha":809,"x_min":71,"x_max":738,"o":"m 424 -16 q 531 -2 482 -16 q 619 37 581 12 q 686 97 658 62 q 726 176 713 133 l 614 207 q 542 118 591 148 q 424 89 493 89 q 330 105 373 89 q 257 153 288 121 q 208 232 226 185 q 188 339 190 279 l 738 339 l 738 389 q 725 515 738 459 q 689 612 712 570 q 634 684 665 654 q 567 732 603 713 q 491 759 531 751 q 412 767 452 767 q 273 739 335 767 q 165 657 210 710 q 95 533 120 605 q 71 373 71 460 q 95 214 71 286 q 165 91 120 143 q 277 12 211 40 q 424 -16 342 -16 m 619 440 l 188 440 q 208 525 191 484 q 253 596 224 565 q 322 645 282 626 q 412 663 363 663 q 498 646 460 663 q 563 600 536 629 q 605 529 590 570 q 619 440 619 488 m 473 1089 l 353 860 l 456 860 l 610 1089 l 473 1089 "},"ê":{"ha":809,"x_min":71,"x_max":738,"o":"m 424 -16 q 531 -2 482 -16 q 619 37 581 12 q 686 97 658 62 q 726 176 713 133 l 614 207 q 542 118 591 148 q 424 89 493 89 q 330 105 373 89 q 257 153 288 121 q 208 232 226 185 q 188 339 190 279 l 738 339 l 738 389 q 725 515 738 459 q 689 612 712 570 q 634 684 665 654 q 567 732 603 713 q 491 759 531 751 q 412 767 452 767 q 273 739 335 767 q 165 657 210 710 q 95 533 120 605 q 71 373 71 460 q 95 214 71 286 q 165 91 120 143 q 277 12 211 40 q 424 -16 342 -16 m 619 440 l 188 440 q 208 525 191 484 q 253 596 224 565 q 322 645 282 626 q 412 663 363 663 q 498 646 460 663 q 563 600 536 629 q 605 529 590 570 q 619 440 619 488 m 406 986 l 509 848 l 619 848 l 619 856 l 460 1061 l 353 1061 l 193 856 l 193 848 l 304 848 l 406 986 "},"ë":{"ha":809,"x_min":71,"x_max":738,"o":"m 424 -16 q 531 -2 482 -16 q 619 37 581 12 q 686 97 658 62 q 726 176 713 133 l 614 207 q 542 118 591 148 q 424 89 493 89 q 330 105 373 89 q 257 153 288 121 q 208 232 226 185 q 188 339 190 279 l 738 339 l 738 389 q 725 515 738 459 q 689 612 712 570 q 634 684 665 654 q 567 732 603 713 q 491 759 531 751 q 412 767 452 767 q 273 739 335 767 q 165 657 210 710 q 95 533 120 605 q 71 373 71 460 q 95 214 71 286 q 165 91 120 143 q 277 12 211 40 q 424 -16 342 -16 m 619 440 l 188 440 q 208 525 191 484 q 253 596 224 565 q 322 645 282 626 q 412 663 363 663 q 498 646 460 663 q 563 600 536 629 q 605 529 590 570 q 619 440 619 488 m 264 884 q 296 890 282 884 q 321 908 310 897 q 337 933 331 919 q 343 963 343 947 q 337 994 343 980 q 321 1019 331 1009 q 296 1036 310 1030 q 264 1042 282 1042 q 235 1036 249 1042 q 209 1019 220 1030 q 192 994 198 1009 q 185 963 185 980 q 192 933 185 947 q 209 908 198 919 q 235 890 220 897 q 264 884 249 884 m 548 884 q 580 890 566 884 q 605 908 594 897 q 621 933 616 919 q 627 963 627 947 q 621 994 627 980 q 605 1019 616 1009 q 580 1036 594 1030 q 548 1042 566 1042 q 519 1036 533 1042 q 493 1019 505 1030 q 476 994 482 1009 q 470 963 470 980 q 476 933 470 947 q 493 908 482 919 q 519 890 505 897 q 548 884 533 884 "},"ì":{"ha":329,"x_min":-37,"x_max":223,"o":"m 107 758 l 107 0 l 223 0 l 223 758 l 107 758 m -37 1089 l 116 860 l 219 860 l 99 1089 l -37 1089 "},"í":{"ha":329,"x_min":107,"x_max":369,"o":"m 107 758 l 107 0 l 223 0 l 223 758 l 107 758 m 233 1089 l 112 860 l 215 860 l 369 1089 l 233 1089 "},"î":{"ha":329,"x_min":-47,"x_max":379,"o":"m 107 758 l 107 0 l 223 0 l 223 758 l 107 758 m 166 986 l 268 848 l 379 848 l 379 856 l 219 1061 l 112 1061 l -47 856 l -47 848 l 63 848 l 166 986 "},"ï":{"ha":329,"x_min":-55,"x_max":387,"o":"m 107 758 l 107 0 l 223 0 l 223 758 l 107 758 m 24 884 q 55 890 41 884 q 80 908 70 897 q 97 933 91 919 q 103 963 103 947 q 97 994 103 980 q 80 1019 91 1009 q 55 1036 70 1030 q 24 1042 41 1042 q -6 1036 8 1042 q -31 1019 -20 1030 q -49 994 -42 1009 q -55 963 -55 980 q -49 933 -55 947 q -31 908 -42 919 q -6 890 -20 897 q 24 884 8 884 m 308 884 q 339 890 325 884 q 364 908 354 897 q 381 933 375 919 q 387 963 387 947 q 381 994 387 980 q 364 1019 375 1009 q 339 1036 354 1030 q 308 1042 325 1042 q 278 1036 292 1042 q 253 1019 264 1030 q 235 994 242 1009 q 229 963 229 980 q 235 933 229 947 q 253 908 242 919 q 278 890 264 897 q 308 884 292 884 "},"ð":{"ha":805,"x_min":71,"x_max":734,"o":"m 516 894 l 655 961 l 621 1034 l 454 953 q 366 1020 411 990 q 276 1073 321 1050 l 225 990 q 296 950 263 971 q 359 907 329 929 l 217 838 l 251 765 l 426 850 q 490 781 462 816 q 540 711 518 746 q 576 644 561 677 q 602 582 591 612 l 592 582 q 560 627 580 604 q 513 669 540 650 q 451 699 485 687 q 373 710 416 710 q 255 684 310 710 q 159 609 200 657 q 95 495 118 561 q 71 347 71 428 q 94 201 71 268 q 161 87 117 135 q 265 11 204 38 q 402 -16 327 -16 q 538 10 477 -16 q 643 86 599 36 q 710 207 687 136 q 734 371 734 279 q 717 526 734 452 q 672 665 701 600 q 603 788 643 730 q 516 894 563 845 m 402 89 q 305 110 346 89 q 238 168 264 132 q 200 250 212 204 q 187 347 187 297 q 201 449 187 400 q 241 534 214 497 q 308 592 268 570 q 402 614 349 614 q 473 602 441 614 q 528 571 504 591 q 570 525 553 551 q 599 467 588 498 q 616 404 611 437 q 621 339 621 371 q 607 241 621 287 q 566 162 593 195 q 498 108 539 128 q 402 89 457 89 "},"ñ":{"ha":813,"x_min":107,"x_max":706,"o":"m 223 0 l 223 456 q 237 544 223 506 q 278 609 252 582 q 339 649 304 635 q 416 663 374 663 q 489 650 457 663 q 544 613 521 637 q 578 553 566 588 q 590 473 590 518 l 590 0 l 706 0 l 706 481 q 688 608 706 554 q 636 697 669 661 q 555 750 602 732 q 450 767 508 767 q 372 758 407 767 q 310 732 337 749 q 262 692 283 715 q 229 639 242 668 l 219 639 l 219 758 l 107 758 l 107 0 l 223 0 m 164 852 l 254 848 q 259 878 254 864 q 273 901 264 891 q 294 917 282 911 q 320 923 306 923 q 353 919 338 923 q 379 907 367 914 q 403 892 392 900 q 429 876 415 883 q 459 865 442 870 q 499 860 476 860 q 559 872 531 860 q 606 906 586 884 q 637 958 626 927 q 649 1028 649 989 l 560 1036 q 555 1007 560 1020 q 541 983 550 993 q 520 967 532 973 q 493 961 508 961 q 446 971 467 961 q 405 992 425 981 q 363 1014 385 1004 q 314 1024 342 1024 q 254 1011 282 1024 q 207 976 227 999 q 175 922 187 953 q 164 852 164 890 "},"ò":{"ha":829,"x_min":71,"x_max":758,"o":"m 414 -16 q 555 12 491 -16 q 663 91 618 40 q 733 215 708 143 q 758 375 758 287 q 733 536 758 464 q 663 660 708 609 q 555 739 618 711 q 414 767 491 767 q 274 739 337 767 q 166 660 211 711 q 96 536 121 609 q 71 375 71 464 q 96 215 71 287 q 166 91 121 143 q 274 12 211 40 q 414 -16 337 -16 m 414 89 q 313 112 356 89 q 242 175 270 136 q 201 266 215 214 q 187 375 187 318 q 201 484 187 432 q 242 576 215 536 q 313 639 270 616 q 414 663 356 663 q 516 639 473 663 q 586 576 558 616 q 628 484 614 536 q 641 375 641 432 q 628 266 641 318 q 586 175 614 214 q 516 112 558 136 q 414 89 473 89 m 211 1089 l 365 860 l 468 860 l 347 1089 l 211 1089 "},"ó":{"ha":829,"x_min":71,"x_max":758,"o":"m 414 -16 q 555 12 491 -16 q 663 91 618 40 q 733 215 708 143 q 758 375 758 287 q 733 536 758 464 q 663 660 708 609 q 555 739 618 711 q 414 767 491 767 q 274 739 337 767 q 166 660 211 711 q 96 536 121 609 q 71 375 71 464 q 96 215 71 287 q 166 91 121 143 q 274 12 211 40 q 414 -16 337 -16 m 414 89 q 313 112 356 89 q 242 175 270 136 q 201 266 215 214 q 187 375 187 318 q 201 484 187 432 q 242 576 215 536 q 313 639 270 616 q 414 663 356 663 q 516 639 473 663 q 586 576 558 616 q 628 484 614 536 q 641 375 641 432 q 628 266 641 318 q 586 175 614 214 q 516 112 558 136 q 414 89 473 89 m 481 1089 l 361 860 l 464 860 l 618 1089 l 481 1089 "},"ô":{"ha":829,"x_min":71,"x_max":758,"o":"m 414 -16 q 555 12 491 -16 q 663 91 618 40 q 733 215 708 143 q 758 375 758 287 q 733 536 758 464 q 663 660 708 609 q 555 739 618 711 q 414 767 491 767 q 274 739 337 767 q 166 660 211 711 q 96 536 121 609 q 71 375 71 464 q 96 215 71 287 q 166 91 121 143 q 274 12 211 40 q 414 -16 337 -16 m 414 89 q 313 112 356 89 q 242 175 270 136 q 201 266 215 214 q 187 375 187 318 q 201 484 187 432 q 242 576 215 536 q 313 639 270 616 q 414 663 356 663 q 516 639 473 663 q 586 576 558 616 q 628 484 614 536 q 641 375 641 432 q 628 266 641 318 q 586 175 614 214 q 516 112 558 136 q 414 89 473 89 m 414 986 l 517 848 l 627 848 l 627 856 l 468 1061 l 361 1061 l 201 856 l 201 848 l 312 848 l 414 986 "},"õ":{"ha":829,"x_min":71,"x_max":758,"o":"m 414 -16 q 555 12 491 -16 q 663 91 618 40 q 733 215 708 143 q 758 375 758 287 q 733 536 758 464 q 663 660 708 609 q 555 739 618 711 q 414 767 491 767 q 274 739 337 767 q 166 660 211 711 q 96 536 121 609 q 71 375 71 464 q 96 215 71 287 q 166 91 121 143 q 274 12 211 40 q 414 -16 337 -16 m 414 89 q 313 112 356 89 q 242 175 270 136 q 201 266 215 214 q 187 375 187 318 q 201 484 187 432 q 242 576 215 536 q 313 639 270 616 q 414 663 356 663 q 516 639 473 663 q 586 576 558 616 q 628 484 614 536 q 641 375 641 432 q 628 266 641 318 q 586 175 614 214 q 516 112 558 136 q 414 89 473 89 m 172 852 l 262 848 q 267 878 262 864 q 281 901 272 891 q 302 917 290 911 q 327 923 314 923 q 361 919 346 923 q 387 907 375 914 q 411 892 400 900 q 437 876 423 883 q 467 865 450 870 q 507 860 484 860 q 566 872 539 860 q 614 906 594 884 q 645 958 634 927 q 657 1028 657 989 l 568 1036 q 563 1007 568 1020 q 549 983 558 993 q 527 967 540 973 q 501 961 515 961 q 454 971 474 961 q 413 992 433 981 q 371 1014 393 1004 q 322 1024 350 1024 q 262 1011 290 1024 q 215 976 235 999 q 183 922 195 953 q 172 852 172 890 "},"ö":{"ha":829,"x_min":71,"x_max":758,"o":"m 414 -16 q 555 12 491 -16 q 663 91 618 40 q 733 215 708 143 q 758 375 758 287 q 733 536 758 464 q 663 660 708 609 q 555 739 618 711 q 414 767 491 767 q 274 739 337 767 q 166 660 211 711 q 96 536 121 609 q 71 375 71 464 q 96 215 71 287 q 166 91 121 143 q 274 12 211 40 q 414 -16 337 -16 m 414 89 q 313 112 356 89 q 242 175 270 136 q 201 266 215 214 q 187 375 187 318 q 201 484 187 432 q 242 576 215 536 q 313 639 270 616 q 414 663 356 663 q 516 639 473 663 q 586 576 558 616 q 628 484 614 536 q 641 375 641 432 q 628 266 641 318 q 586 175 614 214 q 516 112 558 136 q 414 89 473 89 m 272 884 q 304 890 290 884 q 329 908 318 897 q 345 933 339 919 q 351 963 351 947 q 345 994 351 980 q 329 1019 339 1009 q 304 1036 318 1030 q 272 1042 290 1042 q 243 1036 257 1042 q 217 1019 228 1030 q 200 994 206 1009 q 193 963 193 980 q 200 933 193 947 q 217 908 206 919 q 243 890 228 897 q 272 884 257 884 m 556 884 q 588 890 574 884 q 613 908 602 897 q 629 933 623 919 q 635 963 635 947 q 629 994 635 980 q 613 1019 623 1009 q 588 1036 602 1030 q 556 1042 574 1042 q 527 1036 541 1042 q 501 1019 512 1030 q 484 994 490 1009 q 477 963 477 980 q 484 933 477 947 q 501 908 490 919 q 527 890 512 897 q 556 884 541 884 "},"÷":{"ha":915,"x_min":142,"x_max":773,"o":"m 773 339 l 773 450 l 142 450 l 142 339 l 773 339 m 458 562 q 491 569 475 562 q 519 588 507 576 q 538 617 531 600 q 545 651 545 633 q 538 685 545 669 q 519 712 531 700 q 491 731 507 724 q 458 738 475 738 q 423 731 439 738 q 395 712 407 724 q 376 685 383 700 q 369 651 369 669 q 376 617 369 633 q 395 588 383 600 q 423 569 407 576 q 458 562 439 562 m 458 51 q 491 58 475 51 q 519 77 507 65 q 538 106 531 89 q 545 140 545 122 q 538 174 545 158 q 519 201 531 189 q 491 220 507 213 q 458 227 475 227 q 423 220 439 227 q 395 201 407 213 q 376 174 383 189 q 369 140 369 158 q 376 106 369 122 q 395 77 383 89 q 423 58 407 65 q 458 51 439 51 "},"ø":{"ha":829,"x_min":71,"x_max":758,"o":"m 112 10 l 187 -41 l 237 32 q 319 -4 275 8 q 414 -16 363 -16 q 555 12 491 -16 q 663 91 618 40 q 733 215 708 143 q 758 375 758 287 q 733 537 758 465 q 662 661 708 609 l 716 742 l 641 793 l 592 720 q 509 755 554 743 q 414 767 465 767 q 274 739 337 767 q 166 660 211 711 q 96 536 121 609 q 71 375 71 464 q 96 214 71 286 q 167 90 121 142 l 112 10 m 414 89 q 350 97 379 89 q 297 121 321 106 l 595 562 q 630 475 618 524 q 641 375 641 427 q 628 266 641 318 q 586 175 614 214 q 516 112 558 136 q 414 89 473 89 m 531 630 l 233 189 q 199 275 210 227 q 187 375 187 323 q 201 484 187 432 q 242 576 215 536 q 313 639 270 616 q 414 663 356 663 q 478 654 449 663 q 531 630 508 646 "},"ù":{"ha":807,"x_min":107,"x_max":700,"o":"m 584 758 l 584 310 q 566 218 584 256 q 519 153 547 179 q 456 115 490 127 q 389 103 421 103 q 322 115 353 103 q 270 152 291 128 q 235 209 248 176 q 223 284 223 243 l 223 758 l 107 758 l 107 276 q 125 150 107 204 q 176 61 143 96 q 253 8 208 25 q 351 -10 298 -10 q 430 1 394 -10 q 493 30 465 12 q 542 74 521 49 q 576 128 563 100 l 584 128 l 584 0 l 700 0 l 700 758 l 584 758 m 201 1089 l 355 860 l 458 860 l 337 1089 l 201 1089 "},"ú":{"ha":807,"x_min":107,"x_max":700,"o":"m 584 758 l 584 310 q 566 218 584 256 q 519 153 547 179 q 456 115 490 127 q 389 103 421 103 q 322 115 353 103 q 270 152 291 128 q 235 209 248 176 q 223 284 223 243 l 223 758 l 107 758 l 107 276 q 125 150 107 204 q 176 61 143 96 q 253 8 208 25 q 351 -10 298 -10 q 430 1 394 -10 q 493 30 465 12 q 542 74 521 49 q 576 128 563 100 l 584 128 l 584 0 l 700 0 l 700 758 l 584 758 m 472 1089 l 351 860 l 454 860 l 608 1089 l 472 1089 "},"û":{"ha":807,"x_min":107,"x_max":700,"o":"m 584 758 l 584 310 q 566 218 584 256 q 519 153 547 179 q 456 115 490 127 q 389 103 421 103 q 322 115 353 103 q 270 152 291 128 q 235 209 248 176 q 223 284 223 243 l 223 758 l 107 758 l 107 276 q 125 150 107 204 q 176 61 143 96 q 253 8 208 25 q 351 -10 298 -10 q 430 1 394 -10 q 493 30 465 12 q 542 74 521 49 q 576 128 563 100 l 584 128 l 584 0 l 700 0 l 700 758 l 584 758 m 404 986 l 507 848 l 618 848 l 618 856 l 458 1061 l 351 1061 l 191 856 l 191 848 l 302 848 l 404 986 "},"ü":{"ha":807,"x_min":107,"x_max":700,"o":"m 584 758 l 584 310 q 566 218 584 256 q 519 153 547 179 q 456 115 490 127 q 389 103 421 103 q 322 115 353 103 q 270 152 291 128 q 235 209 248 176 q 223 284 223 243 l 223 758 l 107 758 l 107 276 q 125 150 107 204 q 176 61 143 96 q 253 8 208 25 q 351 -10 298 -10 q 430 1 394 -10 q 493 30 465 12 q 542 74 521 49 q 576 128 563 100 l 584 128 l 584 0 l 700 0 l 700 758 l 584 758 m 262 884 q 294 890 280 884 q 319 908 308 897 q 335 933 329 919 q 341 963 341 947 q 335 994 341 980 q 319 1019 329 1009 q 294 1036 308 1030 q 262 1042 280 1042 q 233 1036 247 1042 q 207 1019 218 1030 q 190 994 196 1009 q 183 963 183 980 q 190 933 183 947 q 207 908 196 919 q 233 890 218 897 q 262 884 247 884 m 546 884 q 578 890 564 884 q 603 908 592 897 q 619 933 614 919 q 625 963 625 947 q 619 994 625 980 q 603 1019 614 1009 q 578 1036 592 1030 q 546 1042 564 1042 q 517 1036 531 1042 q 491 1019 503 1030 q 474 994 480 1009 q 468 963 468 980 q 474 933 468 947 q 491 908 480 919 q 517 890 503 897 q 546 884 531 884 "},"ý":{"ha":773,"x_min":47,"x_max":726,"o":"m 182 -284 q 316 -242 261 -284 q 404 -110 371 -199 l 726 758 l 600 758 l 391 154 l 383 154 l 174 758 l 47 758 l 327 -4 l 306 -63 q 272 -131 290 -107 q 232 -167 254 -156 q 184 -177 210 -178 q 126 -168 158 -176 l 97 -270 q 129 -279 106 -275 q 182 -284 152 -284 m 454 1089 l 333 860 l 436 860 l 590 1089 l 454 1089 "},"þ":{"ha":846,"x_min":107,"x_max":775,"o":"m 223 1010 l 107 1010 l 107 -284 l 223 -284 l 223 116 l 233 116 q 248 92 239 106 q 269 64 256 78 q 298 35 282 49 q 337 9 315 21 q 388 -9 360 -2 q 454 -16 417 -16 q 584 12 525 -16 q 686 91 643 39 q 752 214 728 142 q 775 377 775 287 q 752 539 775 467 q 685 662 728 611 q 583 740 643 713 q 452 767 524 767 q 386 761 415 767 q 335 743 357 754 q 296 717 313 731 q 268 689 280 703 q 248 661 256 674 q 233 637 239 647 l 223 637 l 223 1010 m 659 379 q 645 265 659 318 q 603 173 631 213 q 534 111 576 134 q 438 89 493 89 q 345 110 386 89 q 277 169 304 131 q 235 261 250 208 q 221 379 221 315 q 235 495 221 442 q 276 584 249 547 q 344 642 304 622 q 438 663 385 663 q 535 641 494 663 q 604 581 577 619 q 645 491 631 543 q 659 379 659 439 "},"ÿ":{"ha":773,"x_min":47,"x_max":726,"o":"m 182 -284 q 316 -242 261 -284 q 404 -110 371 -199 l 726 758 l 600 758 l 391 154 l 383 154 l 174 758 l 47 758 l 327 -4 l 306 -63 q 272 -131 290 -107 q 232 -167 254 -156 q 184 -177 210 -178 q 126 -168 158 -176 l 97 -270 q 129 -279 106 -275 q 182 -284 152 -284 m 245 884 q 276 890 262 884 q 301 908 291 897 q 318 933 312 919 q 324 963 324 947 q 318 994 324 980 q 301 1019 312 1009 q 276 1036 291 1030 q 245 1042 262 1042 q 215 1036 229 1042 q 190 1019 201 1030 q 172 994 179 1009 q 166 963 166 980 q 172 933 166 947 q 190 908 179 919 q 215 890 201 897 q 245 884 229 884 m 529 884 q 560 890 546 884 q 585 908 575 897 q 602 933 596 919 q 608 963 608 947 q 602 994 608 980 q 585 1019 596 1009 q 560 1036 575 1030 q 529 1042 546 1042 q 499 1036 513 1042 q 474 1019 485 1030 q 456 994 463 1009 q 450 963 450 980 q 456 933 450 947 q 474 908 463 919 q 499 890 485 897 q 529 884 513 884 "},"Ā":{"ha":939,"x_min":36,"x_max":904,"o":"m 36 0 l 164 0 l 265 286 l 674 286 l 775 0 l 904 0 l 533 1010 l 406 1010 l 36 0 m 635 395 l 304 395 l 466 850 l 473 850 l 635 395 m 700 1164 l 700 1263 l 239 1263 l 239 1164 l 700 1164 "},"ā":{"ha":783,"x_min":71,"x_max":677,"o":"m 329 -18 q 417 -6 379 -18 q 483 24 455 6 q 528 63 510 42 q 554 103 545 84 l 560 103 l 560 0 l 677 0 l 677 499 q 663 602 677 559 q 626 675 649 646 q 573 724 603 705 q 512 751 543 742 q 451 764 481 761 q 397 767 421 767 q 309 759 354 767 q 224 730 265 751 q 149 676 183 710 q 93 590 115 642 l 203 550 q 229 592 213 571 q 270 628 246 612 q 327 655 294 645 q 400 665 359 665 q 521 624 481 665 q 560 511 560 584 l 560 507 q 549 475 560 486 q 514 458 538 464 q 454 449 491 452 q 365 438 417 445 q 294 427 330 434 q 226 411 259 421 q 165 385 194 400 q 116 346 137 369 q 83 291 95 323 q 71 215 71 258 q 91 116 71 160 q 146 43 111 73 q 228 -2 181 13 q 329 -18 276 -18 m 347 87 q 283 94 313 87 q 233 118 254 102 q 199 156 211 133 q 187 209 187 179 q 201 265 187 243 q 239 302 216 288 q 294 325 263 317 q 359 337 325 333 q 390 341 371 339 q 429 346 408 343 q 471 352 449 349 q 510 360 492 356 q 542 370 529 364 q 560 381 555 375 l 560 274 q 546 205 560 239 q 506 145 533 171 q 439 103 478 119 q 347 87 399 87 m 635 911 l 635 1010 l 174 1010 l 174 911 l 635 911 "},"Ă":{"ha":939,"x_min":36,"x_max":904,"o":"m 36 0 l 164 0 l 265 286 l 674 286 l 775 0 l 904 0 l 533 1010 l 406 1010 l 36 0 m 635 395 l 304 395 l 466 850 l 473 850 l 635 395 m 675 1263 l 566 1263 q 561 1226 566 1243 q 544 1195 555 1208 q 514 1174 532 1182 q 470 1166 496 1166 q 426 1174 444 1166 q 396 1195 407 1182 q 380 1226 385 1208 q 375 1263 375 1243 l 266 1263 q 281 1189 266 1223 q 321 1132 295 1156 q 385 1094 348 1108 q 470 1081 423 1081 q 555 1094 517 1081 q 619 1132 593 1108 q 660 1189 646 1156 q 675 1263 675 1223 "},"ă":{"ha":783,"x_min":71,"x_max":677,"o":"m 329 -18 q 417 -6 379 -18 q 483 24 455 6 q 528 63 510 42 q 554 103 545 84 l 560 103 l 560 0 l 677 0 l 677 499 q 663 602 677 559 q 626 675 649 646 q 573 724 603 705 q 512 751 543 742 q 451 764 481 761 q 397 767 421 767 q 309 759 354 767 q 224 730 265 751 q 149 676 183 710 q 93 590 115 642 l 203 550 q 229 592 213 571 q 270 628 246 612 q 327 655 294 645 q 400 665 359 665 q 521 624 481 665 q 560 511 560 584 l 560 507 q 549 475 560 486 q 514 458 538 464 q 454 449 491 452 q 365 438 417 445 q 294 427 330 434 q 226 411 259 421 q 165 385 194 400 q 116 346 137 369 q 83 291 95 323 q 71 215 71 258 q 91 116 71 160 q 146 43 111 73 q 228 -2 181 13 q 329 -18 276 -18 m 347 87 q 283 94 313 87 q 233 118 254 102 q 199 156 211 133 q 187 209 187 179 q 201 265 187 243 q 239 302 216 288 q 294 325 263 317 q 359 337 325 333 q 390 341 371 339 q 429 346 408 343 q 471 352 449 349 q 510 360 492 356 q 542 370 529 364 q 560 381 555 375 l 560 274 q 546 205 560 239 q 506 145 533 171 q 439 103 478 119 q 347 87 399 87 m 610 1010 l 501 1010 q 496 973 501 991 q 479 943 490 956 q 449 921 467 929 q 404 913 431 913 q 361 921 379 913 q 331 943 342 929 q 315 973 320 956 q 310 1010 310 991 l 201 1010 q 216 937 201 970 q 256 879 230 904 q 320 842 283 855 q 404 829 358 829 q 490 842 452 829 q 554 879 528 855 q 595 937 581 904 q 610 1010 610 970 "},"Ą":{"ha":939,"x_min":36,"x_max":915,"o":"m 36 0 l 164 0 l 265 286 l 674 286 l 775 0 q 695 -81 720 -38 q 671 -166 671 -123 q 681 -222 671 -198 q 710 -263 692 -246 q 755 -288 729 -279 q 811 -296 781 -296 q 873 -286 846 -296 q 915 -266 899 -277 l 908 -180 q 880 -191 897 -185 q 840 -197 863 -197 q 800 -185 811 -197 q 789 -150 789 -172 q 799 -108 789 -128 q 824 -69 808 -88 q 861 -34 840 -51 q 904 0 881 -16 l 533 1010 l 406 1010 l 36 0 m 635 395 l 304 395 l 466 850 l 473 850 l 635 395 "},"ą":{"ha":783,"x_min":71,"x_max":689,"o":"m 329 -18 q 417 -6 379 -18 q 483 24 455 6 q 528 63 510 42 q 554 103 545 84 l 560 103 l 560 8 q 507 -33 529 -12 q 471 -76 485 -54 q 450 -121 457 -98 q 444 -166 444 -144 q 454 -222 444 -198 q 484 -263 465 -246 q 528 -288 502 -279 q 584 -296 554 -296 q 646 -286 619 -296 q 689 -266 672 -277 l 681 -180 q 653 -191 670 -185 q 614 -197 636 -197 q 573 -185 584 -197 q 562 -150 562 -172 q 572 -108 562 -128 q 597 -69 581 -88 q 634 -34 613 -51 q 677 0 654 -16 l 677 499 q 663 602 677 559 q 626 675 649 646 q 573 724 603 705 q 512 751 543 742 q 451 764 481 761 q 397 767 421 767 q 309 759 354 767 q 224 730 265 751 q 149 676 183 710 q 93 590 115 642 l 203 550 q 229 592 213 571 q 270 628 246 612 q 327 655 294 645 q 400 665 359 665 q 521 624 481 665 q 560 511 560 584 l 560 507 q 549 475 560 486 q 514 458 538 464 q 454 449 491 452 q 365 438 417 445 q 294 427 330 434 q 226 411 259 421 q 165 385 194 400 q 116 346 137 369 q 83 291 95 323 q 71 215 71 258 q 91 116 71 160 q 146 43 111 73 q 228 -2 181 13 q 329 -18 276 -18 m 347 87 q 283 94 313 87 q 233 118 254 102 q 199 156 211 133 q 187 209 187 179 q 201 265 187 243 q 239 302 216 288 q 294 325 263 317 q 359 337 325 333 q 390 341 371 339 q 429 346 408 343 q 471 352 449 349 q 510 360 492 356 q 542 370 529 364 q 560 381 555 375 l 560 274 q 546 205 560 239 q 506 145 533 171 q 439 103 478 119 q 347 87 399 87 "},"Ć":{"ha":1010,"x_min":83,"x_max":935,"o":"m 813 694 l 935 694 q 885 834 921 772 q 794 937 848 895 q 673 1001 740 979 q 529 1024 605 1024 q 406 1008 464 1024 q 298 960 348 991 q 209 884 249 929 q 141 782 169 839 q 98 654 113 724 q 83 505 83 585 q 98 356 83 425 q 141 228 113 286 q 209 126 169 171 q 298 50 249 81 q 406 2 348 19 q 529 -14 464 -14 q 673 9 605 -14 q 794 73 740 31 q 885 177 848 115 q 935 316 921 238 l 813 316 q 775 223 802 263 q 710 156 748 183 q 626 114 672 128 q 529 101 579 101 q 400 127 460 101 q 296 204 340 153 q 227 331 252 255 q 201 505 201 407 q 227 679 201 604 q 296 806 252 755 q 400 883 340 857 q 529 909 460 909 q 626 896 579 909 q 710 854 672 882 q 775 787 748 827 q 813 694 802 747 m 596 1342 l 475 1113 l 578 1113 l 732 1342 l 596 1342 "},"ć":{"ha":775,"x_min":71,"x_max":712,"o":"m 414 -16 q 529 2 477 -16 q 619 53 581 21 q 681 127 657 84 q 712 221 705 171 l 596 221 q 571 165 588 190 q 531 124 554 141 q 478 98 508 107 q 414 89 448 89 q 321 109 363 89 q 249 168 279 130 q 203 259 219 206 q 187 379 187 313 q 204 496 187 443 q 250 585 220 548 q 322 643 280 622 q 414 663 363 663 q 483 652 453 663 q 537 623 514 641 q 575 581 560 604 q 596 531 589 557 l 712 531 q 679 628 705 584 q 615 702 654 671 q 524 750 576 733 q 412 767 472 767 q 273 739 335 767 q 165 658 210 710 q 95 534 120 606 q 71 375 71 462 q 95 218 71 290 q 163 94 118 146 q 271 13 207 42 q 414 -16 334 -16 m 477 1089 l 357 860 l 460 860 l 614 1089 l 477 1089 "},"Ĉ":{"ha":1010,"x_min":83,"x_max":935,"o":"m 813 694 l 935 694 q 885 834 921 772 q 794 937 848 895 q 673 1001 740 979 q 529 1024 605 1024 q 406 1008 464 1024 q 298 960 348 991 q 209 884 249 929 q 141 782 169 839 q 98 654 113 724 q 83 505 83 585 q 98 356 83 425 q 141 228 113 286 q 209 126 169 171 q 298 50 249 81 q 406 2 348 19 q 529 -14 464 -14 q 673 9 605 -14 q 794 73 740 31 q 885 177 848 115 q 935 316 921 238 l 813 316 q 775 223 802 263 q 710 156 748 183 q 626 114 672 128 q 529 101 579 101 q 400 127 460 101 q 296 204 340 153 q 227 331 252 255 q 201 505 201 407 q 227 679 201 604 q 296 806 252 755 q 400 883 340 857 q 529 909 460 909 q 626 896 579 909 q 710 854 672 882 q 775 787 748 827 q 813 694 802 747 m 529 1239 l 631 1101 l 742 1101 l 742 1109 l 582 1314 l 475 1314 l 316 1109 l 316 1101 l 426 1101 l 529 1239 "},"ĉ":{"ha":775,"x_min":71,"x_max":712,"o":"m 414 -16 q 529 2 477 -16 q 619 53 581 21 q 681 127 657 84 q 712 221 705 171 l 596 221 q 571 165 588 190 q 531 124 554 141 q 478 98 508 107 q 414 89 448 89 q 321 109 363 89 q 249 168 279 130 q 203 259 219 206 q 187 379 187 313 q 204 496 187 443 q 250 585 220 548 q 322 643 280 622 q 414 663 363 663 q 483 652 453 663 q 537 623 514 641 q 575 581 560 604 q 596 531 589 557 l 712 531 q 679 628 705 584 q 615 702 654 671 q 524 750 576 733 q 412 767 472 767 q 273 739 335 767 q 165 658 210 710 q 95 534 120 606 q 71 375 71 462 q 95 218 71 290 q 163 94 118 146 q 271 13 207 42 q 414 -16 334 -16 m 410 986 l 513 848 l 623 848 l 623 856 l 464 1061 l 357 1061 l 197 856 l 197 848 l 308 848 l 410 986 "},"Ċ":{"ha":1010,"x_min":83,"x_max":935,"o":"m 813 694 l 935 694 q 885 834 921 772 q 794 937 848 895 q 673 1001 740 979 q 529 1024 605 1024 q 406 1008 464 1024 q 298 960 348 991 q 209 884 249 929 q 141 782 169 839 q 98 654 113 724 q 83 505 83 585 q 98 356 83 425 q 141 228 113 286 q 209 126 169 171 q 298 50 249 81 q 406 2 348 19 q 529 -14 464 -14 q 673 9 605 -14 q 794 73 740 31 q 885 177 848 115 q 935 316 921 238 l 813 316 q 775 223 802 263 q 710 156 748 183 q 626 114 672 128 q 529 101 579 101 q 400 127 460 101 q 296 204 340 153 q 227 331 252 255 q 201 505 201 407 q 227 679 201 604 q 296 806 252 755 q 400 883 340 857 q 529 909 460 909 q 626 896 579 909 q 710 854 672 882 q 775 787 748 827 q 813 694 802 747 m 529 1136 q 561 1143 546 1136 q 587 1160 576 1149 q 605 1185 598 1170 q 612 1215 612 1199 q 605 1246 612 1232 q 587 1271 598 1260 q 561 1288 576 1282 q 529 1294 546 1294 q 497 1288 512 1294 q 470 1271 481 1282 q 453 1246 459 1260 q 446 1215 446 1232 q 453 1185 446 1199 q 470 1160 459 1170 q 497 1143 481 1149 q 529 1136 512 1136 "},"ċ":{"ha":775,"x_min":71,"x_max":712,"o":"m 414 -16 q 529 2 477 -16 q 619 53 581 21 q 681 127 657 84 q 712 221 705 171 l 596 221 q 571 165 588 190 q 531 124 554 141 q 478 98 508 107 q 414 89 448 89 q 321 109 363 89 q 249 168 279 130 q 203 259 219 206 q 187 379 187 313 q 204 496 187 443 q 250 585 220 548 q 322 643 280 622 q 414 663 363 663 q 483 652 453 663 q 537 623 514 641 q 575 581 560 604 q 596 531 589 557 l 712 531 q 679 628 705 584 q 615 702 654 671 q 524 750 576 733 q 412 767 472 767 q 273 739 335 767 q 165 658 210 710 q 95 534 120 606 q 71 375 71 462 q 95 218 71 290 q 163 94 118 146 q 271 13 207 42 q 414 -16 334 -16 m 410 884 q 443 890 428 884 q 469 907 458 896 q 487 932 480 918 q 493 963 493 946 q 487 993 493 979 q 469 1018 480 1008 q 443 1036 458 1029 q 410 1042 428 1042 q 378 1036 394 1042 q 352 1018 363 1029 q 334 993 341 1008 q 327 963 327 979 q 334 932 327 946 q 352 907 341 918 q 378 890 363 896 q 410 884 394 884 "},"Č":{"ha":1010,"x_min":83,"x_max":935,"o":"m 813 694 l 935 694 q 885 834 921 772 q 794 937 848 895 q 673 1001 740 979 q 529 1024 605 1024 q 406 1008 464 1024 q 298 960 348 991 q 209 884 249 929 q 141 782 169 839 q 98 654 113 724 q 83 505 83 585 q 98 356 83 425 q 141 228 113 286 q 209 126 169 171 q 298 50 249 81 q 406 2 348 19 q 529 -14 464 -14 q 673 9 605 -14 q 794 73 740 31 q 885 177 848 115 q 935 316 921 238 l 813 316 q 775 223 802 263 q 710 156 748 183 q 626 114 672 128 q 529 101 579 101 q 400 127 460 101 q 296 204 340 153 q 227 331 252 255 q 201 505 201 407 q 227 679 201 604 q 296 806 252 755 q 400 883 340 857 q 529 909 460 909 q 626 896 579 909 q 710 854 672 882 q 775 787 748 827 q 813 694 802 747 m 529 1176 l 426 1314 l 316 1314 l 316 1306 l 475 1101 l 582 1101 l 742 1306 l 742 1314 l 631 1314 l 529 1176 "},"č":{"ha":775,"x_min":71,"x_max":712,"o":"m 414 -16 q 529 2 477 -16 q 619 53 581 21 q 681 127 657 84 q 712 221 705 171 l 596 221 q 571 165 588 190 q 531 124 554 141 q 478 98 508 107 q 414 89 448 89 q 321 109 363 89 q 249 168 279 130 q 203 259 219 206 q 187 379 187 313 q 204 496 187 443 q 250 585 220 548 q 322 643 280 622 q 414 663 363 663 q 483 652 453 663 q 537 623 514 641 q 575 581 560 604 q 596 531 589 557 l 712 531 q 679 628 705 584 q 615 702 654 671 q 524 750 576 733 q 412 767 472 767 q 273 739 335 767 q 165 658 210 710 q 95 534 120 606 q 71 375 71 462 q 95 218 71 290 q 163 94 118 146 q 271 13 207 42 q 414 -16 334 -16 m 410 923 l 308 1061 l 197 1061 l 197 1054 l 357 848 l 464 848 l 623 1054 l 623 1061 l 513 1061 l 410 923 "},"Ď":{"ha":998,"x_min":122,"x_max":915,"o":"m 122 0 l 434 0 q 639 35 549 0 q 790 135 729 70 q 884 295 852 201 q 915 507 915 389 q 884 718 915 625 q 792 876 852 811 q 645 976 732 941 q 448 1010 558 1010 l 122 1010 l 122 0 m 426 109 l 245 109 l 245 902 l 440 902 q 596 874 529 902 q 707 796 662 847 q 775 672 752 745 q 797 507 797 599 q 774 341 797 415 q 706 215 752 267 q 590 136 659 164 q 426 109 520 109 m 418 1176 l 316 1314 l 205 1314 l 205 1306 l 365 1101 l 472 1101 l 631 1306 l 631 1314 l 521 1314 l 418 1176 "},"ď":{"ha":940,"x_min":71,"x_max":956,"o":"m 393 -16 q 458 -9 429 -16 q 509 9 487 -2 q 548 35 532 21 q 577 64 565 49 q 599 92 590 78 q 614 116 607 106 l 627 116 l 627 0 l 740 0 l 740 1010 l 623 1010 l 623 637 l 614 637 q 599 661 607 647 q 578 689 590 674 q 550 717 566 703 q 511 743 534 731 q 460 761 489 754 q 395 767 432 767 q 263 740 323 767 q 161 662 204 713 q 95 539 118 611 q 71 377 71 467 q 95 214 71 287 q 161 91 118 142 q 262 12 203 39 q 393 -16 322 -16 m 408 89 q 312 111 354 89 q 243 173 271 134 q 201 265 216 213 q 187 379 187 318 q 201 491 187 439 q 242 581 215 543 q 311 641 270 619 q 408 663 353 663 q 502 642 462 663 q 570 584 543 622 q 612 495 598 547 q 625 379 625 442 q 611 261 625 315 q 569 169 597 208 q 502 110 542 131 q 408 89 461 89 m 836 1057 l 836 802 l 921 802 l 956 1057 l 836 1057 "},"Đ":{"ha":998,"x_min":-34,"x_max":915,"o":"m 122 0 l 434 0 q 639 35 549 0 q 790 135 729 70 q 884 295 852 201 q 915 507 915 389 q 884 718 915 625 q 792 876 852 811 q 645 976 732 941 q 448 1010 558 1010 l 122 1010 l 122 566 l -34 566 l -34 475 l 122 475 l 122 0 m 426 109 l 245 109 l 245 475 l 400 475 l 400 566 l 245 566 l 245 902 l 440 902 q 596 874 529 902 q 707 796 662 847 q 775 672 752 745 q 797 507 797 599 q 774 341 797 415 q 706 215 752 267 q 590 136 659 164 q 426 109 520 109 "},"đ":{"ha":862,"x_min":71,"x_max":848,"o":"m 393 -16 q 458 -9 429 -16 q 509 9 487 -2 q 548 35 532 21 q 577 64 565 49 q 599 92 590 78 q 614 116 607 106 l 627 116 l 627 0 l 740 0 l 740 823 l 848 823 l 848 913 l 740 913 l 740 1010 l 623 1010 l 623 913 l 414 913 l 414 823 l 623 823 l 623 637 l 614 637 q 599 661 607 647 q 578 689 590 674 q 550 717 566 703 q 511 743 534 731 q 460 761 489 754 q 395 767 432 767 q 263 740 323 767 q 161 662 204 713 q 95 539 118 611 q 71 377 71 467 q 95 214 71 287 q 161 91 118 142 q 262 12 203 39 q 393 -16 322 -16 m 408 89 q 312 111 354 89 q 243 173 271 134 q 201 265 216 213 q 187 379 187 318 q 201 491 187 439 q 242 581 215 543 q 311 641 270 619 q 408 663 353 663 q 502 642 462 663 q 570 584 543 622 q 612 495 598 547 q 625 379 625 442 q 611 261 625 315 q 569 169 597 208 q 502 110 542 131 q 408 89 461 89 "},"Ē":{"ha":831,"x_min":122,"x_max":740,"o":"m 122 1010 l 122 0 l 740 0 l 740 109 l 245 109 l 245 452 l 700 452 l 700 560 l 245 560 l 245 902 l 732 902 l 732 1010 l 122 1010 m 657 1164 l 657 1263 l 195 1263 l 195 1164 l 657 1164 "},"ē":{"ha":809,"x_min":71,"x_max":738,"o":"m 424 -16 q 531 -2 482 -16 q 619 37 581 12 q 686 97 658 62 q 726 176 713 133 l 614 207 q 542 118 591 148 q 424 89 493 89 q 330 105 373 89 q 257 153 288 121 q 208 232 226 185 q 188 339 190 279 l 738 339 l 738 389 q 725 515 738 459 q 689 612 712 570 q 634 684 665 654 q 567 732 603 713 q 491 759 531 751 q 412 767 452 767 q 273 739 335 767 q 165 657 210 710 q 95 533 120 605 q 71 373 71 460 q 95 214 71 286 q 165 91 120 143 q 277 12 211 40 q 424 -16 342 -16 m 619 440 l 188 440 q 208 525 191 484 q 253 596 224 565 q 322 645 282 626 q 412 663 363 663 q 498 646 460 663 q 563 600 536 629 q 605 529 590 570 q 619 440 619 488 m 637 911 l 637 1010 l 176 1010 l 176 911 l 637 911 "},"Ĕ":{"ha":831,"x_min":122,"x_max":740,"o":"m 122 1010 l 122 0 l 740 0 l 740 109 l 245 109 l 245 452 l 700 452 l 700 560 l 245 560 l 245 902 l 732 902 l 732 1010 l 122 1010 m 631 1263 l 523 1263 q 517 1226 523 1243 q 500 1195 512 1208 q 471 1174 489 1182 q 426 1166 452 1166 q 382 1174 400 1166 q 353 1195 364 1182 q 337 1226 342 1208 q 331 1263 331 1243 l 223 1263 q 237 1189 223 1223 q 278 1132 252 1156 q 342 1094 304 1108 q 426 1081 380 1081 q 511 1094 473 1081 q 576 1132 549 1108 q 617 1189 603 1156 q 631 1263 631 1223 "},"ĕ":{"ha":809,"x_min":71,"x_max":738,"o":"m 424 -16 q 531 -2 482 -16 q 619 37 581 12 q 686 97 658 62 q 726 176 713 133 l 614 207 q 542 118 591 148 q 424 89 493 89 q 330 105 373 89 q 257 153 288 121 q 208 232 226 185 q 188 339 190 279 l 738 339 l 738 389 q 725 515 738 459 q 689 612 712 570 q 634 684 665 654 q 567 732 603 713 q 491 759 531 751 q 412 767 452 767 q 273 739 335 767 q 165 657 210 710 q 95 533 120 605 q 71 373 71 460 q 95 214 71 286 q 165 91 120 143 q 277 12 211 40 q 424 -16 342 -16 m 619 440 l 188 440 q 208 525 191 484 q 253 596 224 565 q 322 645 282 626 q 412 663 363 663 q 498 646 460 663 q 563 600 536 629 q 605 529 590 570 q 619 440 619 488 m 612 1010 l 503 1010 q 498 973 503 991 q 481 943 492 956 q 451 921 469 929 q 406 913 433 913 q 363 921 381 913 q 333 943 344 929 q 317 973 322 956 q 312 1010 312 991 l 203 1010 q 218 937 203 970 q 258 879 232 904 q 322 842 285 855 q 406 829 360 829 q 492 842 454 829 q 556 879 530 855 q 597 937 583 904 q 612 1010 612 970 "},"Ė":{"ha":831,"x_min":122,"x_max":740,"o":"m 122 1010 l 122 0 l 740 0 l 740 109 l 245 109 l 245 452 l 700 452 l 700 560 l 245 560 l 245 902 l 732 902 l 732 1010 l 122 1010 m 426 1136 q 458 1143 443 1136 q 485 1160 473 1149 q 502 1185 496 1170 q 509 1215 509 1199 q 502 1246 509 1232 q 485 1271 496 1260 q 458 1288 473 1282 q 426 1294 443 1294 q 394 1288 409 1294 q 368 1271 379 1282 q 350 1246 357 1260 q 343 1215 343 1232 q 350 1185 343 1199 q 368 1160 357 1170 q 394 1143 379 1149 q 426 1136 409 1136 "},"ė":{"ha":809,"x_min":71,"x_max":738,"o":"m 424 -16 q 531 -2 482 -16 q 619 37 581 12 q 686 97 658 62 q 726 176 713 133 l 614 207 q 542 118 591 148 q 424 89 493 89 q 330 105 373 89 q 257 153 288 121 q 208 232 226 185 q 188 339 190 279 l 738 339 l 738 389 q 725 515 738 459 q 689 612 712 570 q 634 684 665 654 q 567 732 603 713 q 491 759 531 751 q 412 767 452 767 q 273 739 335 767 q 165 657 210 710 q 95 533 120 605 q 71 373 71 460 q 95 214 71 286 q 165 91 120 143 q 277 12 211 40 q 424 -16 342 -16 m 619 440 l 188 440 q 208 525 191 484 q 253 596 224 565 q 322 645 282 626 q 412 663 363 663 q 498 646 460 663 q 563 600 536 629 q 605 529 590 570 q 619 440 619 488 m 406 884 q 439 890 424 884 q 465 907 454 896 q 483 932 476 918 q 489 963 489 946 q 483 993 489 979 q 465 1018 476 1008 q 439 1036 454 1029 q 406 1042 424 1042 q 374 1036 390 1042 q 348 1018 359 1029 q 330 993 337 1008 q 324 963 324 979 q 330 932 324 946 q 348 907 337 918 q 374 890 359 896 q 406 884 390 884 "},"Ę":{"ha":831,"x_min":122,"x_max":752,"o":"m 122 1010 l 122 0 l 612 0 q 531 -81 556 -38 q 507 -166 507 -123 q 518 -222 507 -198 q 547 -263 528 -246 q 591 -288 565 -279 q 647 -296 617 -296 q 709 -286 683 -296 q 752 -266 735 -277 l 744 -180 q 716 -191 733 -185 q 677 -197 699 -197 q 636 -185 647 -197 q 625 -150 625 -172 q 635 -108 625 -128 q 660 -69 645 -88 q 697 -34 676 -51 q 740 0 718 -16 l 740 109 l 245 109 l 245 452 l 700 452 l 700 560 l 245 560 l 245 902 l 732 902 l 732 1010 l 122 1010 "},"ę":{"ha":809,"x_min":71,"x_max":738,"o":"m 428 -296 q 490 -286 464 -296 q 533 -266 516 -277 l 525 -180 q 497 -191 514 -185 q 458 -197 480 -197 q 417 -185 428 -197 q 406 -150 406 -172 q 415 -110 406 -129 q 438 -73 424 -91 q 472 -39 453 -55 q 511 -7 491 -23 q 587 19 552 2 q 649 59 621 36 q 696 112 676 82 q 726 176 715 142 l 614 207 q 542 118 591 148 q 424 89 493 89 q 330 105 373 89 q 257 153 288 121 q 208 232 226 185 q 188 339 190 279 l 738 339 l 738 389 q 725 515 738 459 q 689 612 712 570 q 634 684 665 654 q 567 732 603 713 q 491 759 531 751 q 412 767 452 767 q 273 739 335 767 q 165 657 210 710 q 95 533 120 605 q 71 373 71 460 q 92 225 71 292 q 152 108 112 158 q 247 26 191 58 q 375 -13 304 -5 q 308 -88 328 -49 q 288 -166 288 -126 q 299 -222 288 -198 q 328 -263 309 -246 q 372 -288 346 -279 q 428 -296 398 -296 m 619 440 l 188 440 q 208 525 191 484 q 253 596 224 565 q 322 645 282 626 q 412 663 363 663 q 498 646 460 663 q 563 600 536 629 q 605 529 590 570 q 619 440 619 488 "},"Ě":{"ha":831,"x_min":122,"x_max":740,"o":"m 122 1010 l 122 0 l 740 0 l 740 109 l 245 109 l 245 452 l 700 452 l 700 560 l 245 560 l 245 902 l 732 902 l 732 1010 l 122 1010 m 426 1176 l 324 1314 l 213 1314 l 213 1306 l 373 1101 l 479 1101 l 639 1306 l 639 1314 l 529 1314 l 426 1176 "},"ě":{"ha":809,"x_min":71,"x_max":738,"o":"m 424 -16 q 531 -2 482 -16 q 619 37 581 12 q 686 97 658 62 q 726 176 713 133 l 614 207 q 542 118 591 148 q 424 89 493 89 q 330 105 373 89 q 257 153 288 121 q 208 232 226 185 q 188 339 190 279 l 738 339 l 738 389 q 725 515 738 459 q 689 612 712 570 q 634 684 665 654 q 567 732 603 713 q 491 759 531 751 q 412 767 452 767 q 273 739 335 767 q 165 657 210 710 q 95 533 120 605 q 71 373 71 460 q 95 214 71 286 q 165 91 120 143 q 277 12 211 40 q 424 -16 342 -16 m 619 440 l 188 440 q 208 525 191 484 q 253 596 224 565 q 322 645 282 626 q 412 663 363 663 q 498 646 460 663 q 563 600 536 629 q 605 529 590 570 q 619 440 619 488 m 406 923 l 304 1061 l 193 1061 l 193 1054 l 353 848 l 460 848 l 619 1054 l 619 1061 l 509 1061 l 406 923 "},"Ĝ":{"ha":1032,"x_min":83,"x_max":945,"o":"m 813 694 l 939 694 q 889 828 925 768 q 798 932 852 889 q 674 1000 744 976 q 525 1024 605 1024 q 346 988 428 1024 q 207 885 265 952 q 115 721 148 817 q 83 505 83 625 q 115 289 83 385 q 207 126 148 193 q 349 22 266 59 q 533 -14 432 -14 q 699 15 623 -14 q 829 97 774 44 q 914 227 884 151 q 945 397 945 303 l 945 505 l 560 505 l 560 397 l 827 397 q 803 274 825 328 q 743 181 781 219 q 650 121 704 142 q 533 101 597 101 q 402 127 463 101 q 297 204 341 153 q 227 331 252 255 q 201 505 201 407 q 227 679 201 604 q 296 806 252 755 q 399 883 339 857 q 525 909 458 909 q 625 894 580 909 q 708 852 671 879 q 770 784 744 824 q 813 694 797 744 m 525 1239 l 627 1101 l 738 1101 l 738 1109 l 578 1314 l 472 1314 l 312 1109 l 312 1101 l 422 1101 l 525 1239 "},"ĝ":{"ha":846,"x_min":71,"x_max":740,"o":"m 412 -300 q 540 -284 480 -300 q 644 -234 600 -268 q 714 -148 689 -200 q 740 -22 740 -95 l 740 758 l 627 758 l 627 637 l 616 637 q 600 661 609 647 q 580 689 592 674 q 551 717 568 703 q 512 743 534 731 q 460 761 489 754 q 395 767 432 767 q 263 740 323 767 q 161 662 204 713 q 95 541 118 612 q 71 383 71 470 q 95 225 71 294 q 163 109 120 156 q 265 36 206 61 q 393 12 324 12 q 458 18 430 12 q 510 36 487 25 q 549 60 532 47 q 578 88 566 74 q 599 116 590 103 q 614 140 607 130 l 623 140 l 623 -14 q 608 -96 623 -61 q 564 -153 592 -130 q 497 -186 536 -176 q 412 -197 458 -197 q 325 -185 361 -197 q 264 -156 289 -173 q 223 -118 239 -138 q 195 -83 207 -99 l 103 -148 q 147 -205 120 -178 q 212 -254 174 -233 q 299 -287 250 -275 q 412 -300 349 -300 m 408 116 q 312 136 354 116 q 243 191 271 156 q 201 276 216 227 q 187 385 187 326 q 201 493 187 442 q 242 582 215 544 q 311 641 270 619 q 408 663 353 663 q 502 642 462 663 q 570 585 543 622 q 612 497 598 548 q 625 385 625 446 q 611 272 625 322 q 569 188 597 222 q 502 135 542 153 q 408 116 461 116 m 424 986 l 527 848 l 637 848 l 637 856 l 477 1061 l 371 1061 l 211 856 l 211 848 l 322 848 l 424 986 "},"Ğ":{"ha":1032,"x_min":83,"x_max":945,"o":"m 813 694 l 939 694 q 889 828 925 768 q 798 932 852 889 q 674 1000 744 976 q 525 1024 605 1024 q 346 988 428 1024 q 207 885 265 952 q 115 721 148 817 q 83 505 83 625 q 115 289 83 385 q 207 126 148 193 q 349 22 266 59 q 533 -14 432 -14 q 699 15 623 -14 q 829 97 774 44 q 914 227 884 151 q 945 397 945 303 l 945 505 l 560 505 l 560 397 l 827 397 q 803 274 825 328 q 743 181 781 219 q 650 121 704 142 q 533 101 597 101 q 402 127 463 101 q 297 204 341 153 q 227 331 252 255 q 201 505 201 407 q 227 679 201 604 q 296 806 252 755 q 399 883 339 857 q 525 909 458 909 q 625 894 580 909 q 708 852 671 879 q 770 784 744 824 q 813 694 797 744 m 730 1263 l 621 1263 q 616 1226 621 1243 q 599 1195 611 1208 q 569 1174 587 1182 q 525 1166 551 1166 q 481 1174 499 1166 q 452 1195 463 1182 q 435 1226 440 1208 q 430 1263 430 1243 l 322 1263 q 336 1189 322 1223 q 377 1132 350 1156 q 441 1094 403 1108 q 525 1081 478 1081 q 610 1094 572 1081 q 675 1132 648 1108 q 716 1189 701 1156 q 730 1263 730 1223 "},"ğ":{"ha":846,"x_min":71,"x_max":740,"o":"m 412 -300 q 540 -284 480 -300 q 644 -234 600 -268 q 714 -148 689 -200 q 740 -22 740 -95 l 740 758 l 627 758 l 627 637 l 616 637 q 600 661 609 647 q 580 689 592 674 q 551 717 568 703 q 512 743 534 731 q 460 761 489 754 q 395 767 432 767 q 263 740 323 767 q 161 662 204 713 q 95 541 118 612 q 71 383 71 470 q 95 225 71 294 q 163 109 120 156 q 265 36 206 61 q 393 12 324 12 q 458 18 430 12 q 510 36 487 25 q 549 60 532 47 q 578 88 566 74 q 599 116 590 103 q 614 140 607 130 l 623 140 l 623 -14 q 608 -96 623 -61 q 564 -153 592 -130 q 497 -186 536 -176 q 412 -197 458 -197 q 325 -185 361 -197 q 264 -156 289 -173 q 223 -118 239 -138 q 195 -83 207 -99 l 103 -148 q 147 -205 120 -178 q 212 -254 174 -233 q 299 -287 250 -275 q 412 -300 349 -300 m 408 116 q 312 136 354 116 q 243 191 271 156 q 201 276 216 227 q 187 385 187 326 q 201 493 187 442 q 242 582 215 544 q 311 641 270 619 q 408 663 353 663 q 502 642 462 663 q 570 585 543 622 q 612 497 598 548 q 625 385 625 446 q 611 272 625 322 q 569 188 597 222 q 502 135 542 153 q 408 116 461 116 m 629 1010 l 521 1010 q 515 973 521 991 q 498 943 510 956 q 469 921 487 929 q 424 913 450 913 q 380 921 399 913 q 351 943 362 929 q 335 973 340 956 q 329 1010 329 991 l 221 1010 q 235 937 221 970 q 276 879 250 904 q 340 842 302 855 q 424 829 378 829 q 509 842 472 829 q 574 879 547 855 q 615 937 601 904 q 629 1010 629 970 "},"Ġ":{"ha":1032,"x_min":83,"x_max":945,"o":"m 813 694 l 939 694 q 889 828 925 768 q 798 932 852 889 q 674 1000 744 976 q 525 1024 605 1024 q 346 988 428 1024 q 207 885 265 952 q 115 721 148 817 q 83 505 83 625 q 115 289 83 385 q 207 126 148 193 q 349 22 266 59 q 533 -14 432 -14 q 699 15 623 -14 q 829 97 774 44 q 914 227 884 151 q 945 397 945 303 l 945 505 l 560 505 l 560 397 l 827 397 q 803 274 825 328 q 743 181 781 219 q 650 121 704 142 q 533 101 597 101 q 402 127 463 101 q 297 204 341 153 q 227 331 252 255 q 201 505 201 407 q 227 679 201 604 q 296 806 252 755 q 399 883 339 857 q 525 909 458 909 q 625 894 580 909 q 708 852 671 879 q 770 784 744 824 q 813 694 797 744 m 525 1136 q 557 1143 542 1136 q 583 1160 572 1149 q 601 1185 594 1170 q 608 1215 608 1199 q 601 1246 608 1232 q 583 1271 594 1260 q 557 1288 572 1282 q 525 1294 542 1294 q 493 1288 508 1294 q 466 1271 477 1282 q 449 1246 455 1260 q 442 1215 442 1232 q 449 1185 442 1199 q 466 1160 455 1170 q 493 1143 477 1149 q 525 1136 508 1136 "},"ġ":{"ha":846,"x_min":71,"x_max":740,"o":"m 412 -300 q 540 -284 480 -300 q 644 -234 600 -268 q 714 -148 689 -200 q 740 -22 740 -95 l 740 758 l 627 758 l 627 637 l 616 637 q 600 661 609 647 q 580 689 592 674 q 551 717 568 703 q 512 743 534 731 q 460 761 489 754 q 395 767 432 767 q 263 740 323 767 q 161 662 204 713 q 95 541 118 612 q 71 383 71 470 q 95 225 71 294 q 163 109 120 156 q 265 36 206 61 q 393 12 324 12 q 458 18 430 12 q 510 36 487 25 q 549 60 532 47 q 578 88 566 74 q 599 116 590 103 q 614 140 607 130 l 623 140 l 623 -14 q 608 -96 623 -61 q 564 -153 592 -130 q 497 -186 536 -176 q 412 -197 458 -197 q 325 -185 361 -197 q 264 -156 289 -173 q 223 -118 239 -138 q 195 -83 207 -99 l 103 -148 q 147 -205 120 -178 q 212 -254 174 -233 q 299 -287 250 -275 q 412 -300 349 -300 m 408 116 q 312 136 354 116 q 243 191 271 156 q 201 276 216 227 q 187 385 187 326 q 201 493 187 442 q 242 582 215 544 q 311 641 270 619 q 408 663 353 663 q 502 642 462 663 q 570 585 543 622 q 612 497 598 548 q 625 385 625 446 q 611 272 625 322 q 569 188 597 222 q 502 135 542 153 q 408 116 461 116 m 424 884 q 456 890 441 884 q 483 907 472 896 q 500 932 494 918 q 507 963 507 946 q 500 993 507 979 q 483 1018 494 1008 q 456 1036 472 1029 q 424 1042 441 1042 q 392 1036 407 1042 q 366 1018 377 1029 q 348 993 355 1008 q 341 963 341 979 q 348 932 341 946 q 366 907 355 918 q 392 890 377 896 q 424 884 407 884 "},"Ģ":{"ha":1032,"x_min":83,"x_max":945,"o":"m 813 694 l 939 694 q 889 828 925 768 q 798 932 852 889 q 674 1000 744 976 q 525 1024 605 1024 q 346 988 428 1024 q 207 885 265 952 q 115 721 148 817 q 83 505 83 625 q 115 289 83 385 q 207 126 148 193 q 349 22 266 59 q 533 -14 432 -14 q 699 15 623 -14 q 829 97 774 44 q 914 227 884 151 q 945 397 945 303 l 945 505 l 560 505 l 560 397 l 827 397 q 803 274 825 328 q 743 181 781 219 q 650 121 704 142 q 533 101 597 101 q 402 127 463 101 q 297 204 341 153 q 227 331 252 255 q 201 505 201 407 q 227 679 201 604 q 296 806 252 755 q 399 883 339 857 q 525 909 458 909 q 625 894 580 909 q 708 852 671 879 q 770 784 744 824 q 813 694 797 744 m 463 -80 l 407 -335 l 498 -335 l 582 -80 l 463 -80 "},"ģ":{"ha":846,"x_min":71,"x_max":740,"o":"m 412 -300 q 540 -284 480 -300 q 644 -234 600 -268 q 714 -148 689 -200 q 740 -22 740 -95 l 740 758 l 627 758 l 627 637 l 616 637 q 600 661 609 647 q 580 689 592 674 q 551 717 568 703 q 512 743 534 731 q 460 761 489 754 q 395 767 432 767 q 263 740 323 767 q 161 662 204 713 q 95 541 118 612 q 71 383 71 470 q 95 225 71 294 q 163 109 120 156 q 265 36 206 61 q 393 12 324 12 q 458 18 430 12 q 510 36 487 25 q 549 60 532 47 q 578 88 566 74 q 599 116 590 103 q 614 140 607 130 l 623 140 l 623 -14 q 608 -96 623 -61 q 564 -153 592 -130 q 497 -186 536 -176 q 412 -197 458 -197 q 325 -185 361 -197 q 264 -156 289 -173 q 223 -118 239 -138 q 195 -83 207 -99 l 103 -148 q 147 -205 120 -178 q 212 -254 174 -233 q 299 -287 250 -275 q 412 -300 349 -300 m 408 116 q 312 136 354 116 q 243 191 271 156 q 201 276 216 227 q 187 385 187 326 q 201 493 187 442 q 242 582 215 544 q 311 641 270 619 q 408 663 353 663 q 502 642 462 663 q 570 585 543 622 q 612 497 598 548 q 625 385 625 446 q 611 272 625 322 q 569 188 597 222 q 502 135 542 153 q 408 116 461 116 m 353 945 l 353 858 l 489 858 l 489 939 q 491 980 489 961 q 498 1018 493 999 q 511 1055 503 1036 q 531 1095 519 1074 l 454 1156 q 420 1119 437 1142 q 387 1068 402 1096 q 363 1008 372 1039 q 353 945 353 976 "},"Ĥ":{"ha":1028,"x_min":122,"x_max":906,"o":"m 122 1010 l 122 0 l 245 0 l 245 452 l 783 452 l 783 0 l 906 0 l 906 1010 l 783 1010 l 783 560 l 245 560 l 245 1010 l 122 1010 m 519 1241 l 621 1103 l 732 1103 l 732 1111 l 572 1316 l 466 1316 l 306 1111 l 306 1103 l 416 1103 l 519 1241 "},"ĥ":{"ha":821,"x_min":-47,"x_max":714,"o":"m 223 0 l 223 456 q 238 544 223 506 q 280 609 253 582 q 343 649 306 635 q 422 663 379 663 q 496 650 463 663 q 551 613 528 638 q 586 554 574 589 q 598 473 598 519 l 598 0 l 714 0 l 714 481 q 696 608 714 554 q 643 697 677 662 q 562 750 609 733 q 456 767 514 767 q 376 758 411 767 q 313 733 340 749 q 266 692 286 716 q 233 639 246 669 l 223 639 l 223 1010 l 107 1010 l 107 0 l 223 0 m 166 1239 l 268 1101 l 379 1101 l 379 1109 l 219 1314 l 112 1314 l -47 1109 l -47 1101 l 63 1101 l 166 1239 "},"Ħ":{"ha":1079,"x_min":67,"x_max":1012,"o":"m 1012 694 l 1012 797 l 931 797 l 931 1010 l 809 1010 l 809 797 l 270 797 l 270 1010 l 148 1010 l 148 797 l 67 797 l 67 694 l 148 694 l 148 0 l 270 0 l 270 452 l 809 452 l 809 0 l 931 0 l 931 694 l 1012 694 m 270 694 l 809 694 l 809 560 l 270 560 l 270 694 "},"ħ":{"ha":821,"x_min":-51,"x_max":714,"o":"m 223 0 l 223 456 q 238 544 223 506 q 280 609 253 582 q 343 649 306 635 q 422 663 379 663 q 496 650 463 663 q 551 613 528 638 q 586 554 574 589 q 598 473 598 519 l 598 0 l 714 0 l 714 481 q 696 608 714 554 q 643 697 677 662 q 562 750 609 733 q 456 767 514 767 q 376 758 411 767 q 313 733 340 749 q 266 692 286 716 q 233 639 246 669 l 223 639 l 223 838 l 383 838 l 383 929 l 223 929 l 223 1010 l 107 1010 l 107 929 l -51 929 l -51 838 l 107 838 l 107 0 l 223 0 "},"Ĩ":{"ha":616,"x_min":65,"x_max":550,"o":"m 369 0 l 369 1010 l 247 1010 l 247 0 l 369 0 m 65 1105 l 156 1101 q 161 1130 156 1117 q 174 1154 166 1144 q 195 1170 183 1164 q 221 1176 207 1176 q 254 1171 240 1176 q 281 1160 268 1166 q 305 1144 293 1153 q 330 1129 317 1136 q 361 1117 344 1122 q 400 1113 378 1113 q 460 1125 433 1113 q 507 1158 487 1136 q 539 1211 527 1180 q 550 1280 550 1242 l 462 1288 q 456 1259 462 1273 q 442 1235 451 1245 q 421 1219 433 1225 q 395 1213 409 1213 q 347 1223 368 1213 q 307 1245 327 1233 q 265 1267 287 1257 q 215 1276 243 1276 q 156 1264 183 1276 q 108 1228 128 1251 q 77 1174 88 1205 q 65 1105 65 1143 "},"ĩ":{"ha":387,"x_min":-47,"x_max":438,"o":"m 136 758 l 136 0 l 253 0 l 253 758 l 136 758 m -47 852 l 43 848 q 48 878 43 864 q 62 901 53 891 q 83 917 71 911 q 109 923 95 923 q 142 919 127 923 q 168 907 156 914 q 192 892 181 900 q 218 876 204 883 q 248 865 231 870 q 288 860 265 860 q 347 872 320 860 q 395 906 375 884 q 426 958 415 927 q 438 1028 438 989 l 349 1036 q 344 1007 349 1020 q 330 983 339 993 q 309 967 321 973 q 282 961 296 961 q 235 971 255 961 q 194 992 214 981 q 152 1014 174 1004 q 103 1024 131 1024 q 43 1011 71 1024 q -4 976 16 999 q -36 922 -24 953 q -47 852 -47 890 "},"Ī":{"ha":367,"x_min":-47,"x_max":414,"o":"m 245 0 l 245 1010 l 122 1010 l 122 0 l 245 0 m 414 1164 l 414 1263 l -47 1263 l -47 1164 l 414 1164 "},"ī":{"ha":329,"x_min":-65,"x_max":397,"o":"m 107 758 l 107 0 l 223 0 l 223 758 l 107 758 m 397 911 l 397 1010 l -65 1010 l -65 911 l 397 911 "},"Ĭ":{"ha":367,"x_min":-20,"x_max":389,"o":"m 245 0 l 245 1010 l 122 1010 l 122 0 l 245 0 m 389 1263 l 280 1263 q 275 1226 280 1243 q 258 1195 269 1208 q 228 1174 246 1182 q 183 1166 210 1166 q 140 1174 158 1166 q 110 1195 121 1182 q 94 1226 99 1208 q 89 1263 89 1243 l -20 1263 q -5 1189 -20 1223 q 35 1132 9 1156 q 99 1094 62 1108 q 183 1081 137 1081 q 269 1094 231 1081 q 333 1132 307 1108 q 374 1189 360 1156 q 389 1263 389 1223 "},"ĭ":{"ha":329,"x_min":-37,"x_max":371,"o":"m 107 758 l 107 0 l 223 0 l 223 758 l 107 758 m 371 1010 l 262 1010 q 257 973 262 991 q 240 943 252 956 q 210 921 228 929 q 166 913 192 913 q 122 921 140 913 q 92 943 104 929 q 76 973 81 956 q 71 1010 71 991 l -37 1010 q -23 937 -37 970 q 18 879 -9 904 q 82 842 44 855 q 166 829 119 829 q 251 842 213 829 q 316 879 289 855 q 357 937 342 904 q 371 1010 371 970 "},"Į":{"ha":367,"x_min":12,"x_max":256,"o":"m 245 0 l 245 1010 l 122 1010 l 122 4 q 72 -36 93 -15 q 37 -79 51 -57 q 18 -122 24 -100 q 12 -166 12 -144 q 22 -222 12 -198 q 52 -263 33 -246 q 96 -288 70 -279 q 152 -296 122 -296 q 214 -286 187 -296 q 256 -266 240 -277 l 249 -180 q 221 -191 238 -185 q 182 -197 204 -197 q 141 -185 152 -197 q 130 -150 130 -172 q 140 -108 130 -128 q 165 -69 149 -88 q 202 -34 181 -51 q 245 0 222 -16 "},"į":{"ha":329,"x_min":-10,"x_max":249,"o":"m 130 -296 q 192 -286 166 -296 q 235 -266 218 -277 l 227 -180 q 199 -191 217 -185 q 160 -197 182 -197 q 119 -185 130 -197 q 109 -150 109 -172 q 118 -108 109 -128 q 144 -69 128 -88 q 180 -34 159 -51 q 223 0 201 -16 l 223 758 l 107 758 l 107 8 q 53 -33 75 -12 q 17 -76 31 -54 q -3 -121 3 -98 q -10 -166 -10 -144 q 1 -222 -10 -198 q 30 -263 11 -246 q 74 -288 48 -279 q 130 -296 100 -296 m 166 884 q 198 890 183 884 q 224 907 213 896 q 242 932 235 918 q 249 963 249 946 q 242 993 249 979 q 224 1018 235 1008 q 198 1036 213 1029 q 166 1042 183 1042 q 134 1036 149 1042 q 107 1018 118 1029 q 90 993 96 1008 q 83 963 83 979 q 90 932 83 946 q 107 907 96 918 q 134 890 118 896 q 166 884 149 884 "},"İ":{"ha":367,"x_min":101,"x_max":266,"o":"m 245 0 l 245 1010 l 122 1010 l 122 0 l 245 0 m 183 1136 q 216 1143 201 1136 q 242 1160 231 1149 q 260 1185 253 1170 q 266 1215 266 1199 q 260 1246 266 1232 q 242 1271 253 1260 q 216 1288 231 1282 q 183 1294 201 1294 q 151 1288 167 1294 q 125 1271 136 1282 q 107 1246 114 1260 q 101 1215 101 1232 q 107 1185 101 1199 q 125 1160 114 1170 q 151 1143 136 1149 q 183 1136 167 1136 "},"ı":{"ha":329,"x_min":107,"x_max":223,"o":"m 107 758 l 107 0 l 223 0 l 223 758 l 107 758 "},"Ĳ":{"ha":1121,"x_min":122,"x_max":998,"o":"m 998 1010 l 876 1010 l 876 288 q 833 144 876 193 q 710 95 790 95 q 644 105 674 95 q 591 133 614 115 q 557 178 569 152 q 545 237 545 205 l 424 237 q 446 132 424 179 q 505 53 467 86 q 596 3 543 21 q 710 -14 648 -14 q 829 6 776 -14 q 920 65 882 26 q 978 159 958 103 q 998 288 998 216 l 998 1010 m 245 0 l 245 1010 l 122 1010 l 122 0 l 245 0 "},"ĳ":{"ha":659,"x_min":83,"x_max":576,"o":"m 552 758 l 436 758 l 436 -55 q 411 -144 436 -113 q 333 -176 387 -176 l 312 -176 l 312 -284 l 335 -284 q 431 -268 390 -284 q 499 -222 472 -252 q 539 -150 526 -192 q 552 -55 552 -108 l 552 758 m 107 758 l 107 0 l 223 0 l 223 758 l 107 758 m 166 884 q 198 890 183 884 q 224 907 213 896 q 242 932 235 918 q 249 963 249 946 q 242 993 249 979 q 224 1018 235 1008 q 198 1036 213 1029 q 166 1042 183 1042 q 134 1036 149 1042 q 107 1018 118 1029 q 90 993 96 1008 q 83 963 83 979 q 90 932 83 946 q 107 907 96 918 q 134 890 118 896 q 166 884 149 884 m 493 884 q 526 890 510 884 q 552 907 541 896 q 569 932 563 918 q 576 963 576 946 q 569 993 576 979 q 552 1018 563 1008 q 526 1036 541 1029 q 493 1042 510 1042 q 461 1036 476 1042 q 435 1018 446 1029 q 417 993 424 1008 q 410 963 410 979 q 417 932 410 946 q 435 907 424 918 q 461 890 446 896 q 493 884 476 884 "},"Ĵ":{"ha":754,"x_min":57,"x_max":783,"o":"m 631 1010 l 509 1010 l 509 288 q 466 144 509 193 q 343 95 423 95 q 277 105 307 95 q 224 133 247 115 q 190 178 202 152 q 178 237 178 205 l 57 237 q 79 132 57 179 q 138 53 100 86 q 229 3 176 21 q 343 -14 281 -14 q 462 6 409 -14 q 553 65 515 26 q 611 159 591 103 q 631 288 631 216 l 631 1010 m 570 1239 l 673 1101 l 783 1101 l 783 1109 l 623 1314 l 517 1314 l 357 1109 l 357 1101 l 468 1101 l 570 1239 "},"ĵ":{"ha":329,"x_min":-49,"x_max":377,"o":"m 223 758 l 107 758 l 107 -55 q 82 -144 107 -113 q 4 -176 57 -176 l -18 -176 l -18 -284 l 6 -284 q 101 -268 61 -284 q 169 -222 142 -252 q 210 -150 196 -192 q 223 -55 223 -108 l 223 758 m 164 986 l 266 848 l 377 848 l 377 856 l 217 1061 l 110 1061 l -49 856 l -49 848 l 61 848 l 164 986 "},"Ķ":{"ha":906,"x_min":122,"x_max":870,"o":"m 122 1010 l 122 0 l 245 0 l 245 327 l 371 470 l 722 0 l 870 0 l 446 554 l 870 1010 l 710 1010 l 256 509 l 245 509 l 245 1010 l 122 1010 m 394 -80 l 338 -335 l 429 -335 l 513 -80 l 394 -80 "},"ķ":{"ha":756,"x_min":107,"x_max":736,"o":"m 107 1010 l 107 0 l 223 0 l 223 284 l 304 359 l 588 0 l 736 0 l 392 434 l 712 758 l 568 758 l 237 420 l 223 420 l 223 1010 l 107 1010 m 330 -80 l 275 -335 l 366 -335 l 450 -80 l 330 -80 "},"ĸ":{"ha":876,"x_min":118,"x_max":758,"o":"m 254 441 l 254 758 l 118 758 l 118 0 l 254 0 l 254 325 l 308 325 l 586 0 l 758 0 l 431 379 l 757 758 l 593 758 l 323 441 l 254 441 "},"Ĺ":{"ha":781,"x_min":122,"x_max":714,"o":"m 122 1010 l 122 0 l 714 0 l 714 109 l 245 109 l 245 1010 l 122 1010 m 251 1342 l 130 1113 l 233 1113 l 387 1342 l 251 1342 "},"ĺ":{"ha":329,"x_min":107,"x_max":367,"o":"m 223 0 l 223 1010 l 107 1010 l 107 0 l 223 0 m 231 1342 l 110 1113 l 213 1113 l 367 1342 l 231 1342 "},"Ļ":{"ha":781,"x_min":122,"x_max":714,"o":"m 122 1010 l 122 0 l 714 0 l 714 109 l 245 109 l 245 1010 l 122 1010 m 358 -80 l 303 -335 l 394 -335 l 477 -80 l 358 -80 "},"ļ":{"ha":329,"x_min":49,"x_max":224,"o":"m 223 0 l 223 1010 l 107 1010 l 107 0 l 223 0 m 105 -80 l 49 -335 l 140 -335 l 224 -80 l 105 -80 "},"Ľ":{"ha":781,"x_min":122,"x_max":714,"o":"m 122 1010 l 122 0 l 714 0 l 714 109 l 245 109 l 245 1010 l 122 1010 m 416 1057 l 416 802 l 501 802 l 536 1057 l 416 1057 "},"ľ":{"ha":423,"x_min":107,"x_max":439,"o":"m 223 0 l 223 1010 l 107 1010 l 107 0 l 223 0 m 320 1057 l 320 802 l 404 802 l 439 1057 l 320 1057 "},"Ŀ":{"ha":781,"x_min":122,"x_max":714,"o":"m 122 1010 l 122 0 l 714 0 l 714 109 l 245 109 l 245 1010 l 122 1010 m 479 499 q 512 505 497 499 q 538 522 527 511 q 556 547 549 533 q 562 578 562 562 q 556 609 562 594 q 538 634 549 623 q 512 651 527 645 q 479 657 497 657 q 447 651 463 657 q 421 634 432 645 q 403 609 410 623 q 397 578 397 594 q 403 547 397 562 q 421 522 410 533 q 447 505 432 511 q 479 499 463 499 "},"ŀ":{"ha":438,"x_min":107,"x_max":452,"o":"m 223 0 l 223 1010 l 107 1010 l 107 0 l 223 0 m 369 485 q 401 491 386 485 q 427 509 416 498 q 445 534 438 519 q 452 564 452 548 q 445 595 452 581 q 427 620 438 609 q 401 637 416 631 q 369 643 386 643 q 337 637 352 643 q 310 620 322 631 q 293 595 299 609 q 286 564 286 581 q 293 534 286 548 q 310 509 299 519 q 337 491 322 498 q 369 485 352 485 "},"Ł":{"ha":781,"x_min":30,"x_max":714,"o":"m 430 543 l 430 631 l 245 573 l 245 1010 l 122 1010 l 122 534 l 30 505 l 30 416 l 122 445 l 122 0 l 714 0 l 714 109 l 245 109 l 245 484 l 430 543 "},"ł":{"ha":329,"x_min":-2,"x_max":331,"o":"m 331 545 l 331 631 l 223 590 l 223 1010 l 107 1010 l 107 546 l -2 505 l -2 418 l 107 459 l 107 0 l 223 0 l 223 504 l 331 545 "},"Ń":{"ha":1046,"x_min":122,"x_max":923,"o":"m 923 0 l 923 1010 l 803 1010 l 803 215 l 793 215 l 241 1010 l 122 1010 l 122 0 l 245 0 l 245 793 l 254 793 l 805 0 l 923 0 m 590 1342 l 470 1113 l 572 1113 l 726 1342 l 590 1342 "},"ń":{"ha":813,"x_min":107,"x_max":706,"o":"m 223 0 l 223 456 q 237 544 223 506 q 278 609 252 582 q 339 649 304 635 q 416 663 374 663 q 489 650 457 663 q 544 613 521 637 q 578 553 566 588 q 590 473 590 518 l 590 0 l 706 0 l 706 481 q 688 608 706 554 q 636 697 669 661 q 555 750 602 732 q 450 767 508 767 q 372 758 407 767 q 310 732 337 749 q 262 692 283 715 q 229 639 242 668 l 219 639 l 219 758 l 107 758 l 107 0 l 223 0 m 473 1089 l 353 860 l 456 860 l 610 1089 l 473 1089 "},"Ņ":{"ha":1046,"x_min":122,"x_max":923,"o":"m 923 0 l 923 1010 l 803 1010 l 803 215 l 793 215 l 241 1010 l 122 1010 l 122 0 l 245 0 l 245 793 l 254 793 l 805 0 l 923 0 m 463 -80 l 407 -335 l 498 -335 l 582 -80 l 463 -80 "},"ņ":{"ha":813,"x_min":107,"x_max":706,"o":"m 223 0 l 223 456 q 237 544 223 506 q 278 609 252 582 q 339 649 304 635 q 416 663 374 663 q 489 650 457 663 q 544 613 521 637 q 578 553 566 588 q 590 473 590 518 l 590 0 l 706 0 l 706 481 q 688 608 706 554 q 636 697 669 661 q 555 750 602 732 q 450 767 508 767 q 372 758 407 767 q 310 732 337 749 q 262 692 283 715 q 229 639 242 668 l 219 639 l 219 758 l 107 758 l 107 0 l 223 0 m 346 -80 l 291 -335 l 382 -335 l 466 -80 l 346 -80 "},"Ň":{"ha":1046,"x_min":122,"x_max":923,"o":"m 923 0 l 923 1010 l 803 1010 l 803 215 l 793 215 l 241 1010 l 122 1010 l 122 0 l 245 0 l 245 793 l 254 793 l 805 0 l 923 0 m 523 1176 l 420 1314 l 310 1314 l 310 1306 l 470 1101 l 576 1101 l 736 1306 l 736 1314 l 625 1314 l 523 1176 "},"ň":{"ha":813,"x_min":107,"x_max":706,"o":"m 223 0 l 223 456 q 237 544 223 506 q 278 609 252 582 q 339 649 304 635 q 416 663 374 663 q 489 650 457 663 q 544 613 521 637 q 578 553 566 588 q 590 473 590 518 l 590 0 l 706 0 l 706 481 q 688 608 706 554 q 636 697 669 661 q 555 750 602 732 q 450 767 508 767 q 372 758 407 767 q 310 732 337 749 q 262 692 283 715 q 229 639 242 668 l 219 639 l 219 758 l 107 758 l 107 0 l 223 0 m 406 923 l 304 1061 l 193 1061 l 193 1054 l 353 848 l 460 848 l 619 1054 l 619 1061 l 509 1061 l 406 923 "},"Ŋ":{"ha":1046,"x_min":122,"x_max":923,"o":"m 254 793 l 805 0 l 805 -79 q 796 -128 805 -109 q 772 -160 788 -148 q 737 -177 757 -172 q 692 -182 716 -182 q 672 -180 682 -182 q 655 -178 662 -179 l 655 -278 q 686 -283 668 -283 q 722 -284 704 -284 q 800 -271 763 -284 q 864 -232 837 -257 q 908 -168 892 -206 q 923 -81 923 -130 l 923 1010 l 803 1010 l 803 215 l 793 215 l 241 1010 l 122 1010 l 122 0 l 245 0 l 245 793 l 254 793 "},"ŋ":{"ha":813,"x_min":107,"x_max":706,"o":"m 223 0 l 223 456 q 237 544 223 506 q 278 609 252 582 q 339 649 304 635 q 416 663 374 663 q 489 650 457 663 q 544 613 521 637 q 578 553 566 588 q 590 473 590 518 l 590 -81 q 581 -130 590 -110 q 558 -162 573 -150 q 523 -179 544 -174 q 479 -183 503 -183 q 459 -182 469 -183 q 442 -180 449 -181 l 442 -278 q 473 -283 455 -283 q 509 -284 491 -284 q 586 -271 550 -284 q 649 -232 622 -257 q 691 -168 676 -206 q 706 -81 706 -130 l 706 481 q 688 608 706 554 q 636 697 669 661 q 555 750 602 732 q 450 767 508 767 q 372 758 407 767 q 310 732 337 749 q 262 692 283 715 q 229 639 242 668 l 219 639 l 219 758 l 107 758 l 107 0 l 223 0 "},"Ō":{"ha":1057,"x_min":83,"x_max":975,"o":"m 975 505 q 941 721 975 625 q 849 885 908 817 q 708 988 789 952 q 529 1024 626 1024 q 406 1008 464 1024 q 298 960 348 991 q 209 884 249 929 q 141 782 169 839 q 98 654 113 724 q 83 505 83 585 q 98 356 83 425 q 141 228 113 286 q 209 126 169 171 q 298 50 249 81 q 406 2 348 19 q 529 -14 464 -14 q 708 22 626 -14 q 849 126 789 59 q 941 289 908 193 q 975 505 975 385 m 856 505 q 831 331 856 407 q 761 204 805 255 q 657 127 717 153 q 529 101 598 101 q 400 127 460 101 q 296 204 340 153 q 227 331 252 255 q 201 505 201 407 q 227 679 201 604 q 296 806 252 755 q 400 883 340 857 q 529 909 460 909 q 657 883 598 909 q 761 806 717 857 q 831 679 805 755 q 856 505 856 604 m 760 1164 l 760 1263 l 298 1263 l 298 1164 l 760 1164 "},"ō":{"ha":829,"x_min":71,"x_max":758,"o":"m 414 -16 q 555 12 491 -16 q 663 91 618 40 q 733 215 708 143 q 758 375 758 287 q 733 536 758 464 q 663 660 708 609 q 555 739 618 711 q 414 767 491 767 q 274 739 337 767 q 166 660 211 711 q 96 536 121 609 q 71 375 71 464 q 96 215 71 287 q 166 91 121 143 q 274 12 211 40 q 414 -16 337 -16 m 414 89 q 313 112 356 89 q 242 175 270 136 q 201 266 215 214 q 187 375 187 318 q 201 484 187 432 q 242 576 215 536 q 313 639 270 616 q 414 663 356 663 q 516 639 473 663 q 586 576 558 616 q 628 484 614 536 q 641 375 641 432 q 628 266 641 318 q 586 175 614 214 q 516 112 558 136 q 414 89 473 89 m 645 911 l 645 1010 l 183 1010 l 183 911 l 645 911 "},"Ŏ":{"ha":1057,"x_min":83,"x_max":975,"o":"m 975 505 q 941 721 975 625 q 849 885 908 817 q 708 988 789 952 q 529 1024 626 1024 q 406 1008 464 1024 q 298 960 348 991 q 209 884 249 929 q 141 782 169 839 q 98 654 113 724 q 83 505 83 585 q 98 356 83 425 q 141 228 113 286 q 209 126 169 171 q 298 50 249 81 q 406 2 348 19 q 529 -14 464 -14 q 708 22 626 -14 q 849 126 789 59 q 941 289 908 193 q 975 505 975 385 m 856 505 q 831 331 856 407 q 761 204 805 255 q 657 127 717 153 q 529 101 598 101 q 400 127 460 101 q 296 204 340 153 q 227 331 252 255 q 201 505 201 407 q 227 679 201 604 q 296 806 252 755 q 400 883 340 857 q 529 909 460 909 q 657 883 598 909 q 761 806 717 857 q 831 679 805 755 q 856 505 856 604 m 734 1263 l 625 1263 q 620 1226 625 1243 q 603 1195 615 1208 q 573 1174 591 1182 q 529 1166 555 1166 q 485 1174 503 1166 q 455 1195 467 1182 q 439 1226 444 1208 q 434 1263 434 1243 l 326 1263 q 340 1189 326 1223 q 381 1132 354 1156 q 445 1094 407 1108 q 529 1081 482 1081 q 614 1094 576 1081 q 679 1132 652 1108 q 720 1189 705 1156 q 734 1263 734 1223 "},"ŏ":{"ha":829,"x_min":71,"x_max":758,"o":"m 414 -16 q 555 12 491 -16 q 663 91 618 40 q 733 215 708 143 q 758 375 758 287 q 733 536 758 464 q 663 660 708 609 q 555 739 618 711 q 414 767 491 767 q 274 739 337 767 q 166 660 211 711 q 96 536 121 609 q 71 375 71 464 q 96 215 71 287 q 166 91 121 143 q 274 12 211 40 q 414 -16 337 -16 m 414 89 q 313 112 356 89 q 242 175 270 136 q 201 266 215 214 q 187 375 187 318 q 201 484 187 432 q 242 576 215 536 q 313 639 270 616 q 414 663 356 663 q 516 639 473 663 q 586 576 558 616 q 628 484 614 536 q 641 375 641 432 q 628 266 641 318 q 586 175 614 214 q 516 112 558 136 q 414 89 473 89 m 619 1010 l 511 1010 q 506 973 511 991 q 489 943 500 956 q 459 921 477 929 q 414 913 440 913 q 370 921 389 913 q 341 943 352 929 q 325 973 330 956 q 320 1010 320 991 l 211 1010 q 225 937 211 970 q 266 879 240 904 q 330 842 292 855 q 414 829 368 829 q 500 842 462 829 q 564 879 538 855 q 605 937 591 904 q 619 1010 619 970 "},"Ő":{"ha":1057,"x_min":83,"x_max":975,"o":"m 975 505 q 941 721 975 625 q 849 885 908 817 q 708 988 789 952 q 529 1024 626 1024 q 406 1008 464 1024 q 298 960 348 991 q 209 884 249 929 q 141 782 169 839 q 98 654 113 724 q 83 505 83 585 q 98 356 83 425 q 141 228 113 286 q 209 126 169 171 q 298 50 249 81 q 406 2 348 19 q 529 -14 464 -14 q 708 22 626 -14 q 849 126 789 59 q 941 289 908 193 q 975 505 975 385 m 856 505 q 831 331 856 407 q 761 204 805 255 q 657 127 717 153 q 529 101 598 101 q 400 127 460 101 q 296 204 340 153 q 227 331 252 255 q 201 505 201 407 q 227 679 201 604 q 296 806 252 755 q 400 883 340 857 q 529 909 460 909 q 657 883 598 909 q 761 806 717 857 q 831 679 805 755 q 856 505 856 604 m 710 1302 l 558 1093 l 661 1093 l 840 1302 l 710 1302 m 466 1302 l 355 1093 l 448 1093 l 594 1302 l 466 1302 "},"ő":{"ha":829,"x_min":71,"x_max":758,"o":"m 414 -16 q 555 12 491 -16 q 663 91 618 40 q 733 215 708 143 q 758 375 758 287 q 733 536 758 464 q 663 660 708 609 q 555 739 618 711 q 414 767 491 767 q 274 739 337 767 q 166 660 211 711 q 96 536 121 609 q 71 375 71 464 q 96 215 71 287 q 166 91 121 143 q 274 12 211 40 q 414 -16 337 -16 m 414 89 q 313 112 356 89 q 242 175 270 136 q 201 266 215 214 q 187 375 187 318 q 201 484 187 432 q 242 576 215 536 q 313 639 270 616 q 414 663 356 663 q 516 639 473 663 q 586 576 558 616 q 628 484 614 536 q 641 375 641 432 q 628 266 641 318 q 586 175 614 214 q 516 112 558 136 q 414 89 473 89 m 596 1050 l 444 840 l 546 840 l 726 1050 l 596 1050 m 351 1050 l 241 840 l 333 840 l 479 1050 l 351 1050 "},"Œ":{"ha":1324,"x_min":83,"x_max":1233,"o":"m 529 0 l 1233 0 l 1233 109 l 738 109 l 738 452 l 1194 452 l 1194 560 l 738 560 l 738 902 l 1225 902 l 1225 1010 l 529 1010 q 347 974 429 1010 q 206 872 264 938 q 115 712 147 805 q 83 505 83 619 q 115 299 83 392 q 206 139 147 206 q 347 36 264 73 q 529 0 429 0 m 616 902 l 616 109 l 529 109 q 395 137 456 109 q 292 218 335 166 q 225 343 249 270 q 201 505 201 416 q 225 668 201 595 q 292 793 249 741 q 395 873 335 845 q 529 902 456 902 l 616 902 "},"œ":{"ha":1375,"x_min":71,"x_max":1308,"o":"m 414 -16 q 581 25 509 -16 q 699 141 654 67 q 818 25 744 67 q 994 -16 893 -16 q 1101 -2 1052 -16 q 1190 37 1151 12 q 1256 97 1229 62 q 1296 176 1283 133 l 1184 207 q 1112 118 1162 148 q 994 89 1063 89 q 901 105 943 89 q 827 153 858 121 q 778 232 796 185 q 758 339 760 279 l 1308 339 l 1308 389 q 1295 515 1308 459 q 1259 612 1282 570 q 1204 684 1235 654 q 1137 732 1173 713 q 1061 759 1101 751 q 982 767 1022 767 q 894 757 936 767 q 817 725 852 746 q 751 675 781 705 q 700 609 722 646 q 648 676 678 646 q 582 726 618 705 q 504 757 546 746 q 414 767 462 767 q 274 739 337 767 q 166 660 211 711 q 96 536 121 609 q 71 375 71 464 q 96 215 71 287 q 166 91 121 143 q 274 12 211 40 q 414 -16 337 -16 m 414 89 q 313 112 356 89 q 242 175 270 136 q 201 266 215 214 q 187 375 187 318 q 201 484 187 432 q 242 576 215 536 q 313 639 270 616 q 414 663 356 663 q 516 639 473 663 q 586 576 558 616 q 628 484 614 536 q 641 375 641 432 q 628 266 641 318 q 586 175 614 214 q 516 112 558 136 q 414 89 473 89 m 1190 440 l 758 440 q 778 525 761 484 q 823 596 795 565 q 892 645 852 626 q 982 663 933 663 q 1068 646 1030 663 q 1133 600 1106 629 q 1175 529 1161 570 q 1190 440 1190 488 "},"Ŕ":{"ha":888,"x_min":122,"x_max":846,"o":"m 122 1010 l 122 0 l 245 0 l 245 395 l 466 395 q 479 395 472 395 q 491 395 485 395 l 704 0 l 846 0 l 618 417 q 702 461 666 434 q 761 525 737 489 q 796 606 784 561 q 807 700 807 650 q 787 824 807 767 q 724 922 766 881 q 617 987 682 964 q 464 1010 552 1010 l 122 1010 m 462 505 l 245 505 l 245 902 l 460 902 q 564 887 521 902 q 635 847 607 873 q 674 783 662 820 q 687 700 687 746 q 674 619 687 655 q 635 557 662 582 q 565 519 608 532 q 462 505 522 505 m 505 1342 l 385 1113 l 487 1113 l 641 1342 l 505 1342 "},"ŕ":{"ha":517,"x_min":107,"x_max":489,"o":"m 107 758 l 107 0 l 223 0 l 223 479 q 237 550 223 518 q 277 607 252 583 q 338 644 303 630 q 414 657 373 657 q 437 656 426 657 q 458 654 449 655 q 475 651 468 653 q 485 649 482 650 l 485 767 q 472 768 480 768 q 456 769 465 768 q 439 769 448 769 q 424 769 431 769 q 359 760 390 769 q 302 734 328 751 q 257 694 276 718 q 227 643 237 671 l 219 643 l 219 758 l 107 758 m 353 1089 l 233 860 l 335 860 l 489 1089 l 353 1089 "},"Ŗ":{"ha":888,"x_min":122,"x_max":846,"o":"m 122 1010 l 122 0 l 245 0 l 245 395 l 466 395 q 479 395 472 395 q 491 395 485 395 l 704 0 l 846 0 l 618 417 q 702 461 666 434 q 761 525 737 489 q 796 606 784 561 q 807 700 807 650 q 787 824 807 767 q 724 922 766 881 q 617 987 682 964 q 464 1010 552 1010 l 122 1010 m 462 505 l 245 505 l 245 902 l 460 902 q 564 887 521 902 q 635 847 607 873 q 674 783 662 820 q 687 700 687 746 q 674 619 687 655 q 635 557 662 582 q 565 519 608 532 q 462 505 522 505 m 396 -80 l 340 -335 l 431 -335 l 515 -80 l 396 -80 "},"ŗ":{"ha":517,"x_min":48,"x_max":485,"o":"m 107 758 l 107 0 l 223 0 l 223 479 q 237 550 223 518 q 277 607 252 583 q 338 644 303 630 q 414 657 373 657 q 437 656 426 657 q 458 654 449 655 q 475 651 468 653 q 485 649 482 650 l 485 767 q 472 768 480 768 q 456 769 465 768 q 439 769 448 769 q 424 769 431 769 q 359 760 390 769 q 302 734 328 751 q 257 694 276 718 q 227 643 237 671 l 219 643 l 219 758 l 107 758 m 104 -80 l 48 -335 l 139 -335 l 223 -80 l 104 -80 "},"Ř":{"ha":888,"x_min":122,"x_max":846,"o":"m 122 1010 l 122 0 l 245 0 l 245 395 l 466 395 q 479 395 472 395 q 491 395 485 395 l 704 0 l 846 0 l 618 417 q 702 461 666 434 q 761 525 737 489 q 796 606 784 561 q 807 700 807 650 q 787 824 807 767 q 724 922 766 881 q 617 987 682 964 q 464 1010 552 1010 l 122 1010 m 462 505 l 245 505 l 245 902 l 460 902 q 564 887 521 902 q 635 847 607 873 q 674 783 662 820 q 687 700 687 746 q 674 619 687 655 q 635 557 662 582 q 565 519 608 532 q 462 505 522 505 m 438 1176 l 335 1314 l 225 1314 l 225 1306 l 385 1101 l 491 1101 l 651 1306 l 651 1314 l 541 1314 l 438 1176 "},"ř":{"ha":517,"x_min":73,"x_max":499,"o":"m 107 758 l 107 0 l 223 0 l 223 479 q 237 550 223 518 q 277 607 252 583 q 338 644 303 630 q 414 657 373 657 q 437 656 426 657 q 458 654 449 655 q 475 651 468 653 q 485 649 482 650 l 485 767 q 472 768 480 768 q 456 769 465 768 q 439 769 448 769 q 424 769 431 769 q 359 760 390 769 q 302 734 328 751 q 257 694 276 718 q 227 643 237 671 l 219 643 l 219 758 l 107 758 m 286 923 l 183 1061 l 73 1061 l 73 1054 l 233 848 l 339 848 l 499 1054 l 499 1061 l 389 1061 l 286 923 "},"Ś":{"ha":886,"x_min":79,"x_max":807,"o":"m 675 758 l 793 758 q 765 864 791 815 q 694 948 739 912 q 587 1004 649 983 q 452 1024 525 1024 q 316 1004 379 1024 q 207 946 254 983 q 133 857 160 909 q 107 742 107 805 q 125 650 107 691 q 176 577 143 609 q 256 521 209 545 q 363 479 304 497 l 487 444 q 564 419 527 433 q 628 387 600 406 q 672 341 655 367 q 689 276 689 314 q 670 201 689 235 q 618 143 651 167 q 540 106 584 119 q 442 93 495 93 q 356 103 397 93 q 282 134 314 113 q 230 186 250 154 q 205 260 209 218 l 79 260 q 110 147 83 198 q 184 59 137 96 q 295 2 230 23 q 442 -18 361 -18 q 597 5 529 -18 q 712 67 665 28 q 783 160 759 106 q 807 274 807 213 q 793 359 807 322 q 756 424 779 396 q 704 474 733 453 q 643 510 675 495 q 580 535 612 525 q 523 552 549 545 l 420 580 q 380 592 401 585 q 336 608 358 599 q 294 631 315 618 q 259 660 274 644 q 234 699 244 677 q 225 748 225 721 q 241 815 225 784 q 286 868 257 845 q 356 903 315 890 q 448 915 398 915 q 533 905 494 915 q 603 874 573 894 q 652 824 633 854 q 675 758 670 795 m 509 1342 l 389 1113 l 491 1113 l 645 1342 l 509 1342 "},"ś":{"ha":726,"x_min":73,"x_max":657,"o":"m 539 558 l 643 588 q 607 661 629 628 q 552 718 584 694 q 475 755 519 742 q 375 767 431 767 q 264 751 315 767 q 176 706 213 735 q 118 637 139 677 q 97 548 97 597 q 145 418 97 470 q 298 341 194 366 l 424 312 q 509 272 482 298 q 537 205 537 245 q 524 159 537 181 q 489 122 511 138 q 433 96 466 106 q 359 87 400 87 q 243 117 287 87 q 183 209 199 147 l 73 182 q 108 96 83 133 q 169 35 132 60 q 254 -3 206 10 q 361 -16 303 -16 q 482 1 427 -16 q 575 49 536 18 q 636 121 614 79 q 657 211 657 162 q 607 341 657 291 q 456 416 557 392 l 343 444 q 285 462 310 452 q 244 486 260 472 q 221 516 228 499 q 213 554 213 533 q 225 600 213 579 q 259 635 238 620 q 310 658 281 650 q 375 667 340 667 q 440 657 413 667 q 487 632 468 648 q 519 597 507 617 q 539 558 531 578 m 442 1089 l 322 860 l 424 860 l 578 1089 l 442 1089 "},"Ŝ":{"ha":886,"x_min":79,"x_max":807,"o":"m 675 758 l 793 758 q 765 864 791 815 q 694 948 739 912 q 587 1004 649 983 q 452 1024 525 1024 q 316 1004 379 1024 q 207 946 254 983 q 133 857 160 909 q 107 742 107 805 q 125 650 107 691 q 176 577 143 609 q 256 521 209 545 q 363 479 304 497 l 487 444 q 564 419 527 433 q 628 387 600 406 q 672 341 655 367 q 689 276 689 314 q 670 201 689 235 q 618 143 651 167 q 540 106 584 119 q 442 93 495 93 q 356 103 397 93 q 282 134 314 113 q 230 186 250 154 q 205 260 209 218 l 79 260 q 110 147 83 198 q 184 59 137 96 q 295 2 230 23 q 442 -18 361 -18 q 597 5 529 -18 q 712 67 665 28 q 783 160 759 106 q 807 274 807 213 q 793 359 807 322 q 756 424 779 396 q 704 474 733 453 q 643 510 675 495 q 580 535 612 525 q 523 552 549 545 l 420 580 q 380 592 401 585 q 336 608 358 599 q 294 631 315 618 q 259 660 274 644 q 234 699 244 677 q 225 748 225 721 q 241 815 225 784 q 286 868 257 845 q 356 903 315 890 q 448 915 398 915 q 533 905 494 915 q 603 874 573 894 q 652 824 633 854 q 675 758 670 795 m 442 1239 l 545 1101 l 655 1101 l 655 1109 l 495 1314 l 389 1314 l 229 1109 l 229 1101 l 339 1101 l 442 1239 "},"ŝ":{"ha":726,"x_min":73,"x_max":657,"o":"m 539 558 l 643 588 q 607 661 629 628 q 552 718 584 694 q 475 755 519 742 q 375 767 431 767 q 264 751 315 767 q 176 706 213 735 q 118 637 139 677 q 97 548 97 597 q 145 418 97 470 q 298 341 194 366 l 424 312 q 509 272 482 298 q 537 205 537 245 q 524 159 537 181 q 489 122 511 138 q 433 96 466 106 q 359 87 400 87 q 243 117 287 87 q 183 209 199 147 l 73 182 q 108 96 83 133 q 169 35 132 60 q 254 -3 206 10 q 361 -16 303 -16 q 482 1 427 -16 q 575 49 536 18 q 636 121 614 79 q 657 211 657 162 q 607 341 657 291 q 456 416 557 392 l 343 444 q 285 462 310 452 q 244 486 260 472 q 221 516 228 499 q 213 554 213 533 q 225 600 213 579 q 259 635 238 620 q 310 658 281 650 q 375 667 340 667 q 440 657 413 667 q 487 632 468 648 q 519 597 507 617 q 539 558 531 578 m 375 986 l 477 848 l 588 848 l 588 856 l 428 1061 l 322 1061 l 162 856 l 162 848 l 272 848 l 375 986 "},"Ş":{"ha":886,"x_min":79,"x_max":807,"o":"m 675 758 l 793 758 q 765 864 791 815 q 694 948 739 912 q 587 1004 649 983 q 452 1024 525 1024 q 316 1004 379 1024 q 207 946 254 983 q 133 857 160 909 q 107 742 107 805 q 125 650 107 691 q 176 577 143 609 q 256 521 209 545 q 363 479 304 497 l 487 444 q 564 419 527 433 q 628 387 600 406 q 672 341 655 367 q 689 276 689 314 q 670 201 689 235 q 618 143 651 167 q 540 106 584 119 q 442 93 495 93 q 356 103 397 93 q 282 134 314 113 q 230 186 250 154 q 205 260 209 218 l 79 260 q 106 156 83 204 q 168 72 129 108 q 264 14 208 36 q 389 -15 319 -9 l 373 -93 q 421 -99 401 -95 q 454 -109 441 -103 q 473 -128 467 -116 q 479 -156 479 -139 q 471 -185 479 -173 q 449 -204 463 -197 q 416 -216 435 -212 q 373 -219 396 -219 l 377 -296 q 467 -285 428 -296 q 531 -256 506 -275 q 571 -210 557 -237 q 584 -152 584 -184 q 575 -103 584 -123 q 552 -68 566 -82 q 519 -46 538 -54 q 481 -36 501 -38 l 485 -16 q 622 14 562 -11 q 723 77 682 38 q 786 166 764 116 q 807 274 807 217 q 793 359 807 322 q 756 424 779 396 q 704 474 733 453 q 643 510 675 495 q 580 535 612 525 q 523 552 549 545 l 420 580 q 380 592 401 585 q 336 608 358 599 q 294 631 315 618 q 259 660 274 644 q 234 699 244 677 q 225 748 225 721 q 241 815 225 784 q 286 868 257 845 q 356 903 315 890 q 448 915 398 915 q 533 905 494 915 q 603 874 573 894 q 652 824 633 854 q 675 758 670 795 "},"ş":{"ha":726,"x_min":73,"x_max":657,"o":"m 539 558 l 643 588 q 607 661 629 628 q 552 718 584 694 q 475 755 519 742 q 375 767 431 767 q 264 751 315 767 q 176 706 213 735 q 118 637 139 677 q 97 548 97 597 q 145 418 97 470 q 298 341 194 366 l 424 312 q 509 272 482 298 q 537 205 537 245 q 524 159 537 181 q 489 122 511 138 q 433 96 466 106 q 359 87 400 87 q 243 117 287 87 q 183 209 199 147 l 73 182 q 103 104 82 138 q 154 45 123 70 q 225 6 185 21 q 314 -13 266 -9 l 298 -93 q 346 -99 326 -95 q 379 -109 366 -103 q 398 -128 392 -116 q 404 -156 404 -139 q 396 -185 404 -173 q 374 -204 388 -197 q 341 -216 360 -212 q 298 -219 321 -219 l 302 -296 q 392 -285 353 -296 q 456 -256 431 -275 q 496 -210 482 -237 q 509 -152 509 -184 q 500 -103 509 -123 q 477 -68 491 -82 q 444 -46 463 -54 q 406 -36 426 -38 l 411 -13 q 512 12 467 -7 q 590 61 557 32 q 639 128 622 90 q 657 211 657 167 q 607 341 657 291 q 456 416 557 392 l 343 444 q 285 462 310 452 q 244 486 260 472 q 221 516 228 499 q 213 554 213 533 q 225 600 213 579 q 259 635 238 620 q 310 658 281 650 q 375 667 340 667 q 440 657 413 667 q 487 632 468 648 q 519 597 507 617 q 539 558 531 578 "},"Š":{"ha":886,"x_min":79,"x_max":807,"o":"m 675 758 l 793 758 q 765 864 791 815 q 694 948 739 912 q 587 1004 649 983 q 452 1024 525 1024 q 316 1004 379 1024 q 207 946 254 983 q 133 857 160 909 q 107 742 107 805 q 125 650 107 691 q 176 577 143 609 q 256 521 209 545 q 363 479 304 497 l 487 444 q 564 419 527 433 q 628 387 600 406 q 672 341 655 367 q 689 276 689 314 q 670 201 689 235 q 618 143 651 167 q 540 106 584 119 q 442 93 495 93 q 356 103 397 93 q 282 134 314 113 q 230 186 250 154 q 205 260 209 218 l 79 260 q 110 147 83 198 q 184 59 137 96 q 295 2 230 23 q 442 -18 361 -18 q 597 5 529 -18 q 712 67 665 28 q 783 160 759 106 q 807 274 807 213 q 793 359 807 322 q 756 424 779 396 q 704 474 733 453 q 643 510 675 495 q 580 535 612 525 q 523 552 549 545 l 420 580 q 380 592 401 585 q 336 608 358 599 q 294 631 315 618 q 259 660 274 644 q 234 699 244 677 q 225 748 225 721 q 241 815 225 784 q 286 868 257 845 q 356 903 315 890 q 448 915 398 915 q 533 905 494 915 q 603 874 573 894 q 652 824 633 854 q 675 758 670 795 m 442 1176 l 339 1314 l 229 1314 l 229 1306 l 389 1101 l 495 1101 l 655 1306 l 655 1314 l 545 1314 l 442 1176 "},"š":{"ha":726,"x_min":73,"x_max":657,"o":"m 539 558 l 643 588 q 607 661 629 628 q 552 718 584 694 q 475 755 519 742 q 375 767 431 767 q 264 751 315 767 q 176 706 213 735 q 118 637 139 677 q 97 548 97 597 q 145 418 97 470 q 298 341 194 366 l 424 312 q 509 272 482 298 q 537 205 537 245 q 524 159 537 181 q 489 122 511 138 q 433 96 466 106 q 359 87 400 87 q 243 117 287 87 q 183 209 199 147 l 73 182 q 108 96 83 133 q 169 35 132 60 q 254 -3 206 10 q 361 -16 303 -16 q 482 1 427 -16 q 575 49 536 18 q 636 121 614 79 q 657 211 657 162 q 607 341 657 291 q 456 416 557 392 l 343 444 q 285 462 310 452 q 244 486 260 472 q 221 516 228 499 q 213 554 213 533 q 225 600 213 579 q 259 635 238 620 q 310 658 281 650 q 375 667 340 667 q 440 657 413 667 q 487 632 468 648 q 519 597 507 617 q 539 558 531 578 m 375 923 l 272 1061 l 162 1061 l 162 1054 l 322 848 l 428 848 l 588 1054 l 588 1061 l 477 1061 l 375 923 "},"Ţ":{"ha":892,"x_min":67,"x_max":825,"o":"m 67 1010 l 67 902 l 385 902 l 385 0 l 409 0 l 391 -93 q 439 -99 419 -95 q 472 -109 459 -103 q 491 -128 485 -116 q 497 -156 497 -139 q 489 -185 497 -173 q 467 -204 481 -197 q 433 -216 453 -212 q 391 -219 414 -219 l 395 -296 q 485 -285 446 -296 q 549 -256 523 -275 q 588 -210 575 -237 q 602 -152 602 -184 q 593 -103 602 -123 q 570 -68 584 -82 q 537 -46 555 -54 q 499 -36 518 -38 l 506 0 l 507 0 l 507 902 l 825 902 l 825 1010 l 67 1010 "},"ţ":{"ha":505,"x_min":43,"x_max":479,"o":"m 436 659 l 436 758 l 274 758 l 274 939 l 158 939 l 158 758 l 43 758 l 43 659 l 158 659 l 158 185 q 168 119 158 148 q 196 66 179 89 q 237 28 214 43 q 288 2 261 12 l 268 -93 q 317 -99 296 -95 q 350 -109 337 -103 q 369 -128 363 -116 q 375 -156 375 -139 q 367 -185 375 -173 q 345 -204 359 -197 q 311 -216 330 -212 q 268 -219 291 -219 l 272 -296 q 362 -285 324 -296 q 427 -256 401 -275 q 466 -210 453 -237 q 479 -152 479 -184 q 471 -103 479 -123 q 447 -68 462 -82 q 415 -46 433 -54 q 377 -36 396 -38 l 382 -9 q 423 -4 407 -8 q 450 4 440 0 l 426 109 q 406 105 419 107 q 375 103 394 103 q 338 107 356 103 q 306 123 320 110 q 283 158 291 135 q 274 217 274 180 l 274 659 l 436 659 "},"Ť":{"ha":892,"x_min":67,"x_max":825,"o":"m 67 1010 l 67 902 l 385 902 l 385 0 l 507 0 l 507 902 l 825 902 l 825 1010 l 67 1010 m 446 1176 l 343 1314 l 233 1314 l 233 1306 l 393 1101 l 499 1101 l 659 1306 l 659 1314 l 548 1314 l 446 1176 "},"ť":{"ha":505,"x_min":43,"x_max":477,"o":"m 436 659 l 436 758 l 274 758 l 274 939 l 158 939 l 158 758 l 43 758 l 43 659 l 158 659 l 158 185 q 176 99 158 136 q 223 38 194 63 q 289 2 253 14 q 363 -10 326 -10 q 417 -5 396 -10 q 450 4 438 0 l 426 109 q 406 105 419 107 q 375 103 394 103 q 338 107 356 103 q 306 123 320 110 q 283 158 291 135 q 274 217 274 180 l 274 659 l 436 659 m 358 1107 l 358 851 l 443 851 l 477 1107 l 358 1107 "},"Ŧ":{"ha":892,"x_min":67,"x_max":825,"o":"m 67 1010 l 67 902 l 385 902 l 385 566 l 229 566 l 229 475 l 385 475 l 385 0 l 507 0 l 507 475 l 663 475 l 663 566 l 507 566 l 507 902 l 825 902 l 825 1010 l 67 1010 "},"ŧ":{"ha":505,"x_min":43,"x_max":450,"o":"m 43 505 l 43 414 l 158 414 l 158 185 q 176 99 158 136 q 223 38 194 63 q 289 2 253 14 q 363 -10 326 -10 q 417 -5 396 -10 q 450 4 438 0 l 426 109 q 406 105 419 107 q 375 103 394 103 q 338 107 356 103 q 306 123 320 110 q 283 158 291 135 q 274 217 274 180 l 274 414 l 436 414 l 436 505 l 274 505 l 274 659 l 436 659 l 436 758 l 274 758 l 274 939 l 158 939 l 158 758 l 43 758 l 43 659 l 158 659 l 158 505 l 43 505 "},"Ũ":{"ha":1030,"x_min":122,"x_max":908,"o":"m 908 1010 l 785 1010 l 785 351 q 767 249 785 296 q 713 168 748 202 q 628 116 679 135 q 515 97 578 97 q 401 116 452 97 q 316 168 351 135 q 263 249 282 202 q 245 351 245 296 l 245 1010 l 122 1010 l 122 341 q 150 198 122 264 q 229 84 178 132 q 353 9 281 36 q 515 -18 426 -18 q 677 9 604 -18 q 800 84 749 36 q 880 198 852 132 q 908 341 908 264 l 908 1010 m 272 1105 l 363 1101 q 368 1130 363 1117 q 382 1154 373 1144 q 402 1170 390 1164 q 428 1176 414 1176 q 461 1171 447 1176 q 488 1160 475 1166 q 512 1144 500 1153 q 537 1129 524 1136 q 568 1117 551 1122 q 608 1113 585 1113 q 667 1125 640 1113 q 714 1158 694 1136 q 746 1211 734 1180 q 758 1280 758 1242 l 669 1288 q 664 1259 669 1273 q 649 1235 658 1245 q 628 1219 640 1225 q 602 1213 616 1213 q 554 1223 575 1213 q 514 1245 534 1233 q 472 1267 494 1257 q 422 1276 450 1276 q 363 1264 391 1276 q 315 1228 335 1251 q 284 1174 295 1205 q 272 1105 272 1143 "},"ũ":{"ha":807,"x_min":107,"x_max":700,"o":"m 584 758 l 584 310 q 566 218 584 256 q 519 153 547 179 q 456 115 490 127 q 389 103 421 103 q 322 115 353 103 q 270 152 291 128 q 235 209 248 176 q 223 284 223 243 l 223 758 l 107 758 l 107 276 q 125 150 107 204 q 176 61 143 96 q 253 8 208 25 q 351 -10 298 -10 q 430 1 394 -10 q 493 30 465 12 q 542 74 521 49 q 576 128 563 100 l 584 128 l 584 0 l 700 0 l 700 758 l 584 758 m 162 852 l 253 848 q 257 878 253 864 q 271 901 262 891 q 292 917 280 911 q 318 923 304 923 q 351 919 336 923 q 377 907 365 914 q 401 892 390 900 q 427 876 413 883 q 457 865 440 870 q 497 860 474 860 q 557 872 529 860 q 604 906 584 884 q 636 958 624 927 q 647 1028 647 989 l 558 1036 q 553 1007 558 1020 q 539 983 548 993 q 518 967 530 973 q 491 961 506 961 q 444 971 465 961 q 403 992 423 981 q 362 1014 383 1004 q 312 1024 340 1024 q 253 1011 280 1024 q 205 976 225 999 q 173 922 185 953 q 162 852 162 890 "},"Ū":{"ha":1030,"x_min":122,"x_max":908,"o":"m 908 1010 l 785 1010 l 785 351 q 767 249 785 296 q 713 168 748 202 q 628 116 679 135 q 515 97 578 97 q 401 116 452 97 q 316 168 351 135 q 263 249 282 202 q 245 351 245 296 l 245 1010 l 122 1010 l 122 341 q 150 198 122 264 q 229 84 178 132 q 353 9 281 36 q 515 -18 426 -18 q 677 9 604 -18 q 800 84 749 36 q 880 198 852 132 q 908 341 908 264 l 908 1010 m 746 1164 l 746 1263 l 284 1263 l 284 1164 l 746 1164 "},"ū":{"ha":807,"x_min":107,"x_max":700,"o":"m 584 758 l 584 310 q 566 218 584 256 q 519 153 547 179 q 456 115 490 127 q 389 103 421 103 q 322 115 353 103 q 270 152 291 128 q 235 209 248 176 q 223 284 223 243 l 223 758 l 107 758 l 107 276 q 125 150 107 204 q 176 61 143 96 q 253 8 208 25 q 351 -10 298 -10 q 430 1 394 -10 q 493 30 465 12 q 542 74 521 49 q 576 128 563 100 l 584 128 l 584 0 l 700 0 l 700 758 l 584 758 m 635 911 l 635 1010 l 174 1010 l 174 911 l 635 911 "},"Ŭ":{"ha":1030,"x_min":122,"x_max":908,"o":"m 908 1010 l 785 1010 l 785 351 q 767 249 785 296 q 713 168 748 202 q 628 116 679 135 q 515 97 578 97 q 401 116 452 97 q 316 168 351 135 q 263 249 282 202 q 245 351 245 296 l 245 1010 l 122 1010 l 122 341 q 150 198 122 264 q 229 84 178 132 q 353 9 281 36 q 515 -18 426 -18 q 677 9 604 -18 q 800 84 749 36 q 880 198 852 132 q 908 341 908 264 l 908 1010 m 720 1263 l 612 1263 q 606 1226 612 1243 q 589 1195 601 1208 q 559 1174 578 1182 q 515 1166 541 1166 q 471 1174 489 1166 q 442 1195 453 1182 q 425 1226 431 1208 q 420 1263 420 1243 l 312 1263 q 326 1189 312 1223 q 367 1132 340 1156 q 431 1094 393 1108 q 515 1081 469 1081 q 600 1094 562 1081 q 665 1132 638 1108 q 706 1189 691 1156 q 720 1263 720 1223 "},"ŭ":{"ha":807,"x_min":107,"x_max":700,"o":"m 584 758 l 584 310 q 566 218 584 256 q 519 153 547 179 q 456 115 490 127 q 389 103 421 103 q 322 115 353 103 q 270 152 291 128 q 235 209 248 176 q 223 284 223 243 l 223 758 l 107 758 l 107 276 q 125 150 107 204 q 176 61 143 96 q 253 8 208 25 q 351 -10 298 -10 q 430 1 394 -10 q 493 30 465 12 q 542 74 521 49 q 576 128 563 100 l 584 128 l 584 0 l 700 0 l 700 758 l 584 758 m 610 1010 l 501 1010 q 496 973 501 991 q 479 943 490 956 q 449 921 467 929 q 404 913 431 913 q 361 921 379 913 q 331 943 342 929 q 315 973 320 956 q 310 1010 310 991 l 201 1010 q 216 937 201 970 q 256 879 230 904 q 320 842 283 855 q 404 829 358 829 q 490 842 452 829 q 554 879 528 855 q 595 937 581 904 q 610 1010 610 970 "},"Ů":{"ha":1030,"x_min":122,"x_max":908,"o":"m 908 1010 l 785 1010 l 785 351 q 767 249 785 296 q 713 168 748 202 q 628 116 679 135 q 515 97 578 97 q 401 116 452 97 q 316 168 351 135 q 263 249 282 202 q 245 351 245 296 l 245 1010 l 122 1010 l 122 341 q 150 198 122 264 q 229 84 178 132 q 353 9 281 36 q 515 -18 426 -18 q 677 9 604 -18 q 800 84 749 36 q 880 198 852 132 q 908 341 908 264 l 908 1010 m 515 1079 q 571 1090 545 1079 q 616 1121 597 1102 q 647 1166 635 1140 q 658 1222 658 1193 q 647 1278 658 1252 q 616 1323 635 1304 q 571 1354 597 1343 q 515 1365 545 1365 q 459 1354 485 1365 q 414 1323 433 1343 q 383 1278 395 1304 q 372 1222 372 1252 q 383 1166 372 1193 q 414 1121 395 1140 q 459 1090 433 1102 q 515 1079 485 1079 m 515 1150 q 487 1156 500 1150 q 464 1171 473 1162 q 449 1194 455 1181 q 444 1222 444 1207 q 449 1250 444 1237 q 464 1273 455 1264 q 487 1289 473 1283 q 515 1294 500 1294 q 543 1289 530 1294 q 566 1273 556 1283 q 581 1250 575 1264 q 586 1222 586 1237 q 581 1194 586 1207 q 566 1171 575 1181 q 543 1156 556 1162 q 515 1150 530 1150 "},"ů":{"ha":807,"x_min":107,"x_max":700,"o":"m 584 758 l 584 310 q 566 218 584 256 q 519 153 547 179 q 456 115 490 127 q 389 103 421 103 q 322 115 353 103 q 270 152 291 128 q 235 209 248 176 q 223 284 223 243 l 223 758 l 107 758 l 107 276 q 125 150 107 204 q 176 61 143 96 q 253 8 208 25 q 351 -10 298 -10 q 430 1 394 -10 q 493 30 465 12 q 542 74 521 49 q 576 128 563 100 l 584 128 l 584 0 l 700 0 l 700 758 l 584 758 m 404 842 q 475 855 442 842 q 531 891 507 868 q 568 944 555 913 q 582 1010 582 975 q 568 1077 582 1046 q 531 1132 555 1109 q 475 1170 507 1156 q 404 1184 442 1184 q 334 1170 367 1184 q 277 1132 301 1156 q 239 1077 253 1109 q 225 1010 225 1046 q 239 944 225 975 q 277 891 253 913 q 334 855 301 868 q 404 842 367 842 m 404 917 q 366 925 384 917 q 337 946 349 933 q 317 976 324 959 q 310 1010 310 992 q 317 1046 310 1029 q 337 1077 324 1063 q 366 1099 349 1090 q 404 1107 384 1107 q 443 1099 425 1107 q 473 1077 460 1090 q 492 1046 485 1063 q 499 1010 499 1029 q 492 976 499 992 q 473 946 485 959 q 443 925 460 933 q 404 917 425 917 "},"Ű":{"ha":1030,"x_min":122,"x_max":908,"o":"m 908 1010 l 785 1010 l 785 351 q 767 249 785 296 q 713 168 748 202 q 628 116 679 135 q 515 97 578 97 q 401 116 452 97 q 316 168 351 135 q 263 249 282 202 q 245 351 245 296 l 245 1010 l 122 1010 l 122 341 q 150 198 122 264 q 229 84 178 132 q 353 9 281 36 q 515 -18 426 -18 q 677 9 604 -18 q 800 84 749 36 q 880 198 852 132 q 908 341 908 264 l 908 1010 m 696 1302 l 545 1093 l 647 1093 l 827 1302 l 696 1302 m 452 1302 l 341 1093 l 434 1093 l 580 1302 l 452 1302 "},"ű":{"ha":807,"x_min":107,"x_max":716,"o":"m 584 758 l 584 310 q 566 218 584 256 q 519 153 547 179 q 456 115 490 127 q 389 103 421 103 q 322 115 353 103 q 270 152 291 128 q 235 209 248 176 q 223 284 223 243 l 223 758 l 107 758 l 107 276 q 125 150 107 204 q 176 61 143 96 q 253 8 208 25 q 351 -10 298 -10 q 430 1 394 -10 q 493 30 465 12 q 542 74 521 49 q 576 128 563 100 l 584 128 l 584 0 l 700 0 l 700 758 l 584 758 m 586 1050 l 434 840 l 537 840 l 716 1050 l 586 1050 m 341 1050 l 231 840 l 324 840 l 470 1050 l 341 1050 "},"Ų":{"ha":1030,"x_min":122,"x_max":908,"o":"m 908 1010 l 785 1010 l 785 351 q 767 249 785 296 q 713 168 748 202 q 628 116 679 135 q 515 97 578 97 q 401 116 452 97 q 316 168 351 135 q 263 249 282 202 q 245 351 245 296 l 245 1010 l 122 1010 l 122 341 q 146 208 122 270 q 214 100 170 146 q 321 23 258 53 q 461 -15 383 -7 q 398 -88 417 -50 q 379 -164 379 -125 q 389 -220 379 -196 q 418 -261 400 -244 q 463 -286 437 -277 q 519 -294 489 -294 q 581 -284 554 -294 q 623 -264 607 -275 l 616 -178 q 588 -189 605 -183 q 548 -195 571 -195 q 508 -183 519 -195 q 497 -148 497 -170 q 505 -110 497 -128 q 526 -75 512 -92 q 556 -42 539 -58 q 593 -12 574 -27 q 724 30 665 -1 q 823 107 782 61 q 886 213 864 153 q 908 341 908 273 l 908 1010 "},"ų":{"ha":807,"x_min":107,"x_max":712,"o":"m 584 758 l 584 310 q 566 218 584 256 q 519 153 547 179 q 456 115 490 127 q 389 103 421 103 q 322 115 353 103 q 270 152 291 128 q 235 209 248 176 q 223 284 223 243 l 223 758 l 107 758 l 107 276 q 125 150 107 204 q 176 61 143 96 q 253 8 208 25 q 351 -10 298 -10 q 430 1 394 -10 q 493 30 465 12 q 542 74 521 49 q 576 128 563 100 l 584 128 l 584 8 q 531 -33 553 -12 q 494 -76 509 -54 q 474 -121 480 -98 q 468 -166 468 -144 q 478 -222 468 -198 q 507 -263 489 -246 q 552 -288 526 -279 q 608 -296 578 -296 q 670 -286 643 -296 q 712 -266 696 -277 l 704 -180 q 677 -191 694 -185 q 637 -197 659 -197 q 597 -185 608 -197 q 586 -150 586 -172 q 596 -108 586 -128 q 621 -69 605 -88 q 657 -34 637 -51 q 700 0 678 -16 l 700 758 l 584 758 "},"Ŵ":{"ha":1318,"x_min":30,"x_max":1288,"o":"m 30 1010 l 306 0 l 432 0 l 655 805 l 663 805 l 886 0 l 1012 0 l 1288 1010 l 1164 1010 l 953 187 l 943 187 l 728 1010 l 590 1010 l 375 187 l 365 187 l 154 1010 l 30 1010 m 659 1239 l 762 1101 l 872 1101 l 872 1109 l 712 1314 l 606 1314 l 446 1109 l 446 1101 l 556 1101 l 659 1239 "},"ŵ":{"ha":1128,"x_min":47,"x_max":1081,"o":"m 47 758 l 278 0 l 393 0 l 558 582 l 570 582 l 736 0 l 850 0 l 1081 758 l 959 758 l 795 180 l 787 180 l 627 758 l 503 758 l 341 178 l 333 178 l 170 758 l 47 758 m 564 986 l 667 848 l 777 848 l 777 856 l 618 1061 l 511 1061 l 351 856 l 351 848 l 462 848 l 564 986 "},"Ŷ":{"ha":923,"x_min":36,"x_max":888,"o":"m 176 1010 l 36 1010 l 400 416 l 400 0 l 523 0 l 523 416 l 888 1010 l 748 1010 l 468 539 l 456 539 l 176 1010 m 462 1239 l 564 1101 l 675 1101 l 675 1109 l 515 1314 l 408 1314 l 249 1109 l 249 1101 l 359 1101 l 462 1239 "},"ŷ":{"ha":773,"x_min":47,"x_max":726,"o":"m 182 -284 q 316 -242 261 -284 q 404 -110 371 -199 l 726 758 l 600 758 l 391 154 l 383 154 l 174 758 l 47 758 l 327 -4 l 306 -63 q 272 -131 290 -107 q 232 -167 254 -156 q 184 -177 210 -178 q 126 -168 158 -176 l 97 -270 q 129 -279 106 -275 q 182 -284 152 -284 m 387 986 l 489 848 l 600 848 l 600 856 l 440 1061 l 333 1061 l 174 856 l 174 848 l 284 848 l 387 986 "},"Ÿ":{"ha":923,"x_min":36,"x_max":888,"o":"m 176 1010 l 36 1010 l 400 416 l 400 0 l 523 0 l 523 416 l 888 1010 l 748 1010 l 468 539 l 456 539 l 176 1010 m 320 1136 q 351 1143 337 1136 q 376 1160 365 1149 q 393 1186 387 1171 q 399 1215 399 1200 q 393 1247 399 1233 q 376 1272 387 1261 q 351 1288 365 1282 q 320 1294 337 1294 q 290 1288 304 1294 q 265 1272 276 1282 q 247 1247 254 1261 q 241 1215 241 1233 q 247 1186 241 1200 q 265 1160 254 1171 q 290 1143 276 1149 q 320 1136 304 1136 m 604 1136 q 635 1143 621 1136 q 660 1160 650 1149 q 677 1186 671 1171 q 683 1215 683 1200 q 677 1247 683 1233 q 660 1272 671 1261 q 635 1288 650 1282 q 604 1294 621 1294 q 574 1288 588 1294 q 549 1272 560 1282 q 531 1247 538 1261 q 525 1215 525 1233 q 531 1186 525 1200 q 549 1160 538 1171 q 574 1143 560 1149 q 604 1136 588 1136 "},"Ź":{"ha":868,"x_min":83,"x_max":785,"o":"m 89 89 l 89 0 l 785 0 l 785 109 l 235 109 l 779 921 l 779 1010 l 83 1010 l 83 902 l 633 902 l 89 89 m 501 1342 l 381 1113 l 483 1113 l 637 1342 l 501 1342 "},"ź":{"ha":752,"x_min":85,"x_max":679,"o":"m 85 89 l 85 0 l 679 0 l 679 109 l 247 109 l 247 116 l 665 665 l 665 758 l 99 758 l 99 649 l 515 649 l 515 641 l 85 89 m 442 1089 l 322 860 l 424 860 l 578 1089 l 442 1089 "},"Ż":{"ha":868,"x_min":83,"x_max":785,"o":"m 89 89 l 89 0 l 785 0 l 785 109 l 235 109 l 779 921 l 779 1010 l 83 1010 l 83 902 l 633 902 l 89 89 m 434 1136 q 466 1143 451 1136 q 492 1160 481 1149 q 510 1185 504 1170 q 517 1215 517 1199 q 510 1246 517 1232 q 492 1271 504 1260 q 466 1288 481 1282 q 434 1294 451 1294 q 402 1288 417 1294 q 376 1271 387 1282 q 358 1246 364 1260 q 351 1215 351 1232 q 358 1185 351 1199 q 376 1160 364 1170 q 402 1143 387 1149 q 434 1136 417 1136 "},"ż":{"ha":752,"x_min":85,"x_max":679,"o":"m 85 89 l 85 0 l 679 0 l 679 109 l 247 109 l 247 116 l 665 665 l 665 758 l 99 758 l 99 649 l 515 649 l 515 641 l 85 89 m 375 884 q 407 890 392 884 q 433 907 422 896 q 451 932 444 918 q 458 963 458 946 q 451 993 458 979 q 433 1018 444 1008 q 407 1036 422 1029 q 375 1042 392 1042 q 343 1036 358 1042 q 316 1018 327 1029 q 299 993 305 1008 q 292 963 292 979 q 299 932 292 946 q 316 907 305 918 q 343 890 327 896 q 375 884 358 884 "},"Ž":{"ha":868,"x_min":83,"x_max":785,"o":"m 89 89 l 89 0 l 785 0 l 785 109 l 235 109 l 779 921 l 779 1010 l 83 1010 l 83 902 l 633 902 l 89 89 m 434 1176 l 331 1314 l 221 1314 l 221 1306 l 381 1101 l 487 1101 l 647 1306 l 647 1314 l 537 1314 l 434 1176 "},"ž":{"ha":752,"x_min":85,"x_max":679,"o":"m 85 89 l 85 0 l 679 0 l 679 109 l 247 109 l 247 116 l 665 665 l 665 758 l 99 758 l 99 649 l 515 649 l 515 641 l 85 89 m 375 923 l 272 1061 l 162 1061 l 162 1054 l 322 848 l 428 848 l 588 1054 l 588 1061 l 477 1061 l 375 923 "},"ſ":{"ha":371,"x_min":20,"x_max":351,"o":"m 20 0 l 156 0 l 156 810 q 186 912 156 875 q 276 948 217 948 q 335 942 312 948 l 351 1043 q 303 1053 327 1049 q 254 1056 278 1056 q 156 1040 200 1056 q 83 993 113 1024 q 36 916 52 962 q 20 810 20 870 l 20 0 "},"ƀ":{"ha":862,"x_min":-36,"x_max":791,"o":"m 122 823 l 122 0 l 235 0 l 235 116 l 249 116 q 264 92 255 106 q 285 64 272 78 q 314 35 297 49 q 353 9 330 21 q 404 -9 375 -2 q 470 -16 433 -16 q 600 12 541 -16 q 701 91 659 39 q 767 214 744 142 q 791 377 791 287 q 767 539 791 467 q 701 662 744 611 q 599 740 658 713 q 468 767 540 767 q 402 761 431 767 q 351 743 373 754 q 312 717 328 731 q 284 689 296 703 q 263 661 272 674 q 249 637 255 647 l 239 637 l 239 823 l 399 823 l 399 913 l 239 913 l 239 1010 l 122 1010 l 122 913 l -36 913 l -36 823 l 122 823 m 237 379 q 251 495 237 442 q 292 584 265 547 q 360 642 320 622 q 454 663 400 663 q 551 641 509 663 q 620 581 592 619 q 661 491 647 543 q 675 379 675 439 q 661 265 675 318 q 619 173 647 213 q 550 111 591 134 q 454 89 509 89 q 361 110 401 89 q 293 169 320 131 q 251 261 265 208 q 237 379 237 315 "},"Ɓ":{"ha":1115,"x_min":67,"x_max":1036,"o":"m 333 902 l 333 0 l 698 0 q 852 20 788 0 q 957 77 916 41 q 1017 163 997 113 q 1036 268 1036 212 q 1017 375 1036 328 q 969 453 998 421 q 904 502 940 484 q 833 521 868 519 l 833 531 q 895 555 865 540 q 947 596 924 571 q 983 657 970 621 q 996 742 996 693 q 978 846 996 798 q 921 931 959 895 q 824 989 882 968 q 687 1010 766 1010 l 268 1010 q 182 994 219 1010 q 119 951 145 979 q 80 887 93 924 q 67 809 67 850 l 67 742 l 182 742 l 182 779 q 184 825 182 803 q 196 864 187 847 q 223 891 206 881 q 270 902 241 902 l 333 902 m 698 109 l 456 109 l 456 460 l 704 460 q 794 444 754 460 q 861 402 834 429 q 904 342 889 376 q 919 268 919 307 q 907 206 919 235 q 869 155 895 177 q 800 121 842 134 q 698 109 759 109 m 683 566 l 456 566 l 456 902 l 687 902 q 773 889 737 902 q 834 855 810 876 q 869 804 857 834 q 880 742 880 775 q 865 670 880 702 q 823 614 849 637 q 760 579 796 591 q 683 566 724 566 "},"Ƃ":{"ha":908,"x_min":122,"x_max":836,"o":"m 122 1010 l 122 0 l 501 0 q 645 22 582 0 q 750 83 708 44 q 815 177 793 122 q 836 298 836 232 q 815 417 836 364 q 750 508 793 470 q 645 566 708 545 q 501 586 582 586 l 245 586 l 245 902 l 732 902 l 732 1010 l 122 1010 m 501 107 l 245 107 l 245 477 l 501 477 q 593 463 553 477 q 661 425 633 449 q 702 368 688 400 q 716 300 716 336 q 702 228 716 263 q 661 166 688 193 q 593 123 633 139 q 501 107 553 107 "},"ƃ":{"ha":862,"x_min":122,"x_max":791,"o":"m 690 902 l 690 1010 l 122 1010 l 122 0 l 235 0 l 235 116 l 249 116 q 264 92 255 106 q 285 64 272 78 q 314 35 297 49 q 353 9 330 21 q 404 -9 375 -2 q 470 -16 433 -16 q 600 12 541 -16 q 701 91 659 39 q 767 214 744 142 q 791 377 791 287 q 767 539 791 467 q 701 662 744 611 q 599 740 658 713 q 468 767 540 767 q 402 761 431 767 q 351 743 373 754 q 312 717 328 731 q 284 689 296 703 q 263 661 272 674 q 249 637 255 647 l 239 637 l 239 902 l 690 902 m 237 379 q 251 495 237 442 q 292 584 265 547 q 360 642 320 622 q 454 663 400 663 q 551 641 509 663 q 620 581 592 619 q 661 491 647 543 q 675 379 675 439 q 661 265 675 318 q 619 173 647 213 q 550 111 591 134 q 454 89 509 89 q 361 110 401 89 q 293 169 320 131 q 251 261 265 208 q 237 379 237 315 "},"Ƅ":{"ha":992,"x_min":14,"x_max":965,"o":"m 373 586 l 373 1010 l 14 1010 l 14 902 l 251 902 l 251 0 l 629 0 q 773 22 711 0 q 878 83 836 44 q 943 177 921 122 q 965 298 965 232 q 943 417 965 364 q 878 508 921 470 q 773 566 836 545 q 629 586 711 586 l 373 586 m 373 107 l 373 477 l 629 477 q 721 463 681 477 q 789 425 762 449 q 830 368 816 400 q 844 300 844 336 q 830 228 844 263 q 789 166 816 193 q 721 123 762 139 q 629 107 681 107 l 373 107 "},"ƅ":{"ha":876,"x_min":51,"x_max":840,"o":"m 193 1042 l 162 1042 l 51 904 l 51 848 l 162 710 l 172 710 l 172 0 l 284 0 l 284 116 l 298 116 q 313 92 304 106 q 334 64 322 78 q 363 35 347 49 q 402 9 380 21 q 454 -9 425 -2 q 519 -16 482 -16 q 649 12 590 -16 q 751 91 708 39 q 817 214 793 142 q 840 377 840 287 q 817 539 840 467 q 750 662 793 611 q 648 740 708 713 q 517 767 589 767 q 451 761 480 767 q 400 743 422 754 q 362 717 378 731 q 333 689 345 703 q 313 661 321 674 q 298 637 304 647 l 288 637 l 288 1010 l 193 1010 l 193 1042 m 724 379 q 710 265 724 318 q 668 173 696 213 q 599 111 641 134 q 503 89 558 89 q 410 110 451 89 q 342 169 369 131 q 300 261 315 208 q 286 379 286 315 q 300 495 286 442 q 342 584 314 547 q 409 642 369 622 q 503 663 450 663 q 600 641 559 663 q 669 581 642 619 q 710 491 696 543 q 724 379 724 439 "},"Ɔ":{"ha":1010,"x_min":75,"x_max":927,"o":"m 197 316 l 75 316 q 126 177 89 238 q 216 73 162 115 q 338 9 270 31 q 481 -14 405 -14 q 660 22 579 -14 q 801 126 742 59 q 894 289 861 193 q 927 505 927 385 q 894 721 927 625 q 801 885 861 817 q 660 988 742 952 q 481 1024 579 1024 q 338 1001 405 1024 q 216 937 270 979 q 126 834 162 895 q 75 694 89 772 l 197 694 q 236 787 209 747 q 300 854 262 827 q 384 896 338 882 q 481 909 431 909 q 610 883 550 909 q 714 806 670 857 q 783 679 758 755 q 809 505 809 604 q 783 331 809 407 q 714 204 758 255 q 610 127 670 153 q 481 101 550 101 q 384 114 431 101 q 300 156 338 128 q 236 223 262 183 q 197 316 209 263 "},"Ƈ":{"ha":1071,"x_min":83,"x_max":1083,"o":"m 813 694 l 935 694 l 935 821 q 944 870 935 850 q 967 902 952 890 q 1002 918 981 913 q 1046 923 1022 923 q 1066 922 1056 923 q 1083 919 1076 921 l 1083 1018 q 1052 1023 1070 1022 q 1016 1024 1034 1024 q 956 1016 984 1024 q 903 993 927 1008 q 861 954 879 977 q 832 902 843 932 q 698 993 775 962 q 529 1024 620 1024 q 406 1008 464 1024 q 298 960 348 991 q 209 884 249 929 q 141 782 169 839 q 98 654 113 724 q 83 505 83 585 q 98 356 83 425 q 141 228 113 286 q 209 126 169 171 q 298 50 249 81 q 406 2 348 19 q 529 -14 464 -14 q 673 9 605 -14 q 794 73 740 31 q 885 177 848 115 q 935 316 921 238 l 813 316 q 775 223 802 263 q 710 156 748 183 q 626 114 672 128 q 529 101 579 101 q 400 127 460 101 q 296 204 340 153 q 227 331 252 255 q 201 505 201 407 q 227 679 201 604 q 296 806 252 755 q 400 883 340 857 q 529 909 460 909 q 626 896 579 909 q 710 854 672 882 q 775 787 748 827 q 813 694 802 747 "},"ƈ":{"ha":848,"x_min":71,"x_max":860,"o":"m 596 531 l 712 531 l 712 629 q 721 679 712 659 q 744 710 729 698 q 779 727 759 722 q 823 732 799 732 q 843 731 833 732 q 860 728 853 729 l 860 827 q 829 832 847 831 q 793 833 811 833 q 732 824 761 833 q 679 800 703 816 q 637 761 655 784 q 608 708 618 738 q 520 752 569 736 q 412 767 470 767 q 273 739 335 767 q 165 658 210 710 q 95 534 120 606 q 71 375 71 462 q 95 218 71 290 q 163 94 118 146 q 271 13 207 42 q 414 -16 334 -16 q 529 2 477 -16 q 619 53 581 21 q 681 127 657 84 q 712 221 705 171 l 596 221 q 571 165 588 190 q 531 124 554 141 q 478 98 508 107 q 414 89 448 89 q 321 109 363 89 q 249 168 279 130 q 203 259 219 206 q 187 379 187 313 q 204 496 187 443 q 250 585 220 548 q 322 643 280 622 q 414 663 363 663 q 483 652 453 663 q 537 623 514 641 q 575 581 560 604 q 596 531 589 557 "},"Ɖ":{"ha":998,"x_min":-34,"x_max":915,"o":"m 122 0 l 434 0 q 639 35 549 0 q 790 135 729 70 q 884 295 852 201 q 915 507 915 389 q 884 718 915 625 q 792 876 852 811 q 645 976 732 941 q 448 1010 558 1010 l 122 1010 l 122 566 l -34 566 l -34 475 l 122 475 l 122 0 m 426 109 l 245 109 l 245 475 l 400 475 l 400 566 l 245 566 l 245 902 l 440 902 q 596 874 529 902 q 707 796 662 847 q 775 672 752 745 q 797 507 797 599 q 774 341 797 415 q 706 215 752 267 q 590 136 659 164 q 426 109 520 109 "},"Ɗ":{"ha":1217,"x_min":67,"x_max":1134,"o":"m 67 809 l 67 742 l 182 742 l 182 779 q 184 825 182 803 q 196 864 187 847 q 223 891 206 881 q 270 902 241 902 l 341 902 l 341 0 l 653 0 q 858 35 768 0 q 1009 135 948 70 q 1103 295 1071 201 q 1134 507 1134 389 q 1103 718 1134 625 q 1011 876 1071 811 q 864 976 951 941 q 667 1010 777 1010 l 268 1010 q 182 994 219 1010 q 119 951 145 979 q 80 887 93 924 q 67 809 67 850 m 645 109 l 464 109 l 464 902 l 659 902 q 815 874 748 902 q 926 796 881 847 q 994 672 971 745 q 1016 507 1016 599 q 993 341 1016 415 q 925 215 971 267 q 809 136 878 164 q 645 109 739 109 "},"Ƌ":{"ha":876,"x_min":81,"x_max":795,"o":"m 418 0 l 795 0 l 795 988 l 187 988 l 187 874 l 655 874 l 655 590 l 418 590 q 274 569 337 590 q 168 510 211 548 q 103 418 125 472 q 81 298 81 364 q 103 177 81 232 q 168 83 125 122 q 274 22 211 44 q 418 0 337 0 m 655 475 l 655 112 l 418 112 q 329 128 366 112 q 268 169 291 144 q 234 229 245 195 q 223 300 223 263 q 234 368 223 336 q 268 424 245 400 q 329 462 291 448 q 418 475 366 475 l 655 475 "},"ƌ":{"ha":862,"x_min":71,"x_max":740,"o":"m 740 1010 l 172 1010 l 172 902 l 623 902 l 623 637 l 614 637 q 599 661 607 647 q 578 689 590 674 q 550 717 566 703 q 511 743 534 731 q 460 761 489 754 q 395 767 432 767 q 263 740 323 767 q 161 662 204 713 q 95 539 118 611 q 71 377 71 467 q 95 214 71 287 q 161 91 118 142 q 262 12 203 39 q 393 -16 322 -16 q 458 -9 429 -16 q 509 9 487 -2 q 548 35 532 21 q 577 64 565 49 q 599 92 590 78 q 614 116 607 106 l 627 116 l 627 0 l 740 0 l 740 1010 m 625 379 q 611 261 625 315 q 569 169 597 208 q 502 110 542 131 q 408 89 461 89 q 312 111 354 89 q 243 173 271 134 q 201 265 216 213 q 187 379 187 318 q 201 491 187 439 q 242 581 215 543 q 311 641 270 619 q 408 663 353 663 q 502 642 462 663 q 570 584 543 622 q 612 495 598 547 q 625 379 625 442 "},"ƍ":{"ha":750,"x_min":47,"x_max":704,"o":"m 128 -254 l 610 -254 l 610 -174 q 557 -117 585 -145 q 497 -61 528 -89 q 436 -6 467 -34 q 375 49 404 22 q 381 49 379 49 q 385 50 383 49 q 391 50 388 50 q 399 51 394 51 q 528 89 471 60 q 624 160 585 117 q 684 258 663 203 q 704 373 704 312 l 704 387 q 682 541 704 471 q 617 661 659 611 q 514 740 575 712 q 375 767 453 767 q 236 740 297 767 q 133 661 176 712 q 69 541 91 611 q 47 387 47 471 l 47 373 q 66 264 47 315 q 117 164 84 213 q 196 70 150 116 q 296 -24 241 24 q 333 -55 312 -37 q 372 -92 353 -73 q 407 -126 392 -110 q 428 -150 422 -142 l 128 -150 l 128 -254 m 568 387 l 568 373 q 556 282 568 326 q 519 206 544 239 q 455 154 494 173 q 363 134 416 134 q 331 136 345 134 q 304 142 317 138 q 258 181 280 158 q 219 233 236 204 q 192 298 202 262 q 182 373 182 333 l 182 387 q 193 495 182 445 q 228 581 204 545 q 288 638 252 618 q 375 659 325 659 q 463 638 426 659 q 523 581 499 618 q 557 495 546 545 q 568 387 568 445 "},"Ǝ":{"ha":831,"x_min":91,"x_max":708,"o":"m 708 0 l 708 1010 l 91 1010 l 91 902 l 586 902 l 586 558 l 130 558 l 130 450 l 586 450 l 586 109 l 99 109 l 99 0 l 708 0 "},"Ə":{"ha":1002,"x_min":93,"x_max":911,"o":"m 486 -14 q 608 2 551 -14 q 712 49 665 19 q 797 122 760 79 q 859 218 834 165 q 898 333 885 271 q 911 464 911 396 l 911 543 q 880 743 911 654 q 790 894 848 832 q 648 990 731 957 q 462 1024 565 1024 q 383 1019 423 1024 q 308 1005 344 1014 q 241 985 272 997 q 187 959 210 973 l 221 856 q 340 895 281 883 q 454 908 399 908 q 591 883 532 908 q 689 812 650 859 q 749 697 729 765 q 769 543 769 629 l 769 525 l 93 525 l 93 440 q 121 247 93 331 q 202 105 150 163 q 326 17 254 47 q 486 -14 399 -14 m 233 418 l 768 418 q 742 288 763 347 q 685 188 721 229 q 598 123 649 146 q 484 101 548 101 q 381 120 427 101 q 301 176 334 139 q 251 269 268 213 q 233 397 233 324 l 233 418 "},"Ɛ":{"ha":876,"x_min":81,"x_max":795,"o":"m 548 458 l 548 543 l 548 570 l 438 570 q 345 585 383 570 q 283 623 307 599 q 248 678 258 647 q 237 742 237 709 q 250 810 237 779 q 289 863 263 841 q 352 897 314 885 q 441 909 391 909 q 526 898 488 909 q 588 865 563 886 q 628 816 614 844 q 641 752 641 787 l 781 752 q 756 865 781 815 q 686 951 731 915 q 578 1005 641 986 q 441 1024 516 1024 q 306 1005 368 1024 q 196 950 243 986 q 123 863 150 915 q 97 747 97 812 q 108 671 97 706 q 139 606 119 635 q 189 555 160 577 q 255 516 218 532 q 127 425 172 487 q 81 268 81 363 q 94 178 81 218 q 131 107 108 138 q 188 53 155 75 q 260 15 221 30 q 345 -7 300 0 q 436 -14 389 -14 q 528 -6 483 -14 q 613 16 574 1 q 687 55 653 32 q 744 110 720 78 q 781 183 768 142 q 795 274 795 224 l 655 274 q 641 206 655 238 q 600 150 628 174 q 532 112 573 126 q 435 99 491 99 q 352 109 391 99 q 285 140 313 119 q 239 196 256 162 q 223 278 223 230 q 277 413 223 369 q 438 458 331 458 l 548 458 "},"Ƒ":{"ha":815,"x_min":-24,"x_max":728,"o":"m 122 1010 l 122 -79 q 114 -128 122 -109 q 92 -160 106 -148 q 57 -177 77 -172 q 14 -182 37 -182 q -6 -180 3 -182 q -24 -178 -16 -179 l -24 -278 q -7 -282 -13 -281 q 3 -283 0 -283 q 9 -284 7 -284 q 14 -284 11 -284 q 186 -232 128 -284 q 245 -81 245 -179 l 245 452 l 683 452 l 683 560 l 245 560 l 245 902 l 728 902 l 728 1010 l 122 1010 "},"ƒ":{"ha":537,"x_min":20,"x_max":517,"o":"m 450 633 l 450 734 l 312 734 l 312 809 q 342 907 312 874 q 432 939 372 939 q 463 937 450 939 q 487 931 477 934 l 517 1038 q 493 1045 508 1042 q 463 1050 479 1048 q 431 1054 447 1053 q 400 1055 415 1055 q 316 1039 355 1055 q 249 992 277 1023 q 205 915 221 961 q 189 809 189 869 l 189 734 l 67 734 l 67 633 l 189 633 l 189 -49 q 182 -102 189 -79 q 163 -142 176 -126 q 134 -167 150 -158 q 97 -176 117 -176 q 83 -175 92 -176 q 64 -174 74 -175 q 44 -172 54 -173 q 30 -168 35 -170 l 20 -274 q 57 -282 39 -280 q 97 -284 76 -284 q 256 -224 201 -284 q 312 -49 312 -164 l 312 633 l 450 633 "},"Ɠ":{"ha":1073,"x_min":83,"x_max":1085,"o":"m 813 694 l 939 694 q 938 699 939 697 q 937 704 938 702 l 937 801 q 945 850 937 831 q 969 882 954 870 q 1004 899 983 894 q 1048 904 1024 904 q 1068 902 1058 904 q 1085 900 1078 901 l 1085 998 q 1054 1003 1072 1003 q 1018 1004 1036 1004 q 905 976 949 1004 q 838 895 860 948 q 701 990 781 956 q 525 1024 621 1024 q 346 988 428 1024 q 207 885 265 952 q 115 721 148 817 q 83 505 83 625 q 115 289 83 385 q 207 126 148 193 q 349 22 266 59 q 533 -14 432 -14 q 699 15 623 -14 q 829 97 774 44 q 914 227 884 151 q 945 397 945 303 l 945 505 l 560 505 l 560 397 l 827 397 q 803 274 825 328 q 743 181 781 219 q 650 121 704 142 q 533 101 597 101 q 402 127 463 101 q 297 204 341 153 q 227 331 252 255 q 201 505 201 407 q 227 679 201 604 q 296 806 252 755 q 399 883 339 857 q 525 909 458 909 q 625 894 580 909 q 708 852 671 879 q 770 784 744 824 q 813 694 797 744 "},"Ɣ":{"ha":876,"x_min":14,"x_max":862,"o":"m 146 1010 l 14 1010 l 375 177 q 325 65 347 113 q 287 -18 303 18 q 263 -82 271 -55 q 254 -134 254 -110 q 267 -205 254 -174 q 303 -257 280 -236 q 361 -289 327 -278 q 438 -300 395 -300 q 515 -289 481 -300 q 573 -257 549 -278 q 609 -205 596 -236 q 621 -134 621 -174 q 613 -85 621 -111 q 588 -22 604 -58 q 549 61 572 14 q 500 171 527 108 l 862 1010 l 730 1010 l 436 322 l 146 1010 m 439 30 q 464 -28 453 -3 q 482 -72 475 -53 q 493 -107 490 -92 q 497 -134 497 -122 q 493 -155 497 -145 q 481 -173 489 -165 q 462 -185 473 -181 q 438 -189 451 -189 q 395 -174 411 -189 q 379 -134 379 -158 q 383 -106 379 -122 q 395 -71 387 -91 q 414 -27 402 -51 q 439 30 425 -2 "},"ƕ":{"ha":1314,"x_min":107,"x_max":1207,"o":"m 107 1010 l 107 0 l 223 0 l 223 456 q 238 544 223 506 q 280 609 253 582 q 343 649 306 635 q 422 663 379 663 q 496 650 463 663 q 551 613 528 638 q 586 554 574 589 q 598 473 598 519 l 598 300 q 618 159 598 218 q 671 61 637 100 q 751 4 705 23 q 850 -14 798 -14 q 947 3 901 -14 q 1032 54 993 19 q 1104 143 1072 89 q 1160 271 1137 197 q 1195 441 1182 345 q 1207 655 1207 537 l 1207 758 l 1091 758 l 1091 655 q 1082 468 1091 550 q 1058 322 1074 385 q 1020 215 1042 259 q 973 143 999 171 q 918 102 947 114 q 858 89 889 89 q 827 92 843 89 q 795 104 811 95 q 764 128 779 113 q 739 166 750 143 q 721 223 727 190 q 714 300 714 255 l 714 481 q 696 608 714 554 q 643 697 677 662 q 562 750 609 733 q 456 767 514 767 q 376 758 411 767 q 313 733 340 749 q 266 692 286 716 q 233 639 246 669 l 223 639 l 223 1010 l 107 1010 "},"Ɩ":{"ha":359,"x_min":107,"x_max":359,"o":"m 223 1010 l 107 1010 l 107 166 q 148 39 107 85 q 272 -6 189 -6 q 321 -2 297 -6 q 359 6 344 1 l 335 107 q 317 102 327 104 q 286 99 307 100 q 254 103 267 98 q 235 120 242 108 q 226 151 228 132 q 223 197 223 170 l 223 1010 "},"Ɨ":{"ha":367,"x_min":-34,"x_max":400,"o":"m 245 566 l 245 1010 l 122 1010 l 122 566 l -34 566 l -34 475 l 122 475 l 122 0 l 245 0 l 245 475 l 400 475 l 400 566 l 245 566 "}}}
